<svg xmlns="http://www.w3.org/2000/svg" width="111.779" height="64.37" viewBox="0 0 111.779 64.37">
  <g id="logo" transform="translate(0.002 0.001)">
    <g id="レイヤー_2" data-name="レイヤー 2" transform="translate(-0.002 -0.001)">
      <path id="パス_1" data-name="パス 1" d="M35.589,64.165h0V56.2h.949v9.348H35.38L29.941,57.5h0v8.045H29V56.2h1.191Z" transform="translate(-5.668 -10.986)" fill="#231815"/>
      <path id="パス_2" data-name="パス 2" d="M41.156,65.548H40.11L44.133,56.2h.925l4.023,9.348H48.067l-1.03-2.414H42.21Zm1.376-3.331h4.119l-2.06-4.964Z" transform="translate(-7.84 -10.986)" fill="#231815"/>
      <path id="パス_3" data-name="パス 3" d="M59.156,57.831a3.218,3.218,0,0,0-1.158-.8,3.886,3.886,0,0,0-1.537-.241,3.846,3.846,0,0,0-1.609.33,3.725,3.725,0,0,0-1.223.893,3.829,3.829,0,0,0-.8,1.3,4.425,4.425,0,0,0-.249,1.5,4.352,4.352,0,0,0,.274,1.609,3.829,3.829,0,0,0,.8,1.3,3.709,3.709,0,0,0,1.223.885,3.846,3.846,0,0,0,1.609.33,5.8,5.8,0,0,0,1.448-.177A3.6,3.6,0,0,0,59,64.315v-2.88H56.8V60.59h3.162v4.24a6.026,6.026,0,0,1-1.657.692,7.635,7.635,0,0,1-1.834.225,5.221,5.221,0,0,1-1.955-.37,4.642,4.642,0,0,1-1.545-1.03,4.586,4.586,0,0,1-1.054-1.561,5.093,5.093,0,0,1-.346-1.979,5.245,5.245,0,0,1,.346-1.963A4.666,4.666,0,0,1,54.49,56.27a5.093,5.093,0,0,1,1.931-.37,5.181,5.181,0,0,1,1.955.338,4.135,4.135,0,0,1,1.424.933Z" transform="translate(-10.08 -10.927)" fill="#231815"/>
      <path id="パス_4" data-name="パス 4" d="M64.648,65.548H63.61L67.633,56.2h.925l4.023,9.348H71.534L70.5,63.135H65.678Zm1.376-3.331h4.119l-2.06-4.964Z" transform="translate(-12.434 -10.986)" fill="#231815"/>
      <path id="パス_5" data-name="パス 5" d="M80.871,57.646a2.414,2.414,0,0,0-.8-.684,2.5,2.5,0,0,0-1.85-.145,1.939,1.939,0,0,0-.644.322,1.73,1.73,0,0,0-.475.547,1.69,1.69,0,0,0-.177.8,1.464,1.464,0,0,0,.169.74,1.665,1.665,0,0,0,.459.491,2.566,2.566,0,0,0,.644.338l.756.265c.33.1.652.217.981.346a3.4,3.4,0,0,1,.893.483,2.333,2.333,0,0,1,.644.748,2.413,2.413,0,0,1,.249,1.159,2.566,2.566,0,0,1-.265,1.207,2.526,2.526,0,0,1-.692.8,2.848,2.848,0,0,1-.973.491,4.071,4.071,0,0,1-1.11.161,4.3,4.3,0,0,1-.8-.088,3.91,3.91,0,0,1-.8-.257,3.218,3.218,0,0,1-.708-.434,3.025,3.025,0,0,1-.587-.611l.8-.6a2.575,2.575,0,0,0,.853.8,2.414,2.414,0,0,0,1.287.338,2.519,2.519,0,0,0,.724-.113,1.955,1.955,0,0,0,.668-.346,1.842,1.842,0,0,0,.491-.563,1.754,1.754,0,0,0,0-1.609,1.706,1.706,0,0,0-.507-.539,3.218,3.218,0,0,0-.724-.362l-.861-.3a9.449,9.449,0,0,1-.941-.282,2.936,2.936,0,0,1-.8-.483,2.164,2.164,0,0,1-.571-.732,2.365,2.365,0,0,1-.217-1.07,2.309,2.309,0,0,1,.274-1.158,2.341,2.341,0,0,1,.7-.8,3.065,3.065,0,0,1,.965-.467,3.95,3.95,0,0,1,1.046-.145,3.6,3.6,0,0,1,1.609.338,2.7,2.7,0,0,1,1.014.8Z" transform="translate(-14.811 -10.927)" fill="#231815"/>
      <path id="パス_6" data-name="パス 6" d="M85.4,65.548H84.36L88.383,56.2h.925l4.023,9.348H92.284l-1.03-2.414H86.428Zm1.376-3.331h4.119l-2.06-4.964Z" transform="translate(-16.491 -10.986)" fill="#231815"/>
      <path id="パス_7" data-name="パス 7" d="M98.179,60.4h0l4.5-4.2h1.36l-4.714,4.24,4.964,5.109h-1.4L98.2,60.568h0v4.98H97.23V56.2h.949Z" transform="translate(-19.007 -10.986)" fill="#231815"/>
      <path id="パス_8" data-name="パス 8" d="M108.489,65.548h-.949V56.2h.949Z" transform="translate(-21.022 -10.986)" fill="#231815"/>
      <path id="パス_9" data-name="パス 9" d="M14.9,32.138a4.417,4.417,0,0,0-2.027-1.521,6.525,6.525,0,0,0-2.414-.475,6.6,6.6,0,0,0-2.735.547,6.436,6.436,0,0,0-2.092,1.5,6.79,6.79,0,0,0-1.368,2.245,7.884,7.884,0,0,0-.483,2.792,8.745,8.745,0,0,0,.467,2.9,6.717,6.717,0,0,0,1.384,2.261,5.913,5.913,0,0,0,2.027,1.456,6.613,6.613,0,0,0,2.7.523,6.018,6.018,0,0,0,2.767-.611,5.43,5.43,0,0,0,1.939-1.609l2.759,1.947a8.914,8.914,0,0,1-3.146,2.5,10.04,10.04,0,0,1-4.344.885,11.336,11.336,0,0,1-4.175-.748A9.807,9.807,0,0,1,2.9,44.592,9.654,9.654,0,0,1,.764,41.374,10.917,10.917,0,0,1,0,37.222a10.459,10.459,0,0,1,.8-4.2A9.381,9.381,0,0,1,3.025,29.8a9.727,9.727,0,0,1,3.323-1.979A11.778,11.778,0,0,1,10.5,27.11a11.907,11.907,0,0,1,1.947.177,10.458,10.458,0,0,1,1.939.547,9.742,9.742,0,0,1,1.746.917,5.881,5.881,0,0,1,1.4,1.311Z" transform="translate(0.002 -5.299)" fill="#231815"/>
      <path id="パス_10" data-name="パス 10" d="M23.45,27.71H26.9v7.828H35.96V27.71H39.4V47.074H35.96V38.49H26.9v8.584H23.45Z" transform="translate(-4.583 -5.416)" fill="#231815"/>
      <path id="パス_11" data-name="パス 11" d="M46.43,27.71H59.254v3.009h-9.38v4.924h8.85v2.9h-8.85v5.495h9.887V47.1H46.43Z" transform="translate(-9.076 -5.416)" fill="#231815"/>
      <path id="パス_12" data-name="パス 12" d="M75.319,31.635a4.151,4.151,0,0,0-1.545-1.183,4.586,4.586,0,0,0-2.011-.483,4.666,4.666,0,0,0-1.2.153,3.516,3.516,0,0,0-1.094.467,2.55,2.55,0,0,0-.8.8,2.253,2.253,0,0,0-.322,1.255,2.212,2.212,0,0,0,.274,1.118,2.454,2.454,0,0,0,.756.8,5.013,5.013,0,0,0,1.158.571c.459.169.957.33,1.5.491s1.263.434,1.931.684A7.844,7.844,0,0,1,75.8,37.331a5,5,0,0,1,1.36,1.609,4.827,4.827,0,0,1,.539,2.414,6.018,6.018,0,0,1-.579,2.719A5.631,5.631,0,0,1,75.593,46a6.589,6.589,0,0,1-2.245,1.15,9.582,9.582,0,0,1-2.7.378,10.129,10.129,0,0,1-3.693-.7A7.048,7.048,0,0,1,64,44.717l2.462-2.3a4.924,4.924,0,0,0,1.9,1.5,5.3,5.3,0,0,0,2.341.571,5.575,5.575,0,0,0,1.231-.145,3.451,3.451,0,0,0,1.134-.507,2.816,2.816,0,0,0,.8-.893,2.566,2.566,0,0,0,.314-1.319,2.2,2.2,0,0,0-.354-1.279,3.338,3.338,0,0,0-.957-.869,6.484,6.484,0,0,0-1.424-.644l-1.706-.547a15.486,15.486,0,0,1-1.722-.652,5.833,5.833,0,0,1-1.609-1.014,4.827,4.827,0,0,1-1.126-1.553,5.189,5.189,0,0,1-.442-2.285,5.02,5.02,0,0,1,.619-2.542,5.447,5.447,0,0,1,1.609-1.762,7.128,7.128,0,0,1,2.269-1.038,9.759,9.759,0,0,1,2.591-.346,9.236,9.236,0,0,1,2.993.523,7.241,7.241,0,0,1,2.639,1.561Z" transform="translate(-12.51 -5.295)" fill="#231815"/>
      <path id="パス_13" data-name="パス 13" d="M87.369,30.719H81.44V27.71H96.726v3.009H90.812V47.074H87.369Z" transform="translate(-15.92 -5.416)" fill="#231815"/>
      <path id="パス_14" data-name="パス 14" d="M101.9,27.71h12.824v3.009h-9.38v4.924h8.85v2.9h-8.85v5.495h9.871V47.1H101.9Z" transform="translate(-19.92 -5.416)" fill="#231815"/>
      <path id="パス_15" data-name="パス 15" d="M120.744,27.71h6.726a12.067,12.067,0,0,1,2.655.29,6.87,6.87,0,0,1,2.277.941,4.939,4.939,0,0,1,1.609,1.73,5.181,5.181,0,0,1,.6,2.59,4.932,4.932,0,0,1-1.191,3.435,6,6,0,0,1-3.218,1.794l5.173,8.584h-4.159l-4.481-8.206h-2.574v8.206H120.72ZM127,36.053a10.256,10.256,0,0,0,1.48-.1,4.16,4.16,0,0,0,1.319-.41,2.583,2.583,0,0,0,.973-.869,2.413,2.413,0,0,0,.386-1.432,2.22,2.22,0,0,0-.354-1.3,2.671,2.671,0,0,0-.909-.8,3.749,3.749,0,0,0-1.239-.41,8.849,8.849,0,0,0-1.36-.1h-3.138v5.438Z" transform="translate(-23.599 -5.416)" fill="#231815"/>
      <path id="パス_16" data-name="パス 16" d="M32.08,74.459a1.287,1.287,0,0,1,.6-.611,1.762,1.762,0,0,1,.877-.225,1.512,1.512,0,0,1,1.255.5,1.947,1.947,0,0,1,.418,1.311v2.7H34.59V75.714a3.813,3.813,0,0,0-.056-.636,1.448,1.448,0,0,0-.193-.483,1.014,1.014,0,0,0-.37-.314,1.335,1.335,0,0,0-.571-.113,1.207,1.207,0,0,0-.5.1,1.327,1.327,0,0,0-.426.314,1.609,1.609,0,0,0-.3.539,2.188,2.188,0,0,0-.113.8v2.253H31.42V71h.644v3.459Z" transform="translate(-6.141 -13.88)" fill="#231815"/>
      <path id="パス_17" data-name="パス 17" d="M42.492,76.573a2.413,2.413,0,0,1-.169.917,2.317,2.317,0,0,1-.483.732,2.18,2.18,0,0,1-.74.483,2.462,2.462,0,0,1-.949.177,2.414,2.414,0,0,1-.941-.177,2.035,2.035,0,0,1-.74-.483,2.076,2.076,0,0,1-.483-.732,2.3,2.3,0,0,1-.177-.917,2.341,2.341,0,0,1,.153-.909,2.148,2.148,0,0,1,.483-.732,2.269,2.269,0,0,1,.74-.483,2.574,2.574,0,0,1,.941-.169,2.615,2.615,0,0,1,.949.169A2.162,2.162,0,0,1,42.3,75.664a2.486,2.486,0,0,1,.193.909Zm-.676,0a1.955,1.955,0,0,0-.113-.692,1.722,1.722,0,0,0-.338-.563,1.456,1.456,0,0,0-.523-.378,1.725,1.725,0,0,0-1.384,0,1.529,1.529,0,0,0-.523.378,1.609,1.609,0,0,0-.33.563,1.955,1.955,0,0,0-.121.692,1.987,1.987,0,0,0,.121.692,1.649,1.649,0,0,0,.33.563,1.513,1.513,0,0,0,.523.37,1.819,1.819,0,0,0,1.384,0,1.44,1.44,0,0,0,.523-.37,1.81,1.81,0,0,0,.338-.563A1.979,1.979,0,0,0,41.816,76.573Z" transform="translate(-7.39 -14.521)" fill="#231815"/>
      <path id="パス_18" data-name="パス 18" d="M47.122,74.63H45.883V77.2a1.408,1.408,0,0,0,.048.4.531.531,0,0,0,.137.249.491.491,0,0,0,.209.121.925.925,0,0,0,.265,0,1.1,1.1,0,0,0,.274,0,1.682,1.682,0,0,0,.282-.1v.555a2.277,2.277,0,0,1-.354.1,2,2,0,0,1-.394,0,1.609,1.609,0,0,1-.378-.048.949.949,0,0,1-.362-.177,1.038,1.038,0,0,1-.282-.354,1.408,1.408,0,0,1-.1-.6V74.63H44.33V74.1h.917V72.86h.636V74.1h1.239Z" transform="translate(-8.665 -14.243)" fill="#231815"/>
      <path id="パス_19" data-name="パス 19" d="M52.952,76.468v.145a1.135,1.135,0,0,1,0,.161H49.308a1.778,1.778,0,0,0,.129.619,1.858,1.858,0,0,0,.338.507,1.713,1.713,0,0,0,.507.346,1.681,1.681,0,0,0,.636.121,1.609,1.609,0,0,0,.861-.29,1.818,1.818,0,0,0,.547-.531l.475.37a2.253,2.253,0,0,1-.869.716,2.414,2.414,0,0,1-1.014.217,2.261,2.261,0,0,1-.909-.177,2.011,2.011,0,0,1-.716-.483,2.172,2.172,0,0,1-.475-.732,2.3,2.3,0,0,1-.177-.917,2.486,2.486,0,0,1,.169-.877A2.156,2.156,0,0,1,50.86,74.28a2.317,2.317,0,0,1,.909.169,1.907,1.907,0,0,1,.66.475,2.06,2.06,0,0,1,.394.684,2.414,2.414,0,0,1,.129.861Zm-.644-.2a1.609,1.609,0,0,0-.4-1.03,1.343,1.343,0,0,0-1.054-.41,1.456,1.456,0,0,0-.6.121,1.738,1.738,0,0,0-.475.314,1.609,1.609,0,0,0-.33.467,1.529,1.529,0,0,0-.145.539Z" transform="translate(-9.508 -14.521)" fill="#231815"/>
      <path id="パス_20" data-name="パス 20" d="M56.376,78.128H55.74V71h.636Z" transform="translate(-10.896 -13.88)" fill="#231815"/>
      <path id="パス_21" data-name="パス 21" d="M65.605,76.706l1.5,1.537H66.16l-.941-.99a2.8,2.8,0,0,1-.893.8,2.317,2.317,0,0,1-1.15.266,2.631,2.631,0,0,1-.8-.121,1.923,1.923,0,0,1-.66-.354,1.657,1.657,0,0,1-.451-.571,1.9,1.9,0,0,1-.161-.8,1.987,1.987,0,0,1,.113-.676,1.77,1.77,0,0,1,.33-.539,2.237,2.237,0,0,1,.483-.426,4.022,4.022,0,0,1,.611-.33,4.073,4.073,0,0,1-.3-.33,3.805,3.805,0,0,1-.257-.37,1.859,1.859,0,0,1-.177-.41,1.376,1.376,0,0,1-.072-.442,1.561,1.561,0,0,1,.129-.66,1.512,1.512,0,0,1,.354-.5,1.73,1.73,0,0,1,.531-.306,2.059,2.059,0,0,1,.636-.1,1.963,1.963,0,0,1,.619.1,1.472,1.472,0,0,1,.515.29,1.336,1.336,0,0,1,.346.467,1.472,1.472,0,0,1,.129.636,1.319,1.319,0,0,1-.129.6,1.714,1.714,0,0,1-.338.475,2.414,2.414,0,0,1-.475.37,5.359,5.359,0,0,1-.555.306l1.553,1.609.917-1.609h.8Zm-2.59-1.77a2.414,2.414,0,0,0-.909.644,1.335,1.335,0,0,0-.282.9,1.247,1.247,0,0,0,.113.523,1.03,1.03,0,0,0,.3.394,1.279,1.279,0,0,0,.442.257,1.52,1.52,0,0,0,.539.1,1.609,1.609,0,0,0,.909-.241,2.735,2.735,0,0,0,.676-.732Zm1.416-2.06a.909.909,0,0,0-.941-.941.973.973,0,0,0-.716.282.99.99,0,0,0-.29.748,1.094,1.094,0,0,0,.08.37,1.915,1.915,0,0,0,.185.362A2.414,2.414,0,0,0,62.99,74a1.817,1.817,0,0,0,.217.217,4.647,4.647,0,0,0,.442-.233,2.334,2.334,0,0,0,.394-.282,1.408,1.408,0,0,0,.282-.37.965.965,0,0,0,.1-.459Z" transform="translate(-11.943 -13.954)" fill="#231815"/>
      <path id="パス_22" data-name="パス 22" d="M72.694,74.848v-.507h.6v.748h0a1.561,1.561,0,0,1,.563-.628,1.609,1.609,0,0,1,.853-.233h.217a.894.894,0,0,1,.2,0l-.08.6H74.6a1.271,1.271,0,0,0-.491.1,1,1,0,0,0-.41.3,1.561,1.561,0,0,0-.282.515,2.3,2.3,0,0,0-.1.748v2.253H72.67V75.331A1.723,1.723,0,0,0,72.694,74.848Z" transform="translate(-14.205 -14.51)" fill="#231815"/>
      <path id="パス_23" data-name="パス 23" d="M80.84,76.468v.306H77.188a1.609,1.609,0,0,0,.129.619,1.552,1.552,0,0,0,.338.507,1.714,1.714,0,0,0,.507.346,1.522,1.522,0,0,0,1.488-.169,1.649,1.649,0,0,0,.547-.531l.483.37a2.284,2.284,0,0,1-1.891.933,2.221,2.221,0,0,1-.9-.177,2.044,2.044,0,0,1-.724-.483,2.3,2.3,0,0,1-.475-.732,2.414,2.414,0,0,1-.169-.917,2.486,2.486,0,0,1,.169-.877,2.236,2.236,0,0,1,.467-.732,2.3,2.3,0,0,1,.708-.483,2.2,2.2,0,0,1,.869-.169,2.261,2.261,0,0,1,.909.169,1.907,1.907,0,0,1,.66.475,1.947,1.947,0,0,1,.4.684A2.654,2.654,0,0,1,80.84,76.468Zm-.652-.2a1.609,1.609,0,0,0-.394-1.03,1.368,1.368,0,0,0-1.062-.41,1.424,1.424,0,0,0-.587.121,1.665,1.665,0,0,0-.483.314,1.609,1.609,0,0,0-.33.467,1.368,1.368,0,0,0-.137.539Z" transform="translate(-14.958 -14.521)" fill="#231815"/>
      <path id="パス_24" data-name="パス 24" d="M85.374,74.63H84.135V77.2a1.408,1.408,0,0,0,.048.4.611.611,0,0,0,.137.249.547.547,0,0,0,.209.121.957.957,0,0,0,.265,0,1.207,1.207,0,0,0,.282,0,1.607,1.607,0,0,0,.274-.1v.555a2.412,2.412,0,0,1-.346.1,2.09,2.09,0,0,1-.4,0,1.609,1.609,0,0,1-.378-.048.949.949,0,0,1-.362-.177,1.038,1.038,0,0,1-.282-.354,1.408,1.408,0,0,1-.1-.6V74.63H82.59V74.1H83.5V72.86h.636V74.1h1.239Z" transform="translate(-16.145 -14.243)" fill="#231815"/>
      <path id="パス_25" data-name="パス 25" d="M87.28,74.848v-.507h.579v.748h0a1.561,1.561,0,0,1,.563-.628,1.609,1.609,0,0,1,.853-.233h.217a.99.99,0,0,1,.2,0l-.08.6-.145.016h-.257a1.239,1.239,0,0,0-.491.1,1,1,0,0,0-.41.3,1.561,1.561,0,0,0-.282.515,2.3,2.3,0,0,0-.1.748v2.253H87.28V75.331A4.732,4.732,0,0,0,87.28,74.848Z" transform="translate(-17.062 -14.51)" fill="#231815"/>
      <path id="パス_26" data-name="パス 26" d="M95.422,76.468v.306H91.77a1.609,1.609,0,0,0,.129.619,1.552,1.552,0,0,0,.338.507,1.714,1.714,0,0,0,.507.346,1.538,1.538,0,0,0,1.5-.169,1.649,1.649,0,0,0,.547-.531l.483.37a2.284,2.284,0,0,1-1.891.933,2.221,2.221,0,0,1-.9-.177,2.044,2.044,0,0,1-.724-.483,2.3,2.3,0,0,1-.475-.732,2.414,2.414,0,0,1-.169-.917,2.486,2.486,0,0,1,.161-.877,2.236,2.236,0,0,1,.467-.732,2.3,2.3,0,0,1,.708-.483,2.2,2.2,0,0,1,.869-.169,2.26,2.26,0,0,1,.909.169,1.907,1.907,0,0,1,.66.475,2.075,2.075,0,0,1,.4.684A2.655,2.655,0,0,1,95.422,76.468Zm-.652-.2a1.609,1.609,0,0,0-.394-1.03,1.368,1.368,0,0,0-1.062-.41,1.424,1.424,0,0,0-.587.121,1.665,1.665,0,0,0-.483.314,1.609,1.609,0,0,0-.33.467,1.368,1.368,0,0,0-.137.539Z" transform="translate(-17.81 -14.521)" fill="#231815"/>
      <path id="パス_27" data-name="パス 27" d="M100.867,75.909a1.094,1.094,0,0,0-.306-.8,1.239,1.239,0,0,0-.869-.282,1.826,1.826,0,0,0-.732.145,1.705,1.705,0,0,0-.579.37l-.354-.491a2.1,2.1,0,0,1,.716-.451,2.679,2.679,0,0,1,1.014-.177,2.269,2.269,0,0,1,.668.1,1.472,1.472,0,0,1,.539.3,1.287,1.287,0,0,1,.37.5,1.7,1.7,0,0,1,.129.7v2.454a2.414,2.414,0,0,0,.056.459h-.579a.9.9,0,0,0-.048-.346.955.955,0,0,1,0-.37h0a1.818,1.818,0,0,1-.684.636,1.979,1.979,0,0,1-.917.193,1.94,1.94,0,0,1-.515-.072,1.327,1.327,0,0,1-.861-.644,1.239,1.239,0,0,1-.145-.619,1.191,1.191,0,0,1,.257-.8,1.609,1.609,0,0,1,.692-.451,4.328,4.328,0,0,1,.99-.185h1.167Zm-.193.652h-.8a3.564,3.564,0,0,0-.716.129,1.3,1.3,0,0,0-.531.29.636.636,0,0,0-.209.5.8.8,0,0,0,.088.394.676.676,0,0,0,.241.257.925.925,0,0,0,.33.137,1.464,1.464,0,0,0,.37.048,1.44,1.44,0,0,0,.6-.121,1.279,1.279,0,0,0,.442-.322,1.392,1.392,0,0,0,.274-.459,1.609,1.609,0,0,0,.1-.555v-.33Z" transform="translate(-19.112 -14.509)" fill="#231815"/>
      <path id="パス_28" data-name="パス 28" d="M106.192,74.63h-1.239V77.2a1.408,1.408,0,0,0,.048.4.523.523,0,0,0,.129.249.579.579,0,0,0,.217.121.9.9,0,0,0,.257,0,1.166,1.166,0,0,0,.282,0,1.609,1.609,0,0,0,.274-.1v.555a2.551,2.551,0,0,1-.354.1,2.092,2.092,0,0,1-.4,0,1.562,1.562,0,0,1-.37-.048.925.925,0,0,1-.37-.177,1.022,1.022,0,0,1-.274-.354,1.4,1.4,0,0,1-.113-.6V74.63H103.4V74.1h.909V72.86h.644V74.1h1.239Z" transform="translate(-20.213 -14.243)" fill="#231815"/>
      <path id="パス_29" data-name="パス 29" d="M21.53.61h6.726A11.987,11.987,0,0,1,30.91.9a6.911,6.911,0,0,1,2.261.941A4.98,4.98,0,0,1,34.78,3.563a5.213,5.213,0,0,1,.6,2.6A4.972,4.972,0,0,1,34.193,9.6a5.969,5.969,0,0,1-3.218,1.786l5.165,8.592H31.98l-4.489-8.206h-2.51v8.206H21.53ZM27.8,8.969a10.081,10.081,0,0,0,1.472-.113,4.272,4.272,0,0,0,1.327-.41,2.566,2.566,0,0,0,.965-.877,2.526,2.526,0,0,0,.378-1.432,2.188,2.188,0,0,0-.378-1.3,2.623,2.623,0,0,0-.9-.8,3.733,3.733,0,0,0-1.247-.41,8.753,8.753,0,0,0-1.352-.113H24.981V8.969Z" transform="translate(-4.208 -0.118)" fill="#231815"/>
      <path id="パス_30" data-name="パス 30" d="M40.14,10.12a10.909,10.909,0,0,1,.8-4.2A9.244,9.244,0,0,1,43.108,2.7a9.485,9.485,0,0,1,3.25-2A11.7,11.7,0,0,1,50.486,0a11.923,11.923,0,0,1,4.183.708,9.654,9.654,0,0,1,3.323,2.027,9.043,9.043,0,0,1,2.172,3.218,10.764,10.764,0,0,1,.8,4.2,10.652,10.652,0,0,1-.8,4.143,9.437,9.437,0,0,1-2.172,3.218,9.839,9.839,0,0,1-3.307,2.1,11.263,11.263,0,0,1-4.183.756,11.038,11.038,0,0,1-4.143-.756,9.533,9.533,0,0,1-5.446-5.326,10.8,10.8,0,0,1-.772-4.167Zm3.741,0a8.15,8.15,0,0,0,.483,2.856,6.541,6.541,0,0,0,1.368,2.253,6.3,6.3,0,0,0,2.1,1.5,6.685,6.685,0,0,0,2.7.531,6.766,6.766,0,0,0,2.711-.531,6.283,6.283,0,0,0,2.116-1.5,6.661,6.661,0,0,0,1.368-2.253A8.149,8.149,0,0,0,57.2,10.12a7.86,7.86,0,0,0-.483-2.792,6.943,6.943,0,0,0-1.352-2.245,6.436,6.436,0,0,0-2.108-1.5,6.693,6.693,0,0,0-2.735-.547,6.621,6.621,0,0,0-2.719.547,6.355,6.355,0,0,0-2.092,1.5,6.669,6.669,0,0,0-1.352,2.245,7.86,7.86,0,0,0-.483,2.792Z" transform="translate(-7.846 0.001)" fill="#231815"/>
      <path id="パス_31" data-name="パス 31" d="M71.523,11.575,64.25.61h4.208l4.827,8.15L78.248.61h4.023L75.03,11.575v8.4H71.523Z" transform="translate(-12.559 -0.118)" fill="#231815"/>
      <path id="パス_32" data-name="パス 32" d="M89.353.61H92.33l8.343,19.364H96.738l-1.81-4.433H86.537l-1.754,4.433H80.93ZM93.73,12.589,90.745,4.713l-3.033,7.876Z" transform="translate(-15.82 -0.118)" fill="#231815"/>
      <path id="パス_33" data-name="パス 33" d="M107.28.61h3.443v16.3h8.23v3.065H107.28Z" transform="translate(-20.972 -0.118)" fill="#231815"/>
    </g>
  </g>
</svg>
