<svg xmlns="http://www.w3.org/2000/svg" width="198.192" height="204.143" viewBox="0 0 198.192 204.143">
  <g id="accessory" transform="translate(1643.201 -10237)">
    <path id="パス_4833" data-name="パス 4833" d="M481.543,373.058V189.329c0-5.639-5.55-10.209-12.392-10.209H295.736c-6.842,0-12.385,4.571-12.385,10.209V373.058c0,5.634,5.543,10.2,12.385,10.2H469.152C475.994,383.262,481.543,378.692,481.543,373.058Z" transform="translate(-1926.552 10057.88)" fill="rgba(255,255,255,0)"/>
    <g id="グループ_1403" data-name="グループ 1403" transform="translate(-1595.446 10279)">
      <path id="パス_4834" data-name="パス 4834" d="M300.435,202.037h.006a1.445,1.445,0,1,0-.006,0Z" transform="translate(-249.1 -107.361)"/>
      <path id="パス_4835" data-name="パス 4835" d="M297.686,199.112a1.445,1.445,0,0,0,.212,2.029,1.427,1.427,0,0,0,.905.325,1.443,1.443,0,1,0-1.117-2.354Z" transform="translate(-257.632 -110.366)"/>
      <path id="パス_4836" data-name="パス 4836" d="M299.1,201.815a1.573,1.573,0,0,0,.474.081,1.446,1.446,0,0,0,.481-2.809h-.006a1.444,1.444,0,0,0-.949,2.728Z" transform="translate(-253.624 -108.131)"/>
      <path id="パス_4837" data-name="パス 4837" d="M301.3,201.9a1.411,1.411,0,0,0,.474-.087,1.418,1.418,0,1,0-.474.087Z" transform="translate(-244.57 -108.126)"/>
      <path id="パス_4838" data-name="パス 4838" d="M302.064,201.469a1.4,1.4,0,0,0,.911-.331,1.427,1.427,0,1,0-.911.331Z" transform="translate(-240.566 -110.364)"/>
      <path id="パス_4839" data-name="パス 4839" d="M393.6,284.413l-20.014-55.2a28.294,28.294,0,0,0-2.628-15.669,29.191,29.191,0,0,0-3.552-5.906,4.525,4.525,0,0,0,.631-2.31,4.577,4.577,0,0,0-2.753-4.189,13.569,13.569,0,0,0,.418-3.327,13.357,13.357,0,0,0-24.99-6.567,4.5,4.5,0,0,0-1.455-.243,4.569,4.569,0,0,0-4.563,4.563,4.788,4.788,0,0,0,.087.905,30.943,30.943,0,0,0-21.063,17.074,28.294,28.294,0,0,0-2.628,15.669l-20.014,55.2a1.243,1.243,0,0,0,.331,1.348l12.111,11.106a5.349,5.349,0,0,0,1.317,1.773l.175.15c2.822,2.478,8.421,4.008,12.616,4.857a126.17,126.17,0,0,0,23.984,2.1h1.461a126.148,126.148,0,0,0,23.978-2.1c4.2-.849,9.8-2.378,12.616-4.857l.175-.15a5.347,5.347,0,0,0,1.317-1.773l12.111-11.106A1.244,1.244,0,0,0,393.6,284.413Zm-30.127-80.955a1.864,1.864,0,0,1,.874.212v.006a1.3,1.3,0,0,1,.2.119l.012.012c.056.044.112.087.162.131l.025.025a1.807,1.807,0,0,1,.3.356h0a1.713,1.713,0,0,1,.112.206l.006.013a1.845,1.845,0,0,1,.181.787,1.87,1.87,0,1,1-1.873-1.867Zm-5.8-3.265a1.87,1.87,0,1,1-1.873,1.873A1.873,1.873,0,0,1,357.674,200.193Zm-5.706-3.059A1.87,1.87,0,1,1,350.1,199,1.868,1.868,0,0,1,351.968,197.134Zm-6.28-2.01a1.867,1.867,0,1,1-1.866,1.867A1.868,1.868,0,0,1,345.688,195.124Zm8.827,21.338a37.133,37.133,0,0,0,5.868,12.329c-.031.918-.306,8.652-.911,10.687-.287.974,5.144-3.571,5.437-5.737v-.019a1.646,1.646,0,0,1,.337-.038.609.609,0,0,1,.256.044l.037.013.031.025c.243.162.543.787.606,2.016a8.543,8.543,0,0,1-3.44,7.522,6.534,6.534,0,0,0-.955.949,1.561,1.561,0,0,0-.268.574c-1.255,5.019-3.908,8.521-7.5,12.229a6.618,6.618,0,0,0-1.86,4.57v.056a1.183,1.183,0,0,0,.006.15,37.524,37.524,0,0,0,.868,4.339c1.124,4.276,2.328,5.369,3.14,5.818,1.667.924,3.621,1.842,5.512,2.734.674.312,1.355.637,2.029.955a25.4,25.4,0,0,1-42.731,0c.674-.318,1.355-.643,2.029-.955,1.891-.893,3.839-1.8,5.518-2.734.806-.449,2.017-1.542,3.134-5.818a37.537,37.537,0,0,0,.868-4.339,1.233,1.233,0,0,0,.006-.156v-.056a6.63,6.63,0,0,0-1.854-4.563c-3.6-3.708-6.255-7.21-7.5-12.229a1.679,1.679,0,0,0-.275-.574,6.224,6.224,0,0,0-.955-.949,8.542,8.542,0,0,1-3.44-7.522c.062-1.224.362-1.854.6-2.016l.037-.019.031-.019a.66.66,0,0,1,.262-.044,1.646,1.646,0,0,1,.337.038l.006.019c.287,2.166,5.718,6.711,5.431,5.737-.556-1.867-.843-7.217-.905-8.652C344.121,227.867,354.515,216.461,354.515,216.461Zm-15.257-22.767.181.006a1.871,1.871,0,1,1-2.041,2.048l-.013-.187A1.873,1.873,0,0,1,339.258,193.694Zm-14.714,19.259a1.766,1.766,0,0,1,1.249-.893,3.232,3.232,0,0,1,2.147.462,4.643,4.643,0,0,1,.543.343l1.124.811.1-1.38a5.1,5.1,0,0,1,.081-.637c.319-1.623,1.323-2.56,2.516-2.329h0c1.186.231,1.773,1.48,1.454,3.1a4.941,4.941,0,0,1-.162.631l-.418,1.311,1.336-.331a4.925,4.925,0,0,1,.637-.119,3.238,3.238,0,0,1,2.166.381,1.737,1.737,0,0,1,.818,1.292c.15,1.2-.855,2.141-2.491,2.341a5.393,5.393,0,0,1-.643.044h-1.38l.724,1.174a5.079,5.079,0,0,1,.312.568,3.244,3.244,0,0,1,.306,2.179,1.767,1.767,0,0,1-.974,1.18c-1.1.512-2.3-.15-3-1.648a5.285,5.285,0,0,1-.237-.606l-.431-1.3-.886,1.049a4.555,4.555,0,0,1-.443.468,3.257,3.257,0,0,1-1.979.974H327a3.427,3.427,0,0,0-.593-4.089c.1-.087.206-.169.318-.25l1.111-.818-1.28-.518a4.988,4.988,0,0,1-.581-.275C324.538,215.257,323.957,214.008,324.544,212.953Zm-9.083,10.057a5.06,5.06,0,0,1,.643-.069l1.373-.069-.78-1.136c-.125-.187-.237-.368-.337-.556a3.249,3.249,0,0,1-.412-2.16,1.741,1.741,0,0,1,.918-1.224c1.067-.562,2.3.037,3.078,1.5a6.366,6.366,0,0,1,.262.587l.493,1.286.837-1.092a4.663,4.663,0,0,1,.424-.487,3.259,3.259,0,0,1,1.923-1.067,1.772,1.772,0,0,1,1.455.5c.861.843.674,2.2-.481,3.39a4.607,4.607,0,0,1-.481.431l-1.074.868,1.3.456c.206.075.406.162.593.25,1.479.737,2.116,1.954,1.586,3.04s-1.892,1.323-3.377.593a5.139,5.139,0,0,1-.556-.325l-1.155-.749-.038,1.38c-.006.218-.025.437-.05.643a3.269,3.269,0,0,1-.936,1.991,1.75,1.75,0,0,1-1.467.449c-1.2-.175-1.842-1.392-1.6-3.021a6.44,6.44,0,0,1,.131-.637l.362-1.33-1.323.393a6.082,6.082,0,0,1-.63.15,3.239,3.239,0,0,1-2.179-.275,1.754,1.754,0,0,1-.886-1.255C312.877,224.277,313.832,223.291,315.461,223.01Zm-12.117,69.918-.068.225-.019.075-9.545-8.746,18.329-50.547a59.735,59.735,0,0,0,3.44,9.133,27.021,27.021,0,0,0,6.73,8.29,35.96,35.96,0,0,0,6.112,7.978,3.271,3.271,0,0,1,.936,2.254v.05c-.069.518-.412,2.366-.768,3.7-.706,2.7-1.349,3.552-1.53,3.746l-.037.05-.056.031c-1.567.862-3.44,1.742-5.25,2.591-4.12,1.935-8.384,3.939-10.775,6.424C306.89,282.29,304.28,289.863,303.344,292.928Zm74.344,3.252-.175.156c-1.754,1.536-5.806,3.034-11.112,4.108a122.988,122.988,0,0,1-23.329,2.035h-1.467a122.988,122.988,0,0,1-23.329-2.035c-5.306-1.074-9.358-2.572-11.112-4.114l-.175-.15a2,2,0,0,1-.587-2.073l.069-.225c1.4-4.563,3.9-10.488,6.73-13.434a22.181,22.181,0,0,1,5.693-3.739,27.7,27.7,0,0,0,46.889,0,22.182,22.182,0,0,1,5.693,3.739c2.834,2.947,5.331,8.871,6.73,13.434l.069.225A1.991,1.991,0,0,1,377.688,296.18Zm3.733-2.953-.019-.075-.068-.225c-.936-3.065-3.54-10.638-7.5-14.745-2.391-2.485-6.649-4.488-10.775-6.424-1.81-.849-3.683-1.729-5.25-2.591l-.05-.031-.044-.05c-.181-.194-.824-1.049-1.529-3.746-.356-1.342-.7-3.184-.768-3.7v-.05a3.292,3.292,0,0,1,.936-2.254,35.961,35.961,0,0,0,6.112-7.978,26.935,26.935,0,0,0,6.73-8.29,59.088,59.088,0,0,0,3.44-9.133l18.329,50.547Z" transform="translate(-291.001 -184.449)"/>
    </g>
  </g>
</svg>
