<svg xmlns="http://www.w3.org/2000/svg" width="198.192" height="204.143" viewBox="0 0 198.192 204.143">
  <g id="bouquet" transform="translate(563.761 -10237)">
    <path id="パス_4791" data-name="パス 4791" d="M654.456,373.058V189.329c0-5.639-5.543-10.209-12.385-10.209H468.649c-6.842,0-12.385,4.571-12.385,10.209V373.058c0,5.634,5.544,10.2,12.385,10.2H642.071C648.913,383.262,654.456,378.692,654.456,373.058Z" transform="translate(-1020.025 10057.88)" fill="rgba(255,255,255,0)"/>
    <g id="グループ_1382" data-name="グループ 1382" transform="translate(-509.961 10279)">
      <path id="パス_4792" data-name="パス 4792" d="M524.162,216.471a16.878,16.878,0,0,1-3.465-3.434c-.119-.156-.231-.312-.343-.474a17.023,17.023,0,0,1-8.34-5.924,16.908,16.908,0,0,1-2.647-5.119l-.006-.012h-.019a16.856,16.856,0,0,1-10.456-1.024,16.759,16.759,0,0,1-4.595-2.965c-.193-.019-.387-.038-.581-.063a16.922,16.922,0,0,1-9.938-4.863l-4.32,41.558-14.57,17.08,22.411,12.941,7.5-21.156,33.517-24.3A17.179,17.179,0,0,1,524.162,216.471Z" transform="translate(-464.882 -142.876)"/>
      <path id="パス_4793" data-name="パス 4793" d="M470.749,192a4.769,4.769,0,0,0,3.771,6.636h0a4.8,4.8,0,0,0,4.957-2.822,4.768,4.768,0,0,0-2.46-6.274,4.757,4.757,0,0,0-6.268,2.46Z" transform="translate(-436.221 -160.956)"/>
      <path id="パス_4794" data-name="パス 4794" d="M475.3,223.493a12.408,12.408,0,0,0,5.431,1.03,12.418,12.418,0,0,0,4.451,3.29,12.379,12.379,0,0,0,7.66.749l.212-.05a17.194,17.194,0,0,1,.618-5.206,16.407,16.407,0,0,1,.643-1.86,6.566,6.566,0,0,1-1.954,1.1,7.756,7.756,0,0,1-.793.231,6.523,6.523,0,0,1-6.954-2.946l-1.08-1.729-2,.387a6.54,6.54,0,0,1-6.243-10.631l1.317-1.554-.986-1.785a6.533,6.533,0,0,1,8.184-9.22l1.885.768,1.392-1.486a6.556,6.556,0,0,1,5.594-2.029h.025a15.113,15.113,0,0,1,1.523-5.743c-.268-.056-.543-.1-.818-.131a12.522,12.522,0,0,0-9.214,2.547,13.487,13.487,0,0,0-1.33-.237,12.463,12.463,0,0,0-13.228,16.637,12.486,12.486,0,0,0-.681,11.624c.175.387.375.762.587,1.136A12.364,12.364,0,0,0,475.3,223.493Z" transform="translate(-449.36 -174.375)"/>
      <path id="パス_4795" data-name="パス 4795" d="M477.183,200.572a4.764,4.764,0,0,0,6.63-6.7,4.905,4.905,0,0,0-.974-.961,4.77,4.77,0,0,0-6.661,1.005,4.8,4.8,0,0,0,.031,5.706h0A4.872,4.872,0,0,0,477.183,200.572Z" transform="translate(-410.499 -146.11)"/>
      <path id="パス_4796" data-name="パス 4796" d="M514.321,213.163a12.445,12.445,0,0,0-1.873-11.437,11.555,11.555,0,0,0-.874-1.03,12.51,12.51,0,0,0-2.4-9.258,12.656,12.656,0,0,0-1.111-1.274,15.148,15.148,0,0,1-5.469,3.184,4.75,4.75,0,0,1,.524.35,6.5,6.5,0,0,1,2.372,7.167l-.593,1.954,1.611,1.249a6.537,6.537,0,0,1-3.9,11.7l-2.035.037-.693,1.916a6.545,6.545,0,0,1-10.026,3.053,6.625,6.625,0,0,1-2.3-3.14L486.9,215.7l-2.041-.062a6.53,6.53,0,0,1-6.024-4.557,7.124,7.124,0,0,1-.193-.8,6.435,6.435,0,0,1-.019-2.241,6.539,6.539,0,0,1,2.51-4.151l1.623-1.23-.568-1.96a6.448,6.448,0,0,1-.168-2.89,5.73,5.73,0,0,1,.125-.568,6.13,6.13,0,0,1,.412-1.148,14.956,14.956,0,0,1-4.582-3.215c-.087-.094-.181-.181-.268-.275a11.8,11.8,0,0,0-.787,1.623,12.314,12.314,0,0,0-.737,2.616,12.539,12.539,0,0,0-.075,3.615,12.515,12.515,0,0,0-3.3,6.461c-.038.206-.069.406-.094.618a12.352,12.352,0,0,0,.412,5.125l.063.212a12.57,12.57,0,0,0,1.935,3.746,12.252,12.252,0,0,0,2.541,2.51,12.4,12.4,0,0,0,5.075,2.21,12.408,12.408,0,0,0,9.926,6.574c.325.031.656.044.986.044a12.483,12.483,0,0,0,11.006-6.461A12.5,12.5,0,0,0,514.321,213.163Z" transform="translate(-424.364 -155.605)"/>
      <path id="パス_4797" data-name="パス 4797" d="M475.2,192.781h0a4.046,4.046,0,0,0,.612,1.055,4.25,4.25,0,0,0,7.279-4.22,4.046,4.046,0,0,0-.612-1.055,4.256,4.256,0,0,0-5.974-.7A4.273,4.273,0,0,0,475.2,192.781Z" transform="translate(-412.38 -172.479)"/>
      <path id="パス_4798" data-name="パス 4798" d="M473.8,198.495a11.119,11.119,0,0,0-1.323,5.718c.012.275.037.543.069.811a11.015,11.015,0,0,0,.718,2.872,10.85,10.85,0,0,0,.861,1.7,11.213,11.213,0,0,0,.743,1.061,11.012,11.012,0,0,0,3.852,3.09c.044.219.1.424.162.637a11.169,11.169,0,0,0,1.96,3.821l.219.268a11.056,11.056,0,0,0,4.1,3.04,10.228,10.228,0,0,0,1.292.462l.106.031a10.923,10.923,0,0,0,5.618.087,11.191,11.191,0,0,0,5.381-3.071,11.144,11.144,0,0,0,7.8-2.266,10.961,10.961,0,0,0,2.472-2.641c.2-.3.375-.606.543-.918a11.084,11.084,0,0,0,.531-9.376,10.213,10.213,0,0,0-.512-1.093,11.165,11.165,0,0,0,.106-8.534,11.289,11.289,0,0,0-1.6-2.759,11.147,11.147,0,0,0-10.65-4.045,11.14,11.14,0,0,0-11.206-2.066,11.012,11.012,0,0,0-6.237,5.787,11.185,11.185,0,0,0-.911,3.09,11.94,11.94,0,0,0-1.124.774A11.21,11.21,0,0,0,473.8,198.495Zm9.283-2.653a5.837,5.837,0,0,1,3.808-5.568,5.835,5.835,0,0,1,6.511,1.735l1.161,1.4,1.723-.587a5.854,5.854,0,0,1,6.474,1.9,5.763,5.763,0,0,1,.836,1.442,5.85,5.85,0,0,1-.474,5.288l-.974,1.542,1.1,1.454a5.834,5.834,0,0,1,.193,6.742l-.094.125a5.85,5.85,0,0,1-6.205,2.3l-1.76-.443-1.043,1.486a6.057,6.057,0,0,1-1.38,1.386A5.893,5.893,0,0,1,490,217.11a5.776,5.776,0,0,1-4.051-1.23,5.573,5.573,0,0,1-.961-.955l-.05-.069a5.916,5.916,0,0,1-1.111-2.509q-.047-.281-.075-.562l-.012-.106-.119-1.81-1.742-.537a5.583,5.583,0,0,1-.936-.387,5.739,5.739,0,0,1-1.935-1.573,5.824,5.824,0,0,1-1.249-3.377,5.6,5.6,0,0,1,.175-1.648,5.846,5.846,0,0,1,2.909-3.733,6.2,6.2,0,0,1,.581-.275l1.692-.68Z" transform="translate(-425.092 -184.629)"/>
    </g>
  </g>
</svg>
