<svg xmlns="http://www.w3.org/2000/svg" width="198.449" height="204.498" viewBox="0 0 198.449 204.498">
  <g id="chapel" transform="translate(347.87 -10237)">
    <path id="パス_4840" data-name="パス 4840" d="M689.3,373.395V189.348c0-5.651-5.55-10.228-12.4-10.228H503.245c-6.848,0-12.4,4.577-12.4,10.228V373.395c0,5.646,5.55,10.223,12.4,10.223H676.891C683.746,383.618,689.3,379.041,689.3,373.395Z" transform="translate(-838.717 10057.88)" fill="rgba(255,255,255,0)"/>
    <g id="グループ_1407" data-name="グループ 1407" transform="translate(-306.344 10278)">
      <path id="パス_4841" data-name="パス 4841" d="M598.331,301.038V238.287H612.9l-54.661-30.133v-11.2h8.346V190.88h-8.346v-7.3H552.16v7.3h-8.346v6.074h8.346v11.2L497.5,238.287h14.564v62.751h-8.715l-1.149,5.874H608.194l-1.149-5.874Zm-4.051-.019H564.514V269.787a8.94,8.94,0,0,0-8.915-8.915h-.805a8.94,8.94,0,0,0-8.914,8.915v31.232H516.115v-62.7h78.165Z" transform="translate(-497.499 -183.582)"/>
      <g id="グループ_1405" data-name="グループ 1405" transform="translate(24.178 65.654)">
        <path id="パス_4842" data-name="パス 4842" d="M503.076,203.507h8v-.543a8.942,8.942,0,0,0-8-8.865Z" transform="translate(-492.439 -194.099)"/>
        <path id="パス_4843" data-name="パス 4843" d="M509.375,203.507V194.1a8.942,8.942,0,0,0-8,8.865v.543Z" transform="translate(-501.372 -194.099)"/>
        <rect id="長方形_577" data-name="長方形 577" width="8.002" height="13.675" transform="translate(0.001 12.043)"/>
        <rect id="長方形_578" data-name="長方形 578" width="8.002" height="13.675" transform="translate(10.637 12.043)"/>
      </g>
      <g id="グループ_1406" data-name="グループ 1406" transform="translate(72.396 65.654)">
        <path id="パス_4844" data-name="パス 4844" d="M517.1,203.507V194.1a8.937,8.937,0,0,0-8,8.865v.543Z" transform="translate(-509.095 -194.099)"/>
        <path id="パス_4845" data-name="パス 4845" d="M510.8,203.507h8v-.543a8.942,8.942,0,0,0-8-8.865Z" transform="translate(-500.162 -194.099)"/>
        <rect id="長方形_579" data-name="長方形 579" width="8.002" height="13.675" transform="translate(10.636 12.043)"/>
        <rect id="長方形_580" data-name="長方形 580" width="8.002" height="13.675" transform="translate(0 12.043)"/>
      </g>
    </g>
  </g>
</svg>
