<svg xmlns="http://www.w3.org/2000/svg" width="198.193" height="204.143" viewBox="0 0 198.193 204.143">
  <g id="cleaning" transform="translate(2074.982 -10237)">
    <path id="パス_4806" data-name="パス 4806" d="M412.378,373.058V189.329c0-5.639-5.544-10.209-12.385-10.209H226.571c-6.836,0-12.386,4.571-12.386,10.209V373.058c0,5.634,5.55,10.2,12.386,10.2H399.992C406.834,383.262,412.378,378.692,412.378,373.058Z" transform="translate(-2289.167 10057.88)" fill="rgba(255,255,255,0)"/>
    <g id="グループ_1388" data-name="グループ 1388" transform="translate(-2059.943 10267)">
      <circle id="楕円形_165" data-name="楕円形 165" cx="3.987" cy="3.987" r="3.987" transform="translate(44.233 90.332)"/>
      <circle id="楕円形_166" data-name="楕円形 166" cx="3.643" cy="3.643" r="3.643" transform="translate(84.211 62.957)"/>
      <circle id="楕円形_167" data-name="楕円形 167" cx="3.643" cy="3.643" r="3.643" transform="translate(84.211 82.477)"/>
      <circle id="楕円形_168" data-name="楕円形 168" cx="3.643" cy="3.643" r="3.643" transform="translate(84.211 101.997)"/>
      <path id="パス_4807" data-name="パス 4807" d="M366.212,299.926a46.622,46.622,0,0,1-10.962-6.911V212.559a6.723,6.723,0,0,0-6.717-6.717H337.877l.025-.225a2.919,2.919,0,0,0,.019-.325c0-11.786-11.049-21.375-24.627-21.375H295.6c-13.578,0-24.627,9.589-24.627,21.375a2.92,2.92,0,0,0,.019.325l.025.225h-10.65a6.7,6.7,0,0,0-5.512,2.884c-1.33-2.172-2.634-4.607-4-7.385a3.586,3.586,0,0,0-6.436,0c-6.754,13.759-12.061,19.065-25.82,25.813a3.591,3.591,0,0,0,0,6.443c13.759,6.748,19.065,12.061,25.82,25.813a3.586,3.586,0,0,0,6.436,0c.949-1.935,1.873-3.7,2.791-5.325v10.357h-3.49a3.145,3.145,0,0,0-3.146,3.146v32.243a3.145,3.145,0,0,0,3.146,3.146h3.49v6.087a6.728,6.728,0,0,0,6.723,6.717h72.946a48.526,48.526,0,0,1,6.524,10.519,3.586,3.586,0,0,0,6.436,0c5.275-10.75,9.189-14.664,19.939-19.939a3.586,3.586,0,0,0,0-6.436ZM295.6,190.2h17.692c10.051,0,18.235,6.686,18.335,14.932l-3.508,33.8L308.6,229.221c1.985-3.309,4.3-6.7,6.555-9.988,4.538-6.642,8.827-12.916,10.032-18.041a3.142,3.142,0,0,0-2.241-3.758,70.183,70.183,0,0,0-36.994,0,3.147,3.147,0,0,0-2.241,3.758c1.2,5.125,5.494,11.4,10.038,18.041,2.247,3.3,4.563,6.68,6.548,9.988l-19.521,9.714-3.508-33.8C277.367,196.89,285.557,190.2,295.6,190.2Zm8.846,33.76c-1.754-2.784-3.652-5.568-5.512-8.284-3.252-4.757-6.367-9.314-8.04-12.979a63.6,63.6,0,0,1,27.106,0c-1.673,3.665-4.788,8.222-8.04,12.979C308.1,218.4,306.2,221.181,304.447,223.965Zm-44.51-11.405a.44.44,0,0,1,.431-.431h11.3l1.367,13.172c-5.631-3.021-9.682-5.93-13.1-9.689Zm-12.3,37.575c-5.231-9.171-10.588-14.521-19.758-19.758,9.17-5.238,14.527-10.588,19.758-19.758,5.238,9.17,10.588,14.52,19.758,19.758C258.22,235.614,252.87,240.964,247.633,250.134Zm5.662,46.552V270.735h16.93a2.291,2.291,0,0,1,2.291,2.285V294.4a2.291,2.291,0,0,1-2.291,2.285Zm6.642,12.379v-6.087h10.288A8.588,8.588,0,0,0,278.8,294.4V273.02a8.588,8.588,0,0,0-8.577-8.578H259.937v-19.3c3.614-3.977,7.934-7,14.1-10.213l.949,9.171a3.141,3.141,0,0,0,4.532,2.491l24.927-12.4,24.933,12.4a3.132,3.132,0,0,0,1.4.331,3.188,3.188,0,0,0,1.517-.387,3.141,3.141,0,0,0,1.611-2.435l3.321-31.969h11.306a.439.439,0,0,1,.424.431v72.484c-.88-1.511-1.76-3.177-2.684-5.057a3.586,3.586,0,0,0-6.436,0c-5.275,10.75-9.189,14.664-19.939,19.939a3.586,3.586,0,0,0,0,6.436c2.2,1.08,4.1,2.1,5.793,3.134H260.368A.44.44,0,0,1,259.937,309.065Zm83.115,8.1a38.052,38.052,0,0,0-14.021-14.021,38.068,38.068,0,0,0,14.021-14.027,38.13,38.13,0,0,0,14.027,14.027A38.113,38.113,0,0,0,343.052,317.168Z" transform="translate(-216.594 -183.918)"/>
    </g>
  </g>
</svg>
