<svg xmlns="http://www.w3.org/2000/svg" width="198.193" height="204.143" viewBox="0 0 198.193 204.143">
  <g id="data" transform="translate(1211.426 -10237)">
    <path id="パス_4769" data-name="パス 4769" d="M550.709,373.058V189.329c0-5.639-5.543-10.209-12.386-10.209H364.9c-6.842,0-12.385,4.571-12.385,10.209V373.058c0,5.634,5.543,10.2,12.385,10.2H538.323C545.165,383.262,550.709,378.692,550.709,373.058Z" transform="translate(-1563.942 10057.88)" fill="rgba(255,255,255,0)"/>
    <g id="グループ_1375" data-name="グループ 1375" transform="translate(-1172.978 10293)">
      <path id="パス_4770" data-name="パス 4770" d="M460.582,190.292h-1.2v63.925a6.289,6.289,0,0,1-6.268,6.274H360.937v1.2a7.553,7.553,0,0,0,7.529,7.529h92.117a7.549,7.549,0,0,0,7.529-7.529V197.821A7.545,7.545,0,0,0,460.582,190.292Z" transform="translate(-346.816 -176.165)"/>
      <path id="パス_4771" data-name="パス 4771" d="M458.321,188.029H366.2a7.548,7.548,0,0,0-7.523,7.529v63.875a7.544,7.544,0,0,0,7.523,7.529h92.123a7.549,7.549,0,0,0,7.529-7.529V195.558A7.553,7.553,0,0,0,458.321,188.029Zm-1.255,70.149h-89.62l.006-61.372,89.62.006Z" transform="translate(-358.675 -188.029)"/>
      <path id="パス_4772" data-name="パス 4772" d="M440.465,227.522l0-34.412-15.205,15.2-15.4-15.4-23.934,23.934-11.747-11.746-13.3,13.3v9.113Z" transform="translate(-347.092 -162.388)"/>
      <circle id="楕円形_164" data-name="楕円形 164" cx="10.528" cy="10.528" r="10.528" transform="translate(29.467 15.768)"/>
    </g>
  </g>
</svg>
