<svg xmlns="http://www.w3.org/2000/svg" width="198.193" height="204.143" viewBox="0 0 198.193 204.143">
  <g id="dress" transform="translate(2722.647 -10237)">
    <path id="パス_4799" data-name="パス 4799" d="M308.63,373.058V189.329c0-5.639-5.543-10.209-12.385-10.209H122.822c-6.836,0-12.385,4.571-12.385,10.209V373.058c0,5.634,5.55,10.2,12.385,10.2H296.244C303.086,383.262,308.63,378.692,308.63,373.058Z" transform="translate(-2833.084 10057.88)" fill="rgba(255,255,255,0)"/>
    <g id="グループ_1384" data-name="グループ 1384" transform="translate(-2661.277 10263)">
      <path id="パス_4800" data-name="パス 4800" d="M177.045,206.762c.406-4.445-2.36-8.19-6.193-8.19h-.2V183.6h-4.364v14.976H149.7V183.6h-4.364v14.976h-.2c-3.839,0-6.6,3.746-6.193,8.19L141.7,227.6,120.268,335.217c3.146,0,3.146-2.684,6.286-2.684s3.146,2.684,6.293,2.684,3.146-2.684,6.286-2.684,3.146,2.684,6.293,2.684,3.14-2.684,6.286-2.684,3.14,2.684,6.286,2.684,3.146-2.684,6.286-2.684,3.146,2.684,6.286,2.684,3.146-2.684,6.286-2.684,3.146,2.684,6.293,2.684,3.14-2.684,6.286-2.684,3.14,2.684,6.286,2.684L174.292,227.6Z" transform="translate(-120.267 -183.595)"/>
      <path id="パス_4801" data-name="パス 4801" d="M132.355,207.883Z" transform="translate(-56.901 -56.259)"/>
      <path id="パス_4802" data-name="パス 4802" d="M120.268,207.883Z" transform="translate(-120.268 -56.259)"/>
    </g>
  </g>
</svg>
