<svg xmlns="http://www.w3.org/2000/svg" width="198.192" height="204.143" viewBox="0 0 198.192 204.143">
  <g id="hairmake" transform="translate(1859.091 -10237)">
    <path id="パス_4808" data-name="パス 4808" d="M446.96,373.058V189.329c0-5.639-5.544-10.209-12.385-10.209H261.153c-6.842,0-12.385,4.571-12.385,10.209V373.058c0,5.634,5.543,10.2,12.385,10.2H434.575C441.417,383.262,446.96,378.692,446.96,373.058Z" transform="translate(-2107.859 10057.88)" fill="rgba(255,255,255,0)"/>
    <path id="パス_4809" data-name="パス 4809" d="M319.777,321.215l-19.29-50.278c-.156-1.686-.4-3.552-.73-5.569l15.257-5.556a2.707,2.707,0,1,0-1.854-5.088l-14.427,5.25q-.412-1.938-.9-3.983l15.263-5.556a2.708,2.708,0,0,0-1.854-5.088l-14.752,5.375q-.524-1.948-1.105-3.958l15.338-5.581a2.706,2.706,0,1,0-1.848-5.088l-15.064,5.481q-.618-1.948-1.274-3.92l15.37-5.593a2.708,2.708,0,0,0-1.854-5.088l-15.276,5.556q-.375-1.058-.768-2.135c-.212-.581-.424-1.161-.643-1.742l15.276-5.556a2.71,2.71,0,0,0-1.854-5.094L287.434,223.6c-.506-1.292-1.024-2.566-1.542-3.827l15.051-5.475a2.708,2.708,0,0,0-1.854-5.088l-15.32,5.575q-.833-1.91-1.686-3.739l14.727-5.362a2.708,2.708,0,0,0-1.854-5.088l-15.22,5.537q-.936-1.873-1.86-3.627l14.377-5.231a2.711,2.711,0,0,0-1.854-5.094l-15.188,5.531-.162-.275c-.674-1.136-1.33-2.2-1.973-3.19l14.2-5.169a2.708,2.708,0,1,0-1.854-5.088l-15.638,5.687a21.507,21.507,0,0,0-2.347-2.485,3.788,3.788,0,0,0-5.9.73c-2.023,3.334-3.19,8.378-3.365,14.583-.293,10.363,2.116,23.129,6.773,35.939s11.025,24.134,17.917,31.888c.992,1.117,1.991,2.147,2.978,3.084l18.416,53.45a3.715,3.715,0,0,0,4.794,2.285l8.527-3.1A3.715,3.715,0,0,0,319.777,321.215Z" transform="translate(-2058.703 10082.176)"/>
  </g>
</svg>
