<svg xmlns="http://www.w3.org/2000/svg" width="198.193" height="204.143" viewBox="0 0 198.193 204.143">
  <g id="kitsuke" transform="translate(2290.866 -10237)">
    <path id="パス_4803" data-name="パス 4803" d="M377.8,373.058V189.329c0-5.639-5.55-10.209-12.392-10.209H191.989c-6.842,0-12.386,4.571-12.386,10.209V373.058c0,5.634,5.543,10.2,12.386,10.2H365.4C372.246,383.262,377.8,378.692,377.8,373.058Z" transform="translate(-2470.469 10057.88)" fill="rgba(255,255,255,0)"/>
    <g id="グループ_1386" data-name="グループ 1386" transform="translate(-2218.42 10263)">
      <path id="パス_4804" data-name="パス 4804" d="M222.19,226.512V201.148c-1.423.056-2.872.087-4.332.087s-2.915-.031-4.339-.087v25.364c-12.61.512-22.243,3.2-22.311,6.48v1.966c0,3.664,11.93,6.63,26.65,6.63s26.644-2.965,26.644-6.63v-1.966C244.433,229.715,234.8,227.024,222.19,226.512Z" transform="translate(-191.208 -89.972)"/>
      <path id="パス_4805" data-name="パス 4805" d="M231.271,241.265a2.56,2.56,0,0,1-.219-2.154c4.233-12.229,6.8-19.8,7.235-21.312a2.452,2.452,0,0,0,.1-.568c.069-1.361.443-6.574,1.043-14.658a2.573,2.573,0,0,0-1.854-2.653l-12.66-3.6a2.556,2.556,0,0,1-1.854-2.285l-.587-8.321a2.571,2.571,0,0,0-2.553-2.378h-8.615a2.573,2.573,0,0,0-2.56,2.378l-.587,8.321a2.557,2.557,0,0,1-1.854,2.285l-12.66,3.6a2.573,2.573,0,0,0-1.854,2.653c.605,8.084.974,13.3,1.043,14.658a2.473,2.473,0,0,0,.1.568c.431,1.517,3,9.083,7.235,21.312a2.559,2.559,0,0,1-.219,2.154c-5.593,9.333-8.315,17.973-8.315,39.092v2.122c0,3.171,10.737,5.75,23.978,5.75s23.972-2.578,23.972-5.75v-2.122C239.586,259.237,236.864,250.6,231.271,241.265Z" transform="translate(-188.964 -183.339)"/>
    </g>
  </g>
</svg>
