<svg xmlns="http://www.w3.org/2000/svg" xmlns:xlink="http://www.w3.org/1999/xlink" width="144" height="50.513" viewBox="0 0 144 50.513">
  <defs>
    <clipPath id="clip-path">
      <rect id="Rectangle_3" data-name="Rectangle 3" width="144" height="50.513" fill="#fff"/>
    </clipPath>
  </defs>
  <g id="logo_01_5" clip-path="url(#clip-path)">
    <path id="Path_243" data-name="Path 243" d="M113.524,85.687c-.01-.227-.02-.452-.036-.672l.192.01.235.01c.151,0,.306,0,.467-.012s.319-.008.472-.008a1.691,1.691,0,0,1,.422.043l.336.145.215.249.078.367-.091.366-.217.253-.278.16-.268.079v.008l.281.056.306.156.246.263a.749.749,0,0,1,.1.4,1.033,1.033,0,0,1-.1.478l-.27.321-.386.177a2.018,2.018,0,0,1-.453.048l-.387,0h-.66l-.24.008c.017-.217.026-.435.036-.658s.01-.482.01-.769v-.7c0-.293,0-.546-.01-.768m1.582-.007-.1-.19-.172-.131-.26-.053-.159,0-.1.012-.013.389-.007.334v.531h.233l.217-.038.192-.127.132-.2.053-.293-.026-.238m-.1,1.375a.626.626,0,0,0-.478-.18h-.224V88.3l.132.008h.151l.222-.048.18-.137.122-.222.05-.3a.8.8,0,0,0-.162-.545" transform="translate(-72.317 -54.173)" fill="#fff"/>
    <path id="Path_244" data-name="Path 244" d="M124.081,86.947v.212c0,.288,0,.546.01.769s.013.44.028.657l-.19-.008h-.468l-.192.008c.012-.217.021-.435.031-.657s.007-.481.007-.769v-.7c0-.293,0-.546-.007-.768s-.02-.45-.031-.672l.192.012.233.01.317-.011c.121-.008.27-.01.45-.01l.334.01.245.028.176.056.142.078.248.283a.859.859,0,0,1,.091.406.9.9,0,0,1-.21.62,1.1,1.1,0,0,1-.6.336c.167.293.342.591.536.882s.381.586.571.872l-.231-.008h-.472l-.237.008-.932-1.638Zm.773-1.325-.142-.2-.25-.094-.364-.022c-.012.472-.017.947-.017,1.416l.058.007h.054a.7.7,0,0,0,.526-.185.779.779,0,0,0,.182-.559l-.048-.367" transform="translate(-78.549 -54.172)" fill="#fff"/>
    <path id="Path_245" data-name="Path 245" d="M133.115,85.686c-.007-.227-.018-.45-.032-.672l.192.012.235.008.235-.008.19-.012c-.013.222-.025.445-.03.672s-.012.475-.012.768v.7c0,.286.005.546.012.768s.017.442.03.659l-.19-.008h-.47l-.192.008c.013-.217.025-.435.032-.659s.01-.481.01-.768v-.7c0-.293,0-.546-.01-.768" transform="translate(-84.803 -54.172)" fill="#fff"/>
    <path id="Path_246" data-name="Path 246" d="M138.791,85.687c-.007-.227-.017-.452-.03-.672l.19.01.238.01.384-.012c.141-.007.324-.008.556-.008a3.667,3.667,0,0,1,.814.078,1.629,1.629,0,0,1,.631.273,1.271,1.271,0,0,1,.414.515,2.064,2.064,0,0,1,.144.822,2.112,2.112,0,0,1-.142.784,1.827,1.827,0,0,1-.389.591,1.721,1.721,0,0,1-.576.379,1.9,1.9,0,0,1-.693.129h-1.379l-.19.008c.013-.217.023-.435.03-.658s.012-.481.012-.768v-.7c0-.293,0-.546-.012-.768m.783,1.853V88.3l.189.01.27.008a1.168,1.168,0,0,0,.932-.4,1.834,1.834,0,0,0,.344-1.213,1.762,1.762,0,0,0-.086-.576,1.2,1.2,0,0,0-.243-.437l-.374-.276a1.233,1.233,0,0,0-.488-.1l-.3.01-.238.017V87.54Z" transform="translate(-88.421 -54.173)" fill="#fff"/>
    <path id="Path_247" data-name="Path 247" d="M152.714,88.537l-.235-.008h-.443l-.223.008c-.054-.165-.114-.344-.171-.52s-.121-.353-.187-.528l-.336-.01h-.6l-.268.01c-.069.175-.137.349-.194.528s-.114.354-.164.52l-.121-.008h-.245l-.137.008c.043-.089.1-.217.166-.371s.147-.341.23-.546.172-.415.268-.645.19-.467.288-.7.189-.468.28-.7.174-.44.251-.633l.1.016.1.01.1-.01.1-.016c.116.293.232.609.362.948s.25.665.379.988.251.63.372.921.235.539.336.74m-1.843-2.6c-.089.21-.176.415-.255.617s-.159.409-.234.62h.952c-.076-.212-.151-.417-.225-.62s-.154-.407-.238-.617" transform="translate(-95.193 -54.125)" fill="#fff"/>
    <path id="Path_248" data-name="Path 248" d="M160.916,85.686c-.008-.227-.017-.45-.032-.672l.192.012.237.008.234-.008.193-.012c-.015.222-.025.445-.031.672s-.012.475-.012.768V87.73c0,.187,0,.342.008.478.193,0,.394-.01.591-.016s.4-.026.6-.052l-.016.1-.005.132.005.129.016.078-.342-.008h-1.569l-.1.008c.015-.217.023-.435.032-.659s.008-.481.008-.768v-.7c0-.293,0-.546-.008-.768" transform="translate(-102.518 -54.172)" fill="#fff"/>
    <path id="Path_249" data-name="Path 249" d="M176.7,88.537l-.232-.008h-.443l-.222.008c-.056-.165-.112-.344-.172-.52s-.121-.353-.187-.528l-.332-.01h-.606l-.271.01c-.066.175-.131.349-.19.528s-.112.354-.16.52l-.123-.008h-.248l-.134.008c.043-.089.1-.217.167-.371s.145-.341.23-.546.169-.415.266-.645.187-.467.286-.7.19-.468.28-.7.177-.44.253-.633l.1.016.1.01.1-.01.1-.016q.169.439.354.948c.127.333.255.665.384.988s.257.63.374.921.231.539.331.74m-1.838-2.6c-.091.21-.176.415-.256.617s-.156.409-.232.62h.95c-.076-.212-.152-.417-.226-.62s-.151-.407-.235-.617" transform="translate(-110.479 -54.125)" fill="#fff"/>
    <path id="Path_250" data-name="Path 250" d="M186.584,84.931a1.886,1.886,0,0,1,.625.346,1.608,1.608,0,0,1,.42.581,2.089,2.089,0,0,1,.151.817,1.9,1.9,0,0,1-.091.584,1.751,1.751,0,0,1-.262.5,1.793,1.793,0,0,1-.417.4,2.273,2.273,0,0,1-.558.286l.385.22.371.225.331.2.278.144-.356.1-.377.181-.319-.247-.286-.217-.321-.23c-.119-.081-.263-.182-.435-.295a2.449,2.449,0,0,1-.724-.1,1.627,1.627,0,0,1-.611-.331,1.548,1.548,0,0,1-.422-.576,2.074,2.074,0,0,1-.156-.834,1.82,1.82,0,0,1,1.175-1.719,2.25,2.25,0,0,1,.822-.147,2.612,2.612,0,0,1,.776.116m.26,1.029a1.331,1.331,0,0,0-.232-.455l-.357-.291a1.085,1.085,0,0,0-.463-.1.92.92,0,0,0-.473.126l-.357.344a1.746,1.746,0,0,0-.222.514,2.551,2.551,0,0,0-.075.627,2.4,2.4,0,0,0,.088.7,1.277,1.277,0,0,0,.24.462l.348.251.417.078a1.045,1.045,0,0,0,.447-.1l.374-.3a1.631,1.631,0,0,0,.251-.516,2.558,2.558,0,0,0,.1-.738,2.051,2.051,0,0,0-.083-.605" transform="translate(-117.128 -54.046)" fill="#fff"/>
    <path id="Path_251" data-name="Path 251" d="M198.424,88.583a1.286,1.286,0,0,1-.506-.235,1.161,1.161,0,0,1-.334-.42,1.441,1.441,0,0,1-.119-.629v-.675l.005-.27v-.27c0-.283,0-.51-.007-.682s-.007-.3-.015-.389l.212.012.213.008.215-.008.213-.012c-.036.331-.056.647-.063.938s-.01.586-.01.879a3.475,3.475,0,0,0,.068.768,1.092,1.092,0,0,0,.2.448l.328.212a1.879,1.879,0,0,0,.45.051.706.706,0,0,0,.486-.157.952.952,0,0,0,.264-.414,2.141,2.141,0,0,0,.113-.6c.013-.222.023-.455.023-.7s0-.477-.013-.718-.017-.471-.032-.708l.141.012.127.008.132-.008.127-.012-.021.3c-.005.126-.013.276-.018.445s-.015.354-.02.558-.007.417-.007.641a1.794,1.794,0,0,1-.394,1.3,1.545,1.545,0,0,1-1.145.391,2.7,2.7,0,0,1-.617-.07" transform="translate(-125.821 -54.172)" fill="#fff"/>
    <path id="Path_252" data-name="Path 252" d="M211.281,88.537l-.237-.008H210.6l-.223.008c-.053-.165-.111-.344-.172-.52s-.121-.353-.185-.528l-.334-.01h-.6l-.27.01c-.068.175-.134.349-.192.528s-.114.354-.164.52l-.121-.008h-.245l-.138.008c.043-.089.1-.217.167-.371s.145-.341.228-.546.174-.415.268-.645.192-.467.285-.7.192-.468.283-.7.175-.44.251-.633l.1.016.1.01.1-.01.1-.016c.11.293.227.609.356.948s.253.665.384.988.25.63.371.921.233.539.334.74m-1.841-2.6c-.091.21-.174.415-.257.617s-.157.409-.233.62h.953c-.078-.212-.154-.417-.225-.62s-.156-.407-.238-.617" transform="translate(-132.514 -54.125)" fill="#fff"/>
    <path id="Path_253" data-name="Path 253" d="M227.049,85.286a1.148,1.148,0,0,0-.607-.144,1.189,1.189,0,0,0-.475.1,1.131,1.131,0,0,0-.422.306,1.529,1.529,0,0,0-.3.5,1.946,1.946,0,0,0-.117.72,1.906,1.906,0,0,0,.086.576,1.4,1.4,0,0,0,.248.46,1.056,1.056,0,0,0,.4.3,1.216,1.216,0,0,0,.534.109l.154-.007.167-.016.149-.032.1-.041.015-.152v-.21c0-.279-.005-.49-.015-.622l-.023-.272.141.019.245.01.279-.01.144-.019-.023.134-.013.217v.936l.01.164c-.227.061-.46.116-.693.156a4.514,4.514,0,0,1-.7.054,2.858,2.858,0,0,1-.824-.114,1.882,1.882,0,0,1-.648-.347,1.552,1.552,0,0,1-.427-.546,1.575,1.575,0,0,1-.154-.718,2.062,2.062,0,0,1,.164-.865,1.731,1.731,0,0,1,.452-.622,1.952,1.952,0,0,1,.685-.369,2.782,2.782,0,0,1,.852-.129,2.566,2.566,0,0,1,.685.083,2.955,2.955,0,0,1,.569.232l-.079.264-.066.267h-.073a1.219,1.219,0,0,0-.417-.374" transform="translate(-142.914 -54.045)" fill="#fff"/>
    <path id="Path_254" data-name="Path 254" d="M239.308,88.537l-.237-.008h-.442l-.223.008c-.056-.165-.109-.344-.17-.52s-.121-.353-.185-.528l-.334-.01h-.608l-.268.01c-.068.175-.132.349-.19.528s-.114.354-.162.52l-.121-.008h-.248l-.134.008c.038-.089.094-.217.162-.371s.147-.341.233-.546.167-.415.266-.645.187-.467.286-.7.187-.468.282-.7.174-.44.251-.633l.1.016.094.01.1-.01.094-.016c.114.293.23.609.354.948s.256.665.385.988.255.63.375.921.23.539.333.74m-1.841-2.6c-.094.21-.174.415-.255.617s-.156.409-.237.62h.952c-.071-.212-.147-.417-.222-.62s-.156-.407-.238-.617" transform="translate(-150.375 -54.125)" fill="#fff"/>
    <path id="Path_255" data-name="Path 255" d="M248.29,86.947v.212c0,.288,0,.546.008.769s.02.44.033.657l-.192-.008h-.47l-.19.008c.012-.217.023-.435.033-.657s.007-.481.007-.769v-.7c0-.293,0-.546-.007-.768s-.021-.45-.033-.672l.19.012.233.01.321-.011c.121-.008.266-.01.447-.01l.337.01.24.028.18.056.14.078.249.283a.859.859,0,0,1,.091.406.907.907,0,0,1-.207.62,1.106,1.106,0,0,1-.6.336c.165.293.344.591.536.882s.379.586.574.872l-.235-.008h-.47l-.24.008-.927-1.638Zm.776-1.325-.144-.2-.248-.094-.367-.022c-.013.472-.017.947-.017,1.416l.06.007h.056a.693.693,0,0,0,.521-.185.765.765,0,0,0,.184-.559l-.045-.367" transform="translate(-157.698 -54.172)" fill="#fff"/>
    <path id="Path_256" data-name="Path 256" d="M257.3,85.687c-.005-.227-.015-.452-.026-.672l.19.01.235.01.384-.012c.144-.007.328-.008.556-.008a3.669,3.669,0,0,1,.817.078,1.65,1.65,0,0,1,.63.273,1.3,1.3,0,0,1,.412.515,2.037,2.037,0,0,1,.144.822,2.112,2.112,0,0,1-.141.784,1.806,1.806,0,0,1-.392.591,1.7,1.7,0,0,1-.571.379,1.934,1.934,0,0,1-.7.129h-1.377l-.19.008c.012-.217.021-.435.026-.658s.013-.481.013-.768v-.7c0-.293,0-.546-.013-.768m.783,1.853V88.3l.187.01.27.008a1.164,1.164,0,0,0,.932-.4,1.836,1.836,0,0,0,.341-1.213,1.763,1.763,0,0,0-.084-.576,1.226,1.226,0,0,0-.242-.437l-.374-.276a1.234,1.234,0,0,0-.49-.1l-.3.01-.237.017V87.54Z" transform="translate(-163.937 -54.173)" fill="#fff"/>
    <path id="Path_257" data-name="Path 257" d="M269.318,85.686c-.005-.227-.017-.45-.03-.672.157,0,.313.007.465.012s.3.008.46.008c.258,0,.487,0,.684-.008s.336-.007.4-.012l-.02.215v.129l.015.1-.328-.02-.351-.018-.3-.013-.2-.008c-.013.189-.02.379-.023.564s0,.377,0,.571c.225,0,.43-.01.614-.018l.568-.025-.019.134-.007.1.007.091.019.127c-.4-.035-.791-.046-1.182-.046v.663c0,.225.007.444.017.652.2,0,.4-.01.6-.016a5.95,5.95,0,0,0,.594-.052l-.015.1v.261l.015.078-.346-.008h-1.565l-.1.008c.013-.217.025-.435.03-.659s.01-.481.01-.768v-.7c0-.293,0-.546-.01-.768" transform="translate(-171.595 -54.172)" fill="#fff"/>
    <path id="Path_258" data-name="Path 258" d="M277.617,85.441c-.007-.162-.013-.306-.018-.428l.238.021.23-.021c.379.417.754.834,1.12,1.236s.75.817,1.14,1.237V85.577l-.012-.359-.02-.2.235.021.233-.021c-.015.311-.031.6-.04.85s-.02.5-.028.723-.008.448-.01.667,0,.458,0,.706v.624l-.213-.007-.2.007q-1.07-1.243-2.274-2.51l-.008.3v1.439l.008.369.01.248.01.151-.124-.007h-.119l-.243.007a2.042,2.042,0,0,0,.026-.295c.012-.172.023-.377.036-.625s.023-.51.033-.8.012-.561.012-.824c0-.235,0-.435-.01-.6" transform="translate(-176.84 -54.172)" fill="#fff"/>
    <path id="Path_259" data-name="Path 259" d="M2.669,120.045c-.152-.521-.328-1.112-.521-1.772s-.4-1.35-.615-2.065-.419-1.415-.614-2.067S.546,112.9.384,112.375s-.291-.907-.384-1.16l.349.053.349.021.349-.021.346-.053c.175.736.349,1.426.514,2.071s.348,1.294.538,1.961.4,1.36.612,2.086.473,1.562.75,2.479h.028c.083-.26.2-.625.348-1.082s.311-.968.486-1.524.364-1.133.559-1.734.377-1.176.543-1.721.316-1.044.444-1.5.227-.8.281-1.039a1.883,1.883,0,0,0,.462.074,1.84,1.84,0,0,0,.458-.074c.066.262.165.62.3,1.074s.289.965.455,1.519.346,1.137.538,1.732.376,1.18.551,1.732.336,1.049.483,1.5.256.794.339,1.042h.03c.063-.212.164-.543.3-.993s.288-.958.46-1.522.351-1.168.529-1.787.356-1.224.516-1.79.3-1.072.434-1.517.21-.773.255-.988l.248.053.243.021.243-.021.245-.053c-.1.225-.23.591-.4,1.105s-.374,1.1-.592,1.756-.445,1.357-.683,2.1-.465,1.434-.682,2.1-.415,1.259-.587,1.787-.3.908-.382,1.138a3.9,3.9,0,0,0-.473-.028,3.844,3.844,0,0,0-.473.028q-.633-2.016-1.243-4.059t-1.324-4.219H6.708q-.114.335-.3.894c-.127.37-.264.788-.419,1.256s-.323.964-.494,1.5-.356,1.067-.534,1.61-.344,1.077-.515,1.6-.321,1-.46,1.421a3.987,3.987,0,0,0-.486-.028,3.945,3.945,0,0,0-.486.028c-.076-.24-.189-.625-.344-1.147" transform="translate(0 -70.868)" fill="#fff"/>
    <path id="Path_260" data-name="Path 260" d="M50.134,113.1q-.032-.918-.073-1.88l.348.053.336.021.334-.021.348-.053q-.042.96-.074,1.88c-.025.617-.035,1.244-.035,1.885v2.5c0,.64.01,1.269.035,1.891s.046,1.229.074,1.828c-.215-.02-.44-.03-.682-.03s-.472.01-.683.03c.026-.6.052-1.213.073-1.828s.038-1.251.038-1.891v-1.3c-.5-.01-.986-.017-1.459-.027s-.956-.007-1.453-.007-.991,0-1.459.007-.954.017-1.459.027v1.3c0,.64.013,1.269.038,1.891s.048,1.229.073,1.828c-.209-.02-.438-.03-.68-.03s-.47.01-.683.03c.03-.6.055-1.213.078-1.828s.035-1.251.035-1.891v-2.5q0-.96-.035-1.885t-.078-1.88l.349.053.334.021.334-.021.346-.053q-.037.96-.073,1.88t-.038,1.885v.506c.5.012.991.02,1.459.033s.955.013,1.459.013.983,0,1.453-.013.956-.021,1.459-.033v-.506c0-.64-.01-1.268-.038-1.885" transform="translate(-27.457 -70.868)" fill="#fff"/>
    <path id="Path_261" data-name="Path 261" d="M74.5,113.1c-.025-.612-.046-1.239-.078-1.88l.347.053.339.021.331-.021.349-.053q-.04.96-.078,1.88c-.02.617-.031,1.244-.031,1.885v2.5c0,.64.012,1.269.031,1.891s.052,1.229.078,1.828c-.214-.02-.444-.03-.68-.03s-.472.01-.686.03c.031-.6.053-1.213.078-1.828s.035-1.251.035-1.891v-2.5q0-.96-.035-1.885" transform="translate(-47.424 -70.868)" fill="#fff"/>
    <path id="Path_262" data-name="Path 262" d="M86.966,111.971c-.24,0-.493.007-.758.01s-.531.012-.8.028-.518.03-.761.05-.473.045-.664.071a1.808,1.808,0,0,0,.066-.462,2.054,2.054,0,0,0-.066-.452c.612.023,1.213.035,1.8.053s1.181.022,1.8.022,1.213-.008,1.8-.022,1.186-.03,1.8-.053a2.1,2.1,0,0,0-.068.467,1.773,1.773,0,0,0,.068.447c-.194-.026-.417-.052-.662-.071s-.5-.033-.768-.05-.529-.026-.792-.028-.521-.01-.763-.01c-.026,1-.038,2-.038,3.008v2.5c0,.64.008,1.269.032,1.891s.051,1.229.078,1.827c-.217-.02-.44-.028-.683-.028s-.468.008-.683.028c.028-.6.051-1.211.078-1.827s.035-1.251.035-1.891v-2.5q0-1.512-.045-3.008" transform="translate(-53.516 -70.869)" fill="#fff"/>
    <path id="Path_263" data-name="Path 263" d="M109.656,113.074c-.023-.62-.046-1.237-.079-1.858.419.023.835.035,1.249.053s.829.022,1.249.022.832-.008,1.239-.022.822-.03,1.241-.053l-.041.435.041.437c-.3-.017-.569-.041-.816-.055s-.508-.045-.783-.063-.572-.036-.9-.048-.715-.022-1.171-.022c-.01.309-.02.6-.033.884s-.023.6-.023.96c0,.376,0,.745.008,1.1s.008.631.008.813c.41,0,.771,0,1.1-.012s.624-.023.895-.038.516-.03.744-.045.444-.033.649-.046a2.167,2.167,0,0,0-.04.445l.04.435c-.242-.03-.521-.051-.844-.068s-.642-.034-.96-.04l-.908-.015q-.424-.007-.675-.007l-.008.283c0,.1-.008.229-.008.382v1.441q0,.827.008,1.364c0,.361.012.627.021.816h.974c.354,0,.7-.008,1.039-.021s.664-.037.963-.059a6.046,6.046,0,0,0,.788-.108l-.038.225,0,.223a1.3,1.3,0,0,0,.043.377q-.63-.027-1.249-.028h-2.528c-.419,0-.844.01-1.272.028.033-.619.056-1.236.079-1.852s.035-1.241.035-1.881v-2.5c0-.639-.012-1.266-.035-1.89" transform="translate(-69.824 -70.869)" fill="#fff"/>
    <path id="Path_264" data-name="Path 264" d="M151.142,113.1q-.035-.918-.076-1.88l.351.053.331.021.334-.021.348-.053q-.037.96-.073,1.88c-.025.617-.04,1.244-.04,1.885v2.5c0,.64.015,1.269.04,1.891s.048,1.229.073,1.828c-.212-.02-.437-.03-.682-.03s-.468.01-.682.03c.026-.6.053-1.213.076-1.828s.035-1.251.035-1.891v-1.3c-.5-.01-.985-.017-1.458-.027s-.955-.007-1.456-.007-.986,0-1.456.007-.956.017-1.458.027v1.3c0,.64.012,1.269.036,1.891s.05,1.229.076,1.828c-.215-.02-.442-.03-.687-.03s-.467.01-.682.03c.03-.6.053-1.213.078-1.828s.037-1.251.037-1.891v-2.5q0-.96-.037-1.885c-.024-.617-.048-1.239-.078-1.88l.349.053.333.021.334-.021.353-.053c-.026.64-.056,1.268-.076,1.88s-.036,1.244-.036,1.885v.506c.5.012.987.02,1.458.033s.953.013,1.456.013.986,0,1.456-.013.956-.021,1.458-.033v-.506c0-.64-.01-1.268-.035-1.885" transform="translate(-91.819 -70.868)" fill="#fff"/>
    <path id="Path_265" data-name="Path 265" d="M172.57,113.7a4.45,4.45,0,0,1,2.728-2.652,6.094,6.094,0,0,1,2.106-.349,6.161,6.161,0,0,1,2.116.349,4.477,4.477,0,0,1,2.725,2.652,5.936,5.936,0,0,1,.382,2.2,6,6,0,0,1-.382,2.2,4.526,4.526,0,0,1-1.075,1.631,4.332,4.332,0,0,1-1.65,1,6.593,6.593,0,0,1-2.116.324,6.52,6.52,0,0,1-2.106-.324,4.381,4.381,0,0,1-1.656-1,4.586,4.586,0,0,1-1.072-1.631,5.932,5.932,0,0,1-.386-2.2,5.869,5.869,0,0,1,.386-2.2m8.4.112a3.982,3.982,0,0,0-.817-1.453,3.219,3.219,0,0,0-1.223-.847,4.144,4.144,0,0,0-1.526-.276,4.1,4.1,0,0,0-1.517.276,3.262,3.262,0,0,0-1.224.847,4.058,4.058,0,0,0-.819,1.453,7.6,7.6,0,0,0,0,4.169,4.075,4.075,0,0,0,.819,1.453,3.249,3.249,0,0,0,1.224.849,4.128,4.128,0,0,0,1.517.275,4.173,4.173,0,0,0,1.526-.275,3.207,3.207,0,0,0,1.223-.849,4,4,0,0,0,.817-1.453,7.524,7.524,0,0,0,0-4.169" transform="translate(-109.719 -70.539)" fill="#fff"/>
    <path id="Path_266" data-name="Path 266" d="M213.47,112.753a14.733,14.733,0,0,0-.07-1.539l.3.055.282.02a1.367,1.367,0,0,0,.415-.075c-.03.338-.058.745-.083,1.215s-.05.974-.071,1.511-.036,1.089-.056,1.656-.033,1.117-.041,1.645a5.491,5.491,0,0,1-.286,1.744,3.71,3.71,0,0,1-.771,1.309,3.223,3.223,0,0,1-1.236.811,4.714,4.714,0,0,1-1.683.276,4.039,4.039,0,0,1-3.036-.986,4.373,4.373,0,0,1-.948-3.122c0-.457.012-.857.035-1.211s.035-.715.035-1.082c0-.814-.01-1.534-.032-2.167s-.033-1.162-.053-1.6l.361.055.364.02.3-.02.3-.055c-.018.215-.037.492-.056.834s-.035.736-.056,1.17-.032.907-.04,1.411-.017,1.026-.017,1.569c0,.326,0,.667.017,1.021a7.29,7.29,0,0,0,.1,1.034,4.558,4.558,0,0,0,.273.96,2.352,2.352,0,0,0,.536.8,2.423,2.423,0,0,0,.879.536,3.815,3.815,0,0,0,1.31.2,3.223,3.223,0,0,0,1.29-.231,2.486,2.486,0,0,0,.859-.611,2.865,2.865,0,0,0,.521-.869A5.049,5.049,0,0,0,213.38,118a7.866,7.866,0,0,0,.1-1.079c.01-.353.015-.687.015-.983,0-1.379-.005-2.438-.015-3.185" transform="translate(-131.372 -70.868)" fill="#fff"/>
    <path id="Path_267" data-name="Path 267" d="M235.772,119.509a2.477,2.477,0,0,0,.457.485,2.378,2.378,0,0,0,.637.356,2.243,2.243,0,0,0,.807.137,1.982,1.982,0,0,0,.832-.165,1.886,1.886,0,0,0,.624-.452,1.99,1.99,0,0,0,.4-.668,2.377,2.377,0,0,0,.137-.821,1.6,1.6,0,0,0-.328-1.059,2.892,2.892,0,0,0-.812-.654,9.357,9.357,0,0,0-1.059-.481,5.22,5.22,0,0,1-1.046-.545,2.74,2.74,0,0,1-.819-.835,2.476,2.476,0,0,1-.331-1.363,2.871,2.871,0,0,1,.212-1.112,2.446,2.446,0,0,1,.6-.862,2.82,2.82,0,0,1,.958-.567,3.681,3.681,0,0,1,1.254-.2,3.623,3.623,0,0,1,1.16.167,2.819,2.819,0,0,1,.9.513,3.485,3.485,0,0,0-.207.523c-.056.189-.114.417-.171.7h-.165a3.645,3.645,0,0,0-.189-.44,1.682,1.682,0,0,0-.319-.443,1.867,1.867,0,0,0-.478-.342,1.559,1.559,0,0,0-.673-.136,1.873,1.873,0,0,0-.715.127,1.724,1.724,0,0,0-.574.372,1.615,1.615,0,0,0-.377.574,2,2,0,0,0-.132.724,1.636,1.636,0,0,0,.328,1.074,2.765,2.765,0,0,0,.816.664,8.071,8.071,0,0,0,1.055.478,6.2,6.2,0,0,1,1.052.513,2.764,2.764,0,0,1,.812.786,2.219,2.219,0,0,1,.329,1.277,3.509,3.509,0,0,1-.23,1.264,2.934,2.934,0,0,1-1.742,1.722,4.11,4.11,0,0,1-1.446.238,3.5,3.5,0,0,1-1.4-.238,3.832,3.832,0,0,1-.9-.546,3.845,3.845,0,0,0,.175-.6c.028-.18.057-.409.088-.692h.167a2.757,2.757,0,0,0,.3.533" transform="translate(-149.772 -70.54)" fill="#fff"/>
    <path id="Path_268" data-name="Path 268" d="M257.585,113.074c-.021-.62-.05-1.237-.076-1.858.419.023.832.035,1.248.053s.832.022,1.251.022.832-.008,1.238-.022.824-.03,1.243-.053l-.043.435.043.437c-.3-.017-.569-.041-.814-.055s-.51-.045-.784-.063-.572-.036-.9-.048-.716-.022-1.173-.022c-.005.309-.018.6-.032.884s-.023.6-.023.96c0,.376,0,.745.012,1.1s0,.631,0,.813c.409,0,.778,0,1.1-.012s.624-.023.895-.038.515-.03.744-.045.445-.033.647-.046a2.169,2.169,0,0,0-.04.445l.04.435c-.243-.03-.523-.051-.844-.068s-.64-.034-.961-.04l-.907-.015c-.285,0-.508-.007-.677-.007v.283c-.01.1-.012.229-.012.382v1.441c0,.551,0,1.006.012,1.364s.007.627.017.816h.976c.354,0,.7-.008,1.039-.021s.66-.037.961-.059a5.923,5.923,0,0,0,.788-.108l-.032.225-.008.223a1.383,1.383,0,0,0,.04.377c-.419-.018-.831-.028-1.248-.028h-2.53c-.417,0-.841.01-1.269.028.026-.619.055-1.236.076-1.852s.035-1.241.035-1.881v-2.5c0-.639-.008-1.266-.035-1.89" transform="translate(-164.089 -70.869)" fill="#fff"/>
    <path id="Path_269" data-name="Path 269" d="M292.1,113.1q-.035-.918-.078-1.88l.346.053.339.021.331-.021.351-.053c-.028.64-.053,1.268-.079,1.88s-.03,1.244-.03,1.885v2.5c0,.64.012,1.269.03,1.891s.051,1.229.079,1.828c-.215-.02-.439-.03-.682-.03s-.472.01-.685.03c.03-.6.055-1.213.078-1.828s.035-1.251.035-1.891v-2.5q0-.96-.035-1.885" transform="translate(-186.082 -70.868)" fill="#fff"/>
    <path id="Path_270" data-name="Path 270" d="M306.123,114.707q.98,1.946,2.053,4c.094-.189.227-.448.4-.791s.382-.743.616-1.188.478-.927.744-1.443.534-1.046.809-1.578.544-1.056.814-1.569l.755-1.436h.18c.1.928.2,1.827.285,2.692s.18,1.719.27,2.556.19,1.668.283,2.484.2,1.628.308,2.434l-.329-.03h-.655l-.328.03q-.152-1.929-.308-3.748t-.375-3.7h-.03q-.958,1.827-1.886,3.635t-1.762,3.784h-.127q-.834-1.829-1.752-3.668t-1.833-3.751h-.027c-.065.6-.139,1.248-.217,1.952s-.151,1.395-.214,2.075-.126,1.329-.171,1.933-.068,1.1-.068,1.489a4.032,4.032,0,0,0-.978,0c.122-.784.247-1.615.381-2.484s.255-1.747.374-2.629.231-1.749.334-2.608.19-1.673.266-2.446h.233q.966,2.06,1.949,4.009" transform="translate(-192.813 -70.539)" fill="#fff"/>
    <path id="Path_271" data-name="Path 271" d="M346.825,120.864l-.366-.028h-.738l-.372.028c-.063-.222-.154-.488-.265-.808s-.235-.642-.369-.986-.273-.691-.41-1.042-.27-.692-.391-1.014c-.3-.008-.6-.013-.907-.02s-.612,0-.921,0h-.849c-.28.007-.564.012-.85.02q-.447,1.137-.809,2.161c-.241.682-.422,1.248-.544,1.689a4.708,4.708,0,0,0-1.031,0q1.129-2.536,2.2-5.055t2.164-5.109h.258q.34.841.731,1.822l.793,1.987c.27.665.538,1.324.809,1.986s.521,1.271.761,1.838.447,1.072.64,1.517.346.784.463,1.014m-6.172-4.517c.242,0,.492,0,.753.015s.51.015.751.015c.261,0,.521,0,.782,0s.52-.012.779-.025l-1.549-3.688Z" transform="translate(-215.382 -70.54)" fill="#fff"/>
    <path id="Path_272" data-name="Path 272" d="M368.139,113.094q-.03-.919-.076-1.88c.27.023.536.036.8.054s.526.02.8.02a7.43,7.43,0,0,0,.793-.038c.26-.023.525-.036.8-.036a5.219,5.219,0,0,1,1.115.119,2.664,2.664,0,0,1,.927.384,1.855,1.855,0,0,1,.625.7,2.6,2.6,0,0,1-.068,2.287,2.932,2.932,0,0,1-.733.826,3.473,3.473,0,0,1-.927.511,4.583,4.583,0,0,1-.9.24c.109.144.263.348.458.609s.415.551.652.86.5.647.756.988.511.677.754.991.468.6.682.862.386.462.518.6l-.419-.03h-.824l-.4.03c-.143-.2-.354-.51-.639-.917s-.6-.842-.938-1.3-.7-.932-1.054-1.39-.685-.849-.985-1.166h-.531v1.059c0,.638.012,1.267.04,1.889s.046,1.229.076,1.828c-.217-.02-.444-.03-.687-.03s-.467.01-.682.03c.03-.6.056-1.213.076-1.828s.036-1.251.036-1.889v-2.5q0-.96-.036-1.884m1.6,2.771c.156.008.326.012.511.012a4.75,4.75,0,0,0,.9-.1,2.591,2.591,0,0,0,.852-.357,1.992,1.992,0,0,0,.908-1.764,1.945,1.945,0,0,0-.2-.936,1.718,1.718,0,0,0-.525-.592,1.971,1.971,0,0,0-.695-.3,3.579,3.579,0,0,0-.74-.078c-.328,0-.594.007-.809.018s-.394.033-.544.054c-.017.529-.035,1.059-.057,1.584s-.03,1.042-.03,1.568v.829c.132.023.275.045.427.058" transform="translate(-234.536 -70.868)" fill="#fff"/>
    <path id="Path_273" data-name="Path 273" d="M393.247,113.1q-.035-.918-.073-1.88l.344.053.339.021.329-.021.35-.053c-.025.64-.054,1.268-.079,1.88s-.032,1.244-.032,1.885v2.5c0,.64.012,1.269.032,1.891s.054,1.229.079,1.828c-.215-.02-.44-.03-.68-.03s-.473.01-.683.03c.025-.6.05-1.213.073-1.828s.035-1.251.035-1.891v-2.5c0-.64-.008-1.268-.035-1.885" transform="translate(-250.538 -70.868)" fill="#fff"/>
    <path id="Path_274" data-name="Path 274" d="M164.282,24.745h24.744V0H164.282ZM187.468,13.79l-3.28-12.232h3.28ZM172.542,6.8l.326-1.214L177.4,6.8Zm8.035,9.382h-7.465V8.358h7.465Zm-9.022.268-1.489-.4,1.489-5.568Zm9.269,1.282-.3,1.117-4.159-1.117Zm1.31-9.661,1.191.321-1.191,4.451ZM174.107,4.31,182.7,2l1.33,4.962Zm-5.381,10.714-2.318-8.65L171.4,5.029Zm11.026,5.23-8.98,2.406-1.391-5.185Zm4.919-10.875,2.391,8.915-5.151,1.381ZM178.359,1.56,165.834,4.91V1.558Zm-12.525,8.685,3.47,12.949h-3.47Zm8.974,12.949,12.66-3.394v3.393Z" transform="translate(-104.683 -0.001)" fill="#fff"/>
  </g>
</svg>
