<?xml version="1.0" encoding="UTF-8"?>
<svg id="_レイヤー_2" data-name="レイヤー 2" xmlns="http://www.w3.org/2000/svg" viewBox="0 0 147.4 11.31">
  <defs>
    <style>
      .cls-1 {
        fill: #a37e39;
        stroke-width: 0px;
      }
    </style>
  </defs>
  <g id="_レイヤー_1-2" data-name="レイヤー 1">
    <g>
      <path class="cls-1" d="M2.12,3.93c-.33,2.38-.48,4.78-.63,7.17-.25-.05-.51-.08-.74-.08-.25,0-.49.03-.74.08C.66,7.47,1.18,3.84,1.63.21c.22.05.43.08.65.08.21,0,.43-.03.63-.08,1.15,2.51,2.49,5.32,3.65,7.55,1.25-2.35,2.54-5.04,3.68-7.55.22.05.46.08.68.08s.44-.03.66-.08c.41,3.63.96,8.67,1.36,10.89-.43-.05-.85-.08-1.28-.08s-.87.03-1.31.08c-.11-2.19-.38-4.88-.63-7.33h-.03c-1.18,2.45-2.35,4.88-3.49,7.33-.09-.01-.21-.03-.3-.03s-.2.02-.3.03c-1.12-2.38-2.26-4.78-3.44-7.17h-.03Z"/>
      <path class="cls-1" d="M14.75,4.58c0-1.77-.03-2.98-.13-4.37.93.02,1.88.08,2.81.08,1.55,0,2.87-.03,3.3-.08-.03.19-.06.38-.06.66,0,.33.03.47.06.71-1.2-.08-3.09-.19-3.57-.19-.08,1.15-.08,2.29-.08,3.44,1.37-.03,2.38-.06,3.58-.13-.06.36-.08.5-.08.71,0,.17.03.32.08.65-1.2-.09-2.38-.14-3.58-.14,0,.66-.02,1.34-.02,2.02s.02,1.34.05,1.97c1.18,0,2.4-.06,3.61-.21-.03.22-.06.38-.06.71s.03.49.06.68c-.57-.02-1.31-.08-2.76-.08-2.57,0-3,.05-3.35.08.09-1.39.13-2.6.13-4.37v-2.15Z"/>
      <path class="cls-1" d="M24.05,3.93c-.33,2.38-.48,4.78-.63,7.17-.25-.05-.51-.08-.74-.08-.25,0-.49.03-.74.08.66-3.63,1.18-7.26,1.63-10.89.22.05.43.08.65.08.2,0,.43-.03.63-.08,1.15,2.51,2.5,5.32,3.65,7.55,1.25-2.35,2.54-5.04,3.68-7.55.22.05.46.08.68.08s.44-.03.66-.08c.41,3.63.96,8.67,1.36,10.89-.42-.05-.85-.08-1.28-.08s-.87.03-1.31.08c-.11-2.19-.38-4.88-.63-7.33h-.03c-1.18,2.45-2.35,4.88-3.49,7.33-.09-.01-.21-.03-.3-.03s-.2.02-.3.03c-1.12-2.38-2.26-4.78-3.44-7.17h-.03Z"/>
      <path class="cls-1" d="M45.43,5.31c0,3.44-1.66,5.02-3.55,5.02-1.77,0-3.32-1.17-3.32-4.53,0-2.72,1.26-4.9,3.43-4.9,2.04,0,3.44,1.67,3.44,4.41M35.97,5.65c0,3.95,2.68,5.65,6.02,5.65,3.52,0,6.03-2.54,6.03-5.67C48.02,1.83,45.38,0,42.03,0c-3.66,0-6.06,2.54-6.06,5.65"/>
      <path class="cls-1" d="M49.98,4.58c0-1.77-.03-2.98-.13-4.37.35.03.77.08,1.3.08s.95-.05,1.29-.08c-.1,1.39-.13,2.6-.13,4.37v2.15c0,1.17.02,2.37.03,3.19,1.18,0,2.4-.06,3.62-.21-.03.22-.06.38-.06.71s.03.49.06.68c-.57-.02-1.31-.08-2.76-.08-2.57,0-3,.05-3.35.08.1-1.39.13-2.6.13-4.37v-2.15Z"/>
      <path class="cls-1" d="M57.73,4.58c0-1.77-.03-2.98-.13-4.37.93.02,1.88.08,2.81.08,1.55,0,2.87-.03,3.3-.08-.03.19-.06.38-.06.66,0,.33.03.47.06.71-1.2-.08-3.1-.19-3.57-.19-.08,1.15-.08,2.29-.08,3.44,1.37-.03,2.38-.06,3.59-.13-.06.36-.08.5-.08.71,0,.17.03.32.08.65-1.2-.09-2.38-.14-3.59-.14,0,.66-.02,1.34-.02,2.02s.02,1.34.05,1.97c1.18,0,2.4-.06,3.62-.21-.03.22-.06.38-.06.71s.03.49.06.68c-.57-.02-1.31-.08-2.76-.08-2.57,0-3,.05-3.35.08.1-1.39.13-2.6.13-4.37v-2.15Z"/>
      <path class="cls-1" d="M67.6,6.93c.46-1.28.95-2.53,1.48-3.76.51,1.23.95,2.48,1.41,3.76h-2.89ZM70.28.13c-.21.03-.4.08-.6.08s-.4-.05-.6-.08c-1.36,3.6-3.73,9.22-4.5,10.97.3-.03.54-.08.79-.08s.49.05.74.08c.3-1.09.65-2.16,1.07-3.24.55-.02,1.09-.03,1.64-.03.68,0,1.34.02,2.02.03.39,1.07.76,2.16,1.09,3.24.44-.03.9-.08,1.34-.08s.88.05,1.39.08c-1.2-2.57-3.05-7.37-4.39-10.97"/>
      <path class="cls-1" d="M78.63,4.26c0-.85,0-2.78.02-3.08.49-.05.88-.08,1.64-.08,2.18,0,3.61,1.61,3.61,4.2,0,3.28-1.5,4.89-3.87,4.89-.65,0-1.07-.03-1.39-.05-.02-.3-.02-2.23-.02-3.08v-2.81ZM76.3,6.73c0,1.77-.03,2.98-.13,4.37.35-.03.77-.08,1.29-.08.82,0,1.89.08,3.47.08,2.97,0,5.46-2.29,5.46-5.76,0-3.98-2.48-5.13-6.08-5.13-1.39,0-2.16.08-2.86.08-.52,0-.95-.05-1.29-.08.1,1.39.13,2.6.13,4.37v2.15Z"/>
      <path class="cls-1" d="M101.99,2.56c-.66-.95-1.68-1.58-3.11-1.58-1.96,0-3.98,1.63-3.98,4.94,0,2.51,1.4,4.41,3.84,4.41.54,0,1.47-.11,1.72-.28.05-.25.05-.65.05-1.1,0-1.71-.1-2.42-.11-2.72.21.03.52.08,1.17.08.76,0,1.07-.05,1.28-.08-.08.33-.13,1.64-.13,2.65,0,.66.02,1.5.05,1.74-1.37.39-2.83.69-4.21.69-3.63,0-6.24-2.07-6.24-5.29,0-4.01,2.83-6.02,6.54-6.02,1.59,0,2.67.35,3.8.95-.17.54-.35,1.07-.44,1.61h-.22Z"/>
      <path class="cls-1" d="M110.09,3.17c0,1.48-.76,2.26-2.15,2.26-.11,0-.22-.02-.35-.03,0-1.44.02-2.86.05-4.29,1.72,0,2.45.2,2.45,2.07M110.56,11.1c.47-.03.96-.08,1.44-.08s.95.05,1.42.08c-1.15-1.78-2.35-3.58-3.36-5.37,1.56-.39,2.45-1.37,2.45-2.9,0-.93-.39-1.63-1.03-2.08-.55-.39-1.14-.54-2.73-.54-1.08,0-1.75.08-2.32.08-.52,0-.95-.05-1.29-.08.1,1.39.13,2.6.13,4.37v2.15c0,1.77-.03,2.98-.13,4.37.35-.03.77-.08,1.29-.08s.95.05,1.3.08c-.1-1.39-.13-2.6-.13-4.37v-.65h.14l2.83,5.02Z"/>
      <path class="cls-1" d="M123.51,5.31c0,3.44-1.66,5.02-3.55,5.02-1.77,0-3.32-1.17-3.32-4.53,0-2.72,1.26-4.9,3.43-4.9,2.04,0,3.44,1.67,3.44,4.41M114.05,5.65c0,3.95,2.68,5.65,6.02,5.65,3.52,0,6.03-2.54,6.03-5.67C126.1,1.83,123.46,0,120.11,0c-3.66,0-6.06,2.54-6.06,5.65"/>
      <path class="cls-1" d="M128.07,7.15c0-1.71.03-2.56.03-3.7,0-1.67-.03-2.73-.06-3.25.43.05.87.08,1.29.08s.87-.03,1.3-.08c-.21,2.05-.22,3.69-.22,5.53,0,3.85,1.11,4.48,3.16,4.48,2.53,0,2.7-2.73,2.7-5.67,0-1.45-.05-2.89-.13-4.34.27.05.54.08.8.08s.52-.03.79-.08c-.1.93-.21,3.19-.21,5.92,0,3.66-1.6,5.18-4.66,5.18-2.7,0-4.8-1.18-4.8-4.15"/>
      <path class="cls-1" d="M144.91,3.24c0,2.04-1.31,2.32-2.37,2.32,0-1.47.02-2.95.03-4.44.17-.02.41-.02.66-.02.9,0,1.67.52,1.67,2.13M140.2,6.73c0,1.77-.03,2.98-.13,4.37.35-.03.77-.08,1.3-.08s.95.05,1.29.08c-.11-1.58-.13-3.16-.13-4.74h.81c2.35,0,4.06-.96,4.06-3.38,0-.93-.32-1.58-.98-2.13-.49-.41-1.26-.65-2.75-.65-.76,0-1.58.08-2.31.08-.52,0-.95-.05-1.3-.08.1,1.39.13,2.6.13,4.37v2.15Z"/>
    </g>
  </g>
</svg>