<svg id="logo_01_4" xmlns="http://www.w3.org/2000/svg" xmlns:xlink="http://www.w3.org/1999/xlink" width="86.416" height="59.622" viewBox="0 0 86.416 59.622">
  <defs>
    <clipPath id="clip-path">
      <rect id="Rectangle_1" data-name="Rectangle 1" width="86.416" height="59.622" fill="#fff"/>
    </clipPath>
  </defs>
  <path id="Path_1" data-name="Path 1" d="M43.21,138.085H0v.625H86.416v-.625Z" transform="translate(0 -89.612)" fill="#fff"/>
  <g id="Group_2" data-name="Group 2">
    <g id="Group_1" data-name="Group 1" clip-path="url(#clip-path)">
      <path id="Path_2" data-name="Path 2" d="M1.4,117.813v-.3h.715v-9.066H1.4v-.308H4.858c2,0,2.7,1.121,2.7,2.335,0,1.358-.909,2.3-2.619,2.423l2.829,4.616h.58v.3H6.467l-3.023-4.921H3.4v4.616h.9v.3Zm2-5.146h.7a1.929,1.929,0,0,0,2.1-2.2c0-.974-.417-2.027-1.724-2.027H3.4Z" transform="translate(-0.899 -69.5)" fill="#fff"/>
      <path id="Path_3" data-name="Path 3" d="M24.236,107.516c1.794,0,3.425,1.983,3.425,5.063s-1.631,5.061-3.425,5.061-3.423-1.983-3.423-5.061,1.628-5.063,3.423-5.063m0,9.816c1.32,0,1.949-1.09,1.949-4.753s-.629-4.758-1.949-4.758-1.949,1.1-1.949,4.758.629,4.753,1.949,4.753" transform="translate(-13.377 -69.103)" fill="#fff"/>
      <path id="Path_4" data-name="Path 4" d="M39.486,108.133h3.093v.308h-.973l1.721,4.281,1.926-4.281h-.89v-.308h1.972v.308h-.75l-2.079,4.646v4.421h.953v.3H41.272v-.3h.951V113.4l-2.046-4.954h-.691Z" transform="translate(-25.378 -69.499)" fill="#fff"/>
      <path id="Path_5" data-name="Path 5" d="M55.8,117.613v-.3h.689l2.759-9.485h.764l2.612,9.485H63.1v.3H60.46v-.3h.88l-.975-3.585H57.859l-1.035,3.585h1.144v.3Zm2.141-4.2h2.343l-1.131-4.1h-.024Z" transform="translate(-35.865 -69.3)" fill="#fff"/>
      <path id="Path_6" data-name="Path 6" d="M80.732,117.506h1.76c.785,0,1.01-.169,1.724-3.583h.261v3.888H78.731v-.3h.719v-9.065h-.719v-.309H81.92v.309H80.732Z" transform="translate(-50.602 -69.499)" fill="#fff"/>
      <path id="Path_7" data-name="Path 7" d="M108.5,110.839h-.261c-.738-2.682-.965-3.021-1.889-3.021-1.238,0-2.035,1.123-2.035,4.758s.689,4.753,2.139,4.753c1-.01,1.32-.836,1.858-3.437h.262v3.159a4.073,4.073,0,0,1-2.12.587c-2.019,0-3.614-1.959-3.614-5.063s1.6-5.063,3.614-5.063a4.123,4.123,0,0,1,2.045.53Z" transform="translate(-66.101 -69.101)" fill="#fff"/>
      <path id="Path_8" data-name="Path 8" d="M124.115,112.946v4.561h.782v.3h-2.785v-.3h.717V108.44h-.717v-.308H124.9v.308h-.782v4.2h3.148v-4.2h-.785v-.308h2.781v.308h-.71v9.067h.71v.3h-2.781v-.3h.785v-4.561Z" transform="translate(-78.484 -69.499)" fill="#fff"/>
      <path id="Path_9" data-name="Path 9" d="M144.923,117.814v-.3h.715v-9.066h-.715v-.308h6.041v3.1H150.7c-.64-2.614-.832-2.8-1.429-2.8H146.92v4.2h.93c.592,0,.874-.432,1.115-1.93h.262v4.167h-.262c-.241-1.5-.523-1.929-1.115-1.929h-.93v4.561h2.091c.847,0,1.1-.379,1.8-3.275h.261v3.58Z" transform="translate(-93.145 -69.501)" fill="#fff"/>
      <path id="Path_10" data-name="Path 10" d="M165.39,113.779c.5,2.6.95,3.551,2.1,3.551a1.937,1.937,0,0,0,1.939-2.042c0-2.768-4.419-1.69-4.419-5a2.6,2.6,0,0,1,2.708-2.77,4.692,4.692,0,0,1,2.234.556v2.8h-.261l-.428-1.623c-.3-1.1-.88-1.427-1.652-1.427a1.788,1.788,0,0,0-1.8,1.848c0,1.049.631,1.326,2.232,2.043,1.763.782,2.381,1.312,2.381,2.851a2.973,2.973,0,0,1-3.094,3.077,4.17,4.17,0,0,1-2.21-.779v-3.08Z" transform="translate(-106.056 -69.1)" fill="#fff"/>
      <path id="Path_11" data-name="Path 11" d="M183.047,117.506h.891v-9.065h-.772c-.534,0-.667.142-1.154,2.77h-.261v-3.08h5.659v3.08h-.262c-.487-2.629-.618-2.77-1.152-2.77h-.772v9.065h.888v.3h-3.065Z" transform="translate(-116.815 -69.499)" fill="#fff"/>
      <path id="Path_12" data-name="Path 12" d="M200.391,117.814v-.3h.714v-9.066h-.714v-.308h6.041v3.1h-.262c-.642-2.614-.831-2.8-1.428-2.8H202.39v4.2h.926c.593,0,.881-.432,1.116-1.93h.264v4.167h-.264c-.235-1.5-.523-1.929-1.116-1.929h-.926v4.561h2.091c.844,0,1.093-.379,1.8-3.275h.259v3.58Z" transform="translate(-128.795 -69.501)" fill="#fff"/>
      <path id="Path_13" data-name="Path 13" d="M220.726,117.813v-.3h.717v-9.066h-.717v-.308h3.463c2,0,2.7,1.121,2.7,2.335,0,1.358-.9,2.3-2.617,2.423l2.829,4.616h.583v.3h-1.89l-3.021-4.921h-.047v4.616h.906v.3Zm2-5.146h.706a1.929,1.929,0,0,0,2.1-2.2c0-.974-.417-2.027-1.724-2.027h-1.084Z" transform="translate(-141.865 -69.5)" fill="#fff"/>
      <path id="Path_14" data-name="Path 14" d="M108.419,21.1a6.557,6.557,0,0,0-.244-.8c.134-.306-.208-.494-.208-.794-.289-.244.065-.539.023-.849-.234-.533.176-1.253-.345-1.647a4.322,4.322,0,0,0-1.191,1.965c-.386,1.25.762,1.926.872,3,.021.2.086.474-.043.639-.332.08-.6-.176-.829-.432a11.192,11.192,0,0,0-1.724-3.388c-.353-.466.011-1.063-.1-1.592.023-.212-.218-.453.055-.611.375.08.132-.45.5-.45.178.275.243-.258.455-.057a.66.66,0,0,0,.208-.585c-.122-.132-.277-.2-.208-.422a1.554,1.554,0,0,0,.23-1.168,2.043,2.043,0,0,0-.176-1.141c0-.142-.231-.12-.166-.284.287-.223-.021-.686.265-.909.209-.4-.187-.761-.42-1.059l-.419.718a1.276,1.276,0,0,0-.453-.661c-.1.438-.466.759-.455,1.247a3.039,3.039,0,0,0-.851.076c-.319.388-.894.046-1.347.189-.266.13-.055.442-.075.663.065.186.486.331.285.53l-.076-.034-.345.059c.049.3.4.3.629.394l-.052.057a.482.482,0,0,1-.528-.156.519.519,0,0,0-.611,0c.023.476.5.927.135,1.406.21.186-.178.318.031.5-.937,1.137-1.833-.4-2.818-.422-.575.344-1.271.013-1.934.08l-.055-.055c.223-.187.31-.451.512-.662a2.565,2.565,0,0,0,1.159.429,1.406,1.406,0,0,0,1.093-.4,1.454,1.454,0,0,0,.132-1.382h.42V13.01l.776-.189.1-.153c-.2-.212-.113-.529-.342-.72l.163-.344c.122-.188-.151-.241-.241-.319a.853.853,0,0,0-.639.1c-.19.042-.441.076-.554-.155a2.9,2.9,0,0,0,1.833-1.173,2.759,2.759,0,0,0,.4-1.934A1.115,1.115,0,0,0,100,7.6c-.487-.023-.72.562-1.194.562-.243.033-.262.3-.319.477.155.176.277.363.531.363-.065.266.023.6-.114.831.059.186.326.062.433.1l-.207.186a1.1,1.1,0,0,1-1.041.057l.188-.078a.91.91,0,0,0,.529-.9c-.129-.156-.308-.143-.476-.156V8.789c-.1-.29-.428-.212-.617-.267-.44.113-.067.862-.629.7-.21.363.287.6.077.893l-.264-.021c.076-.254.2-.616,0-.85-.145-.1-.279-.243-.476-.21l-.266-.3c.132-.189.1-.7.5-.5.166-.385.5-.013.718-.3.01-.288.388-.067.508-.288-.067-.256.233-.463.078-.662-.277.155-.52-.078-.8.077l-.109-.176c.011-.212.243-.212.376-.266a.9.9,0,0,0,.319-.751c-.12-.21-.344-.033-.51-.046l-.076-.264.21-.264c.256-.057.243-.31.267-.51l.209-.287.3.023c.132.429-.076,1.015.186,1.4.189.1.378-.046.476-.21a1.956,1.956,0,0,0,.12-1.61,1.072,1.072,0,0,0-.826-.377l-.155-.209-.244-.05c-.352.363-1.048.01-1.271.583l-.13-.376.319-.264c-.22-.155-.086-.531-.4-.585a.941.941,0,0,0-.264.564L95.8,3.117c-.241.048-.4-.34-.616-.108.155.22-.034.417-.1.608-.179-.122-.578.067-.567-.288V1.32c.277-.176.155-.588.113-.831-.166-.13-.309-.772-.531-.342-.122.187-.2.386-.321.585-.086.2.055.377.166.533V3.329c-.186.2-.464.046-.663.135.086-.212.269-.411.155-.667-.187-.067-.308.046-.421.156l-.033-.023c-.134-.033-.329-.078-.421.078.091.287-.241.232-.319.433a1.058,1.058,0,0,0-.417-.489c-.179.145-.347.365-.269.585a1.22,1.22,0,0,0-.508-.21c-.342.145-.751.124-1.036.419a1.7,1.7,0,0,0-.5,1.55c.179.274.168.761.609.795.448-.376.188-1,.266-1.55.067-.086.076-.274.244-.264a.563.563,0,0,0,.23.456c-.132.505.709.407.529.926-.264.042-.428-.186-.717-.1-.166.111-.1.365-.077.531a.853.853,0,0,0,.74.474l.22.342c-.274-.13-.353.287-.64.135l-.264.4c.109.143.165.241.287.4a1.917,1.917,0,0,0,1.225.318l-.132.265c-.122.212.21.244.264.421l-.075.075a.955.955,0,0,0-.718.212l-.166-.34-.289.129a.738.738,0,0,0-.374-.582c-.166.054-.22.228-.342.35L90.1,8.522a.911.911,0,0,0-.319.874c.021.166.319.254.233.433-.3-.1-.665-.1-.874-.378a2.756,2.756,0,0,0,.4-.421V8.687h.078c.409-.109.132-.549.132-.8-.143-.407-.686-.088-.93-.373-.517-.059-1.126-.078-1.422.419a2.087,2.087,0,0,0-.057,1.833,2.145,2.145,0,0,0,1.48,1.082c-.243.078-.572-.042-.738.222v.4c-.233.155-.2.421-.233.667.166.363.963-.1.82.5l.416-.08-.207.246a1.267,1.267,0,0,0-.155,1.348,1.476,1.476,0,0,0,1.422.662c-.582.222-1.276.2-1.853.454l-.707-.321-.033-.422c-.2-.186.155-.274.13-.452-.088-.2.178-.466.078-.717-.267-.145-.551-.011-.839-.054l-.033-.421c-.121-.234-.367.077-.531.052,0-.176.22-.22.3-.353-.066-.341.266-.517.178-.87-.078-.244-.342-.29-.554-.344-.474-.786-1.371-.685-2.143-.794a2.992,2.992,0,0,0-.927-.347,2.5,2.5,0,0,1,.041.456l-.6-.166a2.429,2.429,0,0,0,.113.8c-.28.065-.577.1-.741.342-.034.43.453.6.629.9-.212.4-.013.953-.267,1.329l.344.287c-.077.419-.156.837-.23,1.247.108.342.329.034.528.113l-.054.186c.187.189.428-.176.529.178-.134.331.2.143.321.264.023.168.166.311.075.486.021.222-.277.423-.052.631.217.013.019.2.073.319-.165.168.078.368.034.587l-1.135,1.88c-.621.872-.51,2.4-1.838,2.63a.862.862,0,0,1-.318-.93,17.161,17.161,0,0,1,2.066-3.028,2.137,2.137,0,0,0,.432-1.271,1.56,1.56,0,0,0-1.457-.661c-.533.3-1.328-.043-1.838.287a1.174,1.174,0,0,0-.5.566,1.113,1.113,0,0,0-.533,1.114c.552-.265,1.043.365,1.561.176.086.319-.3.476-.157.774-.2-.01-.5-.111-.64.078.208.4-.156.7-.1,1.1-.134.109-.355.143-.4.342l.044.453.222-.135c.388.422.188,1.082.573,1.506-.464.341-.134,1.069-.684,1.325l.078.377a1.626,1.626,0,0,1,.774-.264.984.984,0,0,0,.419-.854,3.127,3.127,0,0,0,1.7-.4,2,2,0,0,1,.37.983c-.168.433-.665.269-1.007.269-.287.239-.068.748-.4,1a.515.515,0,0,0-.021.663.474.474,0,0,0,0,.453c-.034.178-.077.34.134.419-.168.421.311.61.1,1.019.243.166.283.476.43.707l.551-.311c.254-.075.464.132.7.212l.175-.165c.059-.222.332-.113.512-.156l.13-.319c-.277-.3-.033-.753-.109-1.118-.055-.452-.587-.344-.893-.474-.113-.222.063-.385.151-.554,1.072-.781,2.343-1.864,2.043-3.314a.5.5,0,0,1,.476.156c.19.44-.189.784-.342,1.137.023.275-.078.6.191.776a1.475,1.475,0,0,0,.4.108,1.615,1.615,0,0,0,.95.344A10.742,10.742,0,0,1,88,25a1.887,1.887,0,0,1,1.616-.163l.132-.4a2.851,2.851,0,0,1,.507-.054,9.2,9.2,0,0,0,3.6,3.271,19.666,19.666,0,0,0-7.9,1.9c-.275-.432-.264-1.084-.794-1.326a1.6,1.6,0,0,0-1.483.35,1.264,1.264,0,0,0-.4,1.063c.619.839,1.046,1.756,1.611,2.619a.972.972,0,0,0,.742.132,23.679,23.679,0,0,1,2.553-1.115c-.125.132-.067.331-.078.508.44.8.463,1.822,1.193,2.464,2.93-1.338,7.1-1.6,10.021-.078.376-.01.432-.438.585-.686a5.463,5.463,0,0,0,.689-2.309c.76.311,1.478.743,2.252,1.064a.886.886,0,0,0,.738-.166l.874-1.5c.2-.44.631-.784.772-1.247.257-.168.4.275.663.262.189-.331.4.033.629-.075l.191-.265.075.018.489-.549c-.021-.531-.187-1-.165-1.548-.015-.4.372-.772.077-1.158-.83-.479-.686-1.481-.577-2.311l.046-.055a1.444,1.444,0,0,0,1.015.033c.466-.044.43-.562.686-.828.2-.319.021-.7.188-1.026-.143-.235-.054-.464-.132-.717M90.035,5.825c-.049-.215-.315-.256-.334-.507l.264.187.26-.2a1.376,1.376,0,0,0-.19.523m.484-1.644h-.055l.168-.321c.021.076.075.321-.113.321m-.111-.244a2.634,2.634,0,0,0-.155,1.116c-.155.355-.3-.243-.453.109L89.615,5a1.532,1.532,0,0,1,.662-1.328c.141-.033.254-.145.43-.1l-.3.363m16.384,18.72-.34-.289Zm-2.009-6.235h-.055l.055-.1Zm.21-.363v-.034h.088Zm.642-2.993-.078.044V13.2c.021-.209-.155-.365-.134-.528.155.065.134.262.212.4m-3.728.368-.1-.082.1.082c.173.049.4-.28.409.106l-.409-.106m1.717.16.042-.354a1.239,1.239,0,0,0-1.082-.155l-.135.344c-.12-.453-.784-.608-.606-1.193l.155.318c.189-.1.422-.119.564-.262l-.259-.08h-.2l-.068.08-.09-.08h.774l-.023.08c.089.189.2-.08.309-.08.274-.386.851-.13,1.227-.319-.145-.421.22-.706.321-1.061l.231.342c-.044.155.21.145.077.3a1.063,1.063,0,0,0-.1.931l.1-.111a3.515,3.515,0,0,1,.531-1.537c.233.2-.21.44-.078.661l.323-.342c.031.187-.244.33-.168.474l.244-.209a1.289,1.289,0,0,1-.611.839c.156.145.257-.153.422-.153.1.342-.319.476-.474.718l.209.02a.789.789,0,0,0,.265.534l.034-.024c.021.187.044.419.176.5l.041-.051.015-.083-.015.083a.989.989,0,0,0,0,.507l-.114-.1.034.419-.088.319-.134-.188L105.5,15l-.034.264a1.146,1.146,0,0,0-.629-.264c-.089.174-.376.186-.4.417-.029-.232-.319-.086-.473-.134.2-.031.129-.363.4-.318.2-.156.021-.466,0-.631-.011-.233-.189-.344-.243-.564-.223-.264-.463.086-.718-.021-.109.155-.386.1-.4.34l-.232.188.055.212-.055-.023-.078.155-.109-.531c-.165.147.021.531-.269.531,0-.166.246-.474-.055-.631l-.073-.086a1.967,1.967,0,0,1,1.437-.311m-.93-.354c.243-.13.544.047.818.059l.021.163c-.209.078-.417-.163-.631,0l-.262.021.054-.243m1.16.643-.155.319c-.178.065-.208-.1-.3-.187.09-.178.389-.09.565-.189l.02.135a.443.443,0,0,1,.188.34l-.319-.024c-.078-.13.164-.262,0-.394m-.1.507-.056.13-.111-.054v-.111l.166.034m-.354.045-.34.186-.1-.344c.2-.14.308.145.443.158m-.23-.288.055-.132.155.262-.21-.13m-1.967-.4.163-.134c.246-.047.344.289.575.267l.318.344c-.064.163-.052.352-.207.474a.658.658,0,0,0-.507.13c.207.176.442-.09.7-.043l.4-.036c.122.134.344.29.5.111l.244.023.078-.078c-.088-.188-.269.046-.367-.108l.419-.1c.021.171-.156.313-.021.456.166-.1.086-.4.309-.377l.166.188.075-.075-.151-.269.365-.085.031.4-.3.088-.073.21-.113.023L103.625,15c-.134.23.184.284.311.452l.35.023.153.319.078-.078.187.265.134-.034c-.1-.14-.454-.3-.244-.529.08.122.057.324.244.342l-.155-.419c.122-.01.155-.31.342-.155,0,.132-.232.266-.109.442l.054.088c.122-.088.088-.3.111-.452l.21.054c-.01.166-.243.334-.088.476.054-.121.233-.178.165-.342l.344.078c-.088.132-.321.155-.454.319l.432-.09c.01.378-.388-.055-.4.265l-.342-.151c-.222.064-.067.326-.3.342l-.212.372-1.268-.828-1.757-.53.163-.264-.111-.344c.254-.132.044-.451.321-.587l-.02-.178-.222.29c-.3.09-.233-.264-.342-.4m1.512,2.407.287-.02-.21.13c.088.09.124.253.3.189a3.3,3.3,0,0,0,.044.947h.187v.832a3.273,3.273,0,0,1-1.08-.034v-.818l.283-.054v-.873l.244-.055-.055-.244m.549,1.062a3.6,3.6,0,0,0-.039-.93h-.166l.111-.073.795.474c-.176.076-.476-.047-.642.109v.42Zm.246-.311.187.047.025-.078.262.078-.02,1.3-.454-.021Zm-.872-1.114-.642-.21a5.826,5.826,0,0,1,2.42,1.193c-.618-.263-1.1-.847-1.778-.983m-1.248-.771h-.024v-.1h.024Zm-.794,1.036a4.363,4.363,0,0,0-.137,1.007c-.088-.267.069-.653-.132-.85l-.054.052c.033.409-.088.883.108,1.217-.241-.254-.5-.608-.872-.577A10.555,10.555,0,0,1,99.4,15.68a6.824,6.824,0,0,0-1.327-.4c.994-.34,1.55.831,2.522.776m-.215,1.646c-.318.531-.339,1.182-.772,1.669l-.208.342.078-2.63c.463-.111.616.388.9.619M96.3,15.073h-.1c.323-.417.831-.784.709-1.349l-.287-.052a22.865,22.865,0,0,1-2.708,2.122,6.332,6.332,0,0,1-1.688-1.537v-.13a9.857,9.857,0,0,0,1.612,1.558,21.453,21.453,0,0,0,2.729-2.047c.166-.034.31-.142.508-.1.111.663-.466,1.049-.772,1.533m-.29-.02c-.219-.031-.442-.054-.66-.088.429-.4.914-.776,1.38-1.162.132.521-.454.842-.72,1.25M97.1,19.768l-.264-.076a5.265,5.265,0,0,0,.055.872h-.078c.067-.375-.287-.8.1-1.061h.267l.052.235c-.22.2.078.484.057.75a4.6,4.6,0,0,1-.189-.719m.015.772-.109.01-.05-.737a2.36,2.36,0,0,1,.159.727m-.6-.849c.075-.345-.256-.619-.025-.929.168-.088.21.121.264.209-.042.256.124.663-.239.72m.109.9h-.109l.031-.741a2.308,2.308,0,0,1,.078.741m-.451-.984c-.168-.231-.1.243-.265,0l-.321.531c.023-.2.267-.464.377-.707l.375.019v.135l-.165.156a3.764,3.764,0,0,1-.134.717H95.96Zm-.368.774-.086-.155.265-.508Zm.484-1.15v.112l-.43-.036v-.076ZM95.9,19.12v-.055l.234.055Zm-.054-.256c.085-.5-.9-.464-.311-.981.111.119.375.13.311.373.239.134.253.375.451.533,0,.241-.3.064-.451.075m.5.829-.019.841-.135-.023Zm-.794-1.99.054-.22c.134.023.331-.222.29.089.076.173.329.284.265.531l.108.13.057-.057c.019.155.109.278.076.453-.386-.254-.4-.762-.851-.927m.794-.453a4.158,4.158,0,0,1,.026.763V18.1l-.078-.326c-.3-.129-.277-.437-.342-.694H96l-.031.033c.1.124.3-.033.373.134m.5,2.1V19.27h.429v.114Zm.407.459.269.507-.09.155Zm.047-.6-.453-.054H97.3Zm-.4-.233c-.132-.174.178-.254.187-.375.179-.122.455-.055.566-.285.2-.2.253.119.155.23-.155-.076-.145.143-.212.222a.638.638,0,0,1-.7.209m.036-.507.1-.362-.1.362m.207-.055c.1-.223,0-.574.19-.74.02-.143.241-.269.342-.1-.21.264.041.9-.533.838m.609-.288c-.057-.308.253-.673-.156-.815-.076-.191-.274-.179-.243-.4l-.055-.052.531.052a10.973,10.973,0,0,1,.033,1.2l-.109.018m-.323-.794c-.23.088-.2.375-.419.45-.034-.264.055-.471.023-.738l.134-.086c.065.122.076.341.262.375m-.474-.422-.187-.132.3.023Zm-.1.178a3.733,3.733,0,0,1-.033.72l.033.318a4.185,4.185,0,0,0-.132.533c-.275-.013-.145-.333-.22-.512.075-.228-.025-.43.054-.629-.023-.22-.2-.43.033-.608l.266.178m-.51-.1c-.2.067-.318-.142-.5-.031.076.4-.432.3-.476.619.186.372-.6.838.129.95a.948.948,0,0,1,.189.639c.243.421-.385.685-.318,1.136a2.035,2.035,0,0,0,2.12.267c.2-.142.109-.362.033-.529a1.139,1.139,0,0,1-.134-.906,2.506,2.506,0,0,0,.476-.421,8.25,8.25,0,0,1-3.5,7.158,4.151,4.151,0,0,1-.055-.927,4.558,4.558,0,0,1,.849-.3c.045-.2.267-.075.342-.264-.01-.189.189-.386,0-.554-.518-.253,0-.794-.23-1.194.333-.207.364-.6.707-.771a.357.357,0,0,0-.265-.442c.013-.244.153-.585-.212-.642-.3-.045-.129-.407-.416-.477-.357.091-.533-.285-.776-.4V16.611a19.817,19.817,0,0,1,2.175.134l-.134.241M93.988,26.8l.321-.076.033.287c-.142-.023-.319-.045-.354-.21m.377.265.111.188-.3-.111Zm-.4-.872c.355-.145.21.219.321.36l-.321.036.057-.355Zm-1.059-3.45V22.69l.209.054h-.209m.132.8h-.023v-.357h.023Zm-.078.924.209-.4c-.054-.386.122-.763-.054-1.093l.134-.155-.023-.034c.189-.063,0-.2.132-.285-.153-.156-.375.086-.508-.112l-.257.078v.013c.218.057-.016.285.236.34l.021-.034v.355a4.357,4.357,0,0,0,.057.973c-.078-.3-.507-.07-.478-.347-.329-.062-.283-.438-.6-.551l-.034-.3.134.056.031-.155.209-.034c.088.277-.01.562.234.772l.22-.151a2.649,2.649,0,0,1-.028-.927H92.59l0-.01,0-.078a4.746,4.746,0,0,1,.639-.212c.1.081.178.246.324.246.031.2-.2.43,0,.631.1.241.3.2.494.163h.078v.551c-.221-.075-.344.258-.442.38.086.178-.21.2-.166.4-.09.135-.111.4-.321.4l-.078-.262-.1.21-.055-.424M90.7,17.522v.117l.062.088.287.13c-.008.169.223.192.132.344l.114.132h.077c-.067.176.132.257-.059.376l-.4-.111c-.264.191.013.407-.134.642.246.02.147.375.455.264l.057.055c-.189-.023-.189.256-.4.155l-.055.321c.3.111-.155.42.208.476.1.153.1.474.342.454l.244.264.266.021c0,.155-.2.155-.3.109l-.21-.052c-.275.052,0,.383-.23.474l.1.321h.113l.054.264c.279-.142.73.408.688-.19l.052-.188.264-.075v-.1l.21-.033c0-.377.376.108.376-.288l.046.189-.155.207.209.1c-.254.145-.694.145-.74.512.119.184.024.372,0,.557l.054.258-.054-.258a1.474,1.474,0,0,0-.153-.536l-.321.108c-.31.093-.266.411-.266.665.377.088.3.53.631.608l.134.212c.207-.145.331.064.429.184a1.13,1.13,0,0,0-.08.534c-2.076-1.8-2.071-4.524-2.048-7.194v-.117m2.522,3.915c.178.034.223.321.474.212.508-.143-.207-.409.114-.683l-.264-.059a8.283,8.283,0,0,1-.722.554l-.3.109-.156.057-.132.208c-.375-.178-.179.287-.342.422l-.377-.048-.055-.264h-.1c-.134-.165.23-.2.054-.352v-.078a.712.712,0,0,0,.663-.132c.088-.267-.145-.257-.262-.4-.081.023-.225.132-.244-.02l-.156-.191H91.3c.113-.365-.428-.33-.207-.687l-.113-.186.3-.163.209.108c-.054.256-.054.577.23.688.233-.046.093.432.355.22a3.061,3.061,0,0,1-.22-1.15c.254.011.353.176.453.375l.265-.153c-.122-.1-.311-.143-.365-.3a.639.639,0,0,1,.839.187h.188c.042.188-.222.31-.056.476-.1.088-.122.3-.178.453l-.055.323a1.866,1.866,0,0,0,.365-.668l.8.08v1.4c-.2.01-.4.176-.572,0l-.3.108-.08-.054.057-.4m.454,0c-.166.111-.222-.064-.3-.186l.189-.153c.065.075-.044.275.111.339m-.883-2.2.109.1c-.158.021-.277-.189-.4-.08-.253.033-.451.267-.714.187l-.1.342h0V19.8c.021.189.1.372.1.538-.288-.055-.1-.335-.1-.526l0-.041-.108-.186-.156.057-.054-.057.42-.363c.134.011.3-.011.321-.166l.209.055.132-.156c.166.156.277-.12.453-.109-.109.1.109.321-.109.376m1.147.474h.178v.111H93.8l.13-.111m-.13-.319Zm.067.592-.2-.085.2.085m-.367-.383-.021.321.27.228.358.013-.358-.013-.406-.018c-.088-.186.235-.407-.033-.575H93.1V19.5c.176,0,.389-.109.585-.057L93.5,19.6m.186,2.5.21-.114.078.134.134-.153v.4c-.178-.086-.332.176-.442-.023-.176-.056-.222-.21-.376-.3.155.055.33-.223.4.055m.059.914h.033v.034h-.033Zm0-.232c-.059-.222.2-.264.363-.233l-.344.135.111.21.233.021c-.091.031-.355.077-.363-.134m.363,1.944-.156-.052.134-.111.023.163m-.572-7.776a1.872,1.872,0,0,1,.572,0c-.243.065-.608-.047-.686.3.013.152.166.222.288.264h.4v.077c-.256-.077-.652.08-.764-.241-.076-.186.122-.266.192-.4m-.192.66-.132.036-.033-.212Zm.764-.5v.233a.837.837,0,0,1-.477-.078c-.043-.188.277-.075.4-.155Zm0-.373c-.288.085-.673-.091-.841.264-.176-.121-.354-.1-.453-.319.265-.023.864-.047,1.294-.078Zm-1.007.34c.054.178-.209.311-.077.507-.189.112-.178.489-.321.722l-.023.054.265-.223.1-.473.054.166a3.861,3.861,0,0,1,1.007,0V19.2a3.579,3.579,0,0,0-.973.134l-.111-.1c.121-.111-.034-.319.13-.433.179.114.345.453.645.248.241-.19-.355-.335-.036-.556a.374.374,0,0,0-.474-.166c-.321.026-.321.5-.665.456-.122.108-.363-.1-.373.184-.3-.352-.277.375-.608.057a.708.708,0,0,1-.267.4c-.153-.109-.275-.176-.419-.266.178-.156-.176-.422.134-.432l.285.166c-.031-.232.456-.142.191-.373l-.025-.19.025-.02.054.054c.121-.122,0-.365.078-.53-.033-.264.35-.6.02-.753-.02-.23.3-.076.4-.23.22.1.428-.231.639,0a.329.329,0,0,0,.342.23m.435,1.68.1.156c-.22.065-.209-.331-.476-.265.036-.132.235-.189.4-.156l-.02.265m-2.642-1.1v-.135h.021l.023-.3.134-.045.033-.165.285.109c-.275.456.411.61.134,1.061h-.187l.054-.189c-.142-.1-.253-.375-.5-.339m.661-.665c0,.2.254.386.025.552-.011-.2.042-.518-.21-.631-.155.067-.233-.132-.378-.031-.088.159-.257.285-.288.487v-.487c.344-.065.735-.052,1.091-.1l-.241.21m1.824,8.089a.931.931,0,0,0,.319-.583c.189-.09.1-.288.244-.4l.078.339c-.1.059-.233.1-.209.246-.024.2.209.155.308.23v.96a11.079,11.079,0,0,1-1.106-.794h.365m1.25-1.592a10.143,10.143,0,0,0,.111,1.14H94.63a8.534,8.534,0,0,0-.078-.953l-.134.046a4.55,4.55,0,0,0,.057.963l-.166.076c.1-.43-.232-1.106.321-1.273m.528-2.728.422.264c.088.453-.31.706-.477,1.061l-.23.155c.042.189-.1.289-.091.455-.2.044-.207-.2-.151-.321.165-.134.023-.331.023-.508.129-.168.065-.442.262-.551-.031-.235.3-.311.243-.554M95.165,23v.113l-.427-.036V23Zm-.453-.153V22.79l.236.057Zm.421.417v.055l-.452-.055Zm-.181.277a3.209,3.209,0,0,0,.187.924l-.088.026a6.3,6.3,0,0,1-.155-.95l-.114-.059Zm.151,0,.052.249c.081.169.225.324.194.508l-.033.036a1.23,1.23,0,0,1-.161-.544l-.052-.249m-.018-.831h-.113c.044-.2-.021-.518.264-.554l.375-.561.187.033c.125.353-.331.274-.319.583-.13.168-.376.29-.394.5m-.344-1.4a1.412,1.412,0,0,0-.244.661c.021.153.078.3-.057.419l-.13-.021V20.059a1.168,1.168,0,0,0,.829.476c-.088.287-.375.5-.4.774M94.5,23.3l-.155.246v-.988c.2.135.2.487.155.741m-.375-7.028.086-.052L93.965,16l.289-.153a.578.578,0,0,0,.164.5l-.3-.078m-.212-.111-.1-.21Zm-2.441-1.612.132.156a2.766,2.766,0,0,0,.564-.29l.552.642c-.212.176-.406-.111-.6-.166a1.623,1.623,0,0,1-1.064-.266c-.153-.067-.319.025-.479.034a2.11,2.11,0,0,0,.987-1.04h.078c-.132.277.046.686-.166.929m-1.48-3.339c.011-.187.218-.033.264-.187l.023-.583a1.47,1.47,0,0,1,.961.661l.075-.137c-.1-.194-.5-.339-.283-.6.132-.153.342-.121.5-.244l-.287.642.265.451-.113.078a3.726,3.726,0,0,0-1-.21l-.055.1a1.5,1.5,0,0,0,.981.189c-.373.288-.872.684-1.38.375l.111-.134-.054-.4m2.917-3.789c-.176-.187.1-.243.109-.4l.233-.111.076.266c.055.253-.132.531.168.665-.013.232.164.738-.267.683-.285.078-.31-.2-.4-.365.067-.266-.145-.539.078-.74m-.243.077h-.132c-.054-.212.151-.3.186-.45a.944.944,0,0,0-.318-.686c-.036-.156.065-.245.132-.354a2.111,2.111,0,0,0,1.3-.1c-.044.21.1.411-.055.585-.308.187-.453-.585-.717-.088l.033.378c-.187.174-.464.209-.43.528v.188M92.243,6.4c-.53-.332-.243-.937-.4-1.458l.207-.474.451.3.026.344a1.318,1.318,0,0,1-.31,1.082Zm.045.244h-.046V6.6h.046ZM91.956,3.86l.132-.021v.23l-.132-.209m.5.342c.186.021.12.143.134.3V4.58l-.158-.055c.168-.055.013-.212.025-.321m.109,2.817-.057.1-.209-.1Zm-.187-.168.054-.264.1.246-.156.018m1.061-1.591-.529.036-.287-.355c.241-.287.044-.75.363-1.005a1.31,1.31,0,0,0,.453,1.325m2.5-.34a1.366,1.366,0,0,1-.531.419l-.373-.13a.923.923,0,0,0,.422-.93c.173.09.36-.331.452-.044l.265.076.029.078-.316.055a1.682,1.682,0,0,0,.052.476m.816,1.724-.319.264a3.867,3.867,0,0,1-.321-.873c.088-.243-.054-.482.112-.7l.111-.153.178.241c-.111.486.684.73.239,1.217m-.02-1.009.176.344c-.044-.1-.21-.2-.176-.344m.212,1.009c.075.153-.091.274-.08.419l-.321-.02a1.194,1.194,0,0,0,.365-.4Zm-.8.375c-.01-.1.121-.21-.034-.262l.134.207v.08l-.1-.025m.054.155-.054.189c-.066-.067-.133-.21.054-.189m.046-2.122L96.167,5l.184-.078-.076-.055.076-.23-.13.041v.034l-.078-.168c.156-.043.256.093.323.192.067.161-.114.275-.223.318m-.134,1.48c-.373.189-.331.621-.287.961.334.1-.054.29-.054.443l-.267.22.111-.189c-.02-.144-.21-.287,0-.4a4.663,4.663,0,0,0-.263-.774.334.334,0,0,0-.166-.44L94.9,6.4l-.023.188c-.178,0-.178-.142-.243-.266l.078-.287a1.237,1.237,0,0,0,1.224-.075,2.717,2.717,0,0,0,.176.572M95.659,8.57l-.119-.049Zm-.23-.235-.077.218-.433-.033c-.308-.253.17-.474,0-.761L95,7.385l.265-.421c-.185.318.464.453.046.717.339.225-.213.422.109.655M94.1,8.157l.188.047H94.1Zm-.021-.165V7.916h.176l-.176.076m0-.365h.209v.134h-.209Zm-.034-.3h.266V7.46c-.067-.075-.31.078-.266-.132m.055,1.04h.289v.1l-.4.033.111-.132m.852.4.231-.052a3.975,3.975,0,0,1,.088.74c-.288.044-.529-.21-.852-.155l-.164-.641a1.476,1.476,0,0,1,.7.108m-.4-1.744L95,7.064c-.241.212-.109.575-.3.8.153.21-.233.464.055.661-.355.113-.078-.318-.345-.4l.057-.262c.065-.266-.036-.6.076-.841m1.357-1.2a1.336,1.336,0,0,1-1.271.025l-.078-.078a1.287,1.287,0,0,0,1.4-.319l-.055.373m-.851.8V6.511l.163.111-.129.287a1.109,1.109,0,0,0-.7,0l-.023.266c-.321.122-.254-.2-.455-.287-.174-.044-.461.09-.529-.09l-.132-.1V6.435c.176-.046.089.174.187.232.354.21.52-.266.851-.134.277-.021.543.445.764.089M93.484,7.6c-.023-.2.057-.352-.034-.531.166.033.265-.056.43-.02-.01.461.166,1.136-.165,1.422h-.08c.036-.287.1-.663-.151-.872m.5-1.215.188-.156A.25.25,0,0,1,94.5,6.4c-.12.034-.331-.111-.508-.021m0-.266c.034-.109-.067-.311.09-.342a.81.81,0,0,1,.419.155l.021.187a1.036,1.036,0,0,0-.529,0M92.668,5.87c.1-.178.031-.318.054-.531.464.266,1.041-.2,1.382.3a2.183,2.183,0,0,1-1.436.235M94.1,8.656l.155.662-.9-.021-.165-.585c.312,0,.6-.146.906-.055m-.419.8-.166,1.3a2.761,2.761,0,0,1-1.327-.585L92,10.3c-.067.2.176.318.3.394a1.9,1.9,0,0,0,2.091.262l1.193-.471.088-.244-.3-.1a4.3,4.3,0,0,1-1.691.573l.153-1.269c.43.1.895-.109,1.252.187.34-.055.627.233.948.243.3.134.209.464.265.707a15.55,15.55,0,0,1-2.785.828,12.4,12.4,0,0,1-2.089-.7c.188-.218.132-.629.443-.741.5.179.637-.417,1.091-.287a2.2,2.2,0,0,1,.72-.241m1.8.828.021.024a6.611,6.611,0,0,1-1.951.716,2.777,2.777,0,0,1-1.385-.608,9.29,9.29,0,0,0,1.193.5,4.258,4.258,0,0,0,2.122-.631M97.415,12.6l-.554-.433-.055.057c.122.178.332.318.367.528-.256-.02-.567.1-.764-.151a6.405,6.405,0,0,0,.21-1.041A7.682,7.682,0,0,1,97.7,12.3c-.054.143-.1.309-.285.3m.243.1c-.111.12-.1.231-.267.111l.267-.111m-1.326.034.231.153-.231-.153m.661.587c-.73.086-1.194.916-1.835,1.266a15.6,15.6,0,0,1-1.344.9,11.874,11.874,0,0,1-1.592-1.59c-.122-.248.075-.443.132-.665h.075c.5.432,1.041.776,1.537,1.2l2.177-1.46a1.523,1.523,0,0,1,.851.355m-.851-.531-2.02,1.348c-.233-.8-.274-1.712-.477-2.543a23.028,23.028,0,0,0,2.687-.849l.134.554a3.9,3.9,0,0,1-.323,1.491M91,11.784a1.377,1.377,0,0,0,.564-.42,2.84,2.84,0,0,1,.344.718,4.015,4.015,0,0,1-1.118.454l-.186-.244c.132-.123.476-.22.4-.509m.74-.42.036-.132c-.156-.024-.178-.176-.212-.288a15.932,15.932,0,0,0,1.9.629L93.95,14.2l-1.516-1.137a8.5,8.5,0,0,0-.7-1.7m.3,2.144c-.2.339.321.948-.34,1.014.088-.473-.046-1.149.551-1.455l-.21.442m5.094.8-.034.033.034-.108Zm1.612.319a1.8,1.8,0,0,1-1.436-.132c.011-.544.088-1.259-.554-1.514a.828.828,0,0,1,.8.109.74.74,0,0,0,.319.4c-.033.21-.421.455-.054.608.36.566.706-.573,1.079,0a.634.634,0,0,1-.153.531m.321-4.83.1-.971a7.766,7.766,0,0,1,.614-.75c-.12-.155-.209.086-.316.086-.355.112-.257,1.128-.779.529v-.35a2.013,2.013,0,0,1,.456-.1,1.445,1.445,0,0,1,1.538-.452c.2.055.295.218.427.373-.109-.011-.319-.1-.484-.034-.331.178.008.521-.02.8l-.137.345c-.153-.036-.288-.21-.417-.023a.93.93,0,0,1-.434.342c.21-.373.377-.772.562-1.16l-.108-.055a3.134,3.134,0,0,0-.585,1.292c-.147.054-.256.156-.422.132M97.2,9.373c.275-.067.186.287.362.4.179-.143-.043-.31-.043-.474.043-.209-.011-.466.176-.61l.432.076c.1.258-.067.456-.164.665l.088.078c.143-.21.321-.365.573-.287a.63.63,0,0,1-.176.572c-.155.212-.522.168-.508.453.319.355.862.134,1.217,0,.12-.142.339-.23.373-.416a1.8,1.8,0,0,0,.639-.512c.114.036.233.235.368.078a.835.835,0,0,0,.186-.8l-.078-.309c.166-.055.5-.069.453.208a3.234,3.234,0,0,1-.75,1.879,1.289,1.289,0,0,0,.246-.451l-.057-.046A2.837,2.837,0,0,1,98.87,10.96c.17.16.323-.05.512-.018l.528-.187a2,2,0,0,1-1.058.287l.039.267a.547.547,0,0,0,.643.24.7.7,0,0,1,.741-.052l-.057.262c-.212.179-.574-.052-.816.057a1.269,1.269,0,0,0,.771.21c.2.143.114.409.265.587v.076c-.274.121-.639.075-.88.241l-.441-.085a1.62,1.62,0,0,1-.059,1.566.5.5,0,0,0-.243-.608c-.3-.1-.539.111-.761.287l-.222-.185c-.01-.181.231-.267.222-.443-.179-.155-.464-.342-.321-.616.21-.223.862.287.685-.344l-.1-.1.178-.245c-.111-.187-.329-.256-.4-.476.122-.1.365-.165.319-.373-.121-.122-.363-.323-.1-.477l-.109-.319c-.176-.2-.528.076-.583-.233l-.323-.132c.2-.29-.2-.464-.1-.774m.593,3.261.069-.265c.132.088.386.034.4.265Zm-.706-2.255.378-.055.076.132a7.513,7.513,0,0,0-.875.193l.057.073c.508.09.862-.266,1.371-.1l-.023.288a6.679,6.679,0,0,0-1.271.109,4.654,4.654,0,0,0,1.271.155l.188.212c-.409.331-.906-.067-1.359-.1l-.076.078c.432.264,1.048.209,1.359.663l.13.186c-.684.013-1.145-.5-1.7-.8.043-.442-.22-.761-.21-1.194a.725.725,0,0,0,.684.156m-.319-.209.088.075-.088-.075m-.344-1.005.377.189c.155.285-.044.574-.166.816a1,1,0,0,1-.473-.378c.165-.173.151-.43.262-.627m-.209-.111c-.029.243-.011.574-.288.639-.178-.073-.375-.065-.507-.209a4.395,4.395,0,0,0-.054-.72c.165.091.329-.052.476,0l.373.29m1.17-1.9h.476a.566.566,0,0,0-.132.442c-.168.069-.386-.033-.51.134l.036.132c-.178.12-.531-.155-.588.21-.163.109-.354-.1-.476.086l-.054.233c-.153.033-.262-.186-.453-.155a4.831,4.831,0,0,0,.687-.953c.186-.251.419.192.583-.108.155.021.288.076.43-.021m.176-1.227c.059.2-.075.311-.1.474l-.4.166L97,6.319c.076,0,.209.189.244,0l-.168-.287a.791.791,0,0,1,.474-.109m.831-.1a1.194,1.194,0,0,1-.055-.772c.067.166-.034.476.189.583.285-.1.164-.417.339-.583-.076.287-.119.709-.472.772M98.231,3.86l.188.321.21-.134V4.015c.344.121.232.549.3.851a.908.908,0,0,0-.375.562c-.153-.166.122-.531-.233-.562A4.3,4.3,0,0,0,98.1,3.86Zm-.208.243.076.233h-.233l.156-.233m-.266-.51.188.376c-.166.031-.21.212-.264.342.22.411-.409.334-.21.741-.246.134-.5.319-.478.641l-.187-.218c.111-.344-.145-.774.21-.975.287-.265.419-.683.741-.907m-.609.191h.19c-.134.208-.2.463-.433.606a.437.437,0,0,1-.365-.209c.055-.311.344-.353.608-.4m-.782-.432h-.034v-.03h.034Zm-.124-.365.09.21h-.09Zm-.949.478c.186-.07.065-.258.023-.378.151.1.438.1.452.321.054.2.319.036.3.264.209.113.13.329.233.476a.959.959,0,0,0,.43.353,2.9,2.9,0,0,0-.089.839l-.13-.264c.086-.124.186-.265.086-.42-.3-.132-.166-.6-.529-.53l-.218-.189L95.5,4.1c-.044-.233-.432-.377-.207-.639m-.155.4.132.132c.01.409.155.973-.375,1.139a.854.854,0,0,1-.554-.21l.076-.055.021.031a1.9,1.9,0,0,0,.7-1.036m-1.116.529.021-.529c.122.068.31.122.375-.057l-.031.61-.365-.023m.264.153-.054.059h-.078V4.523l.132.02m.1-2.382v.373l-.344-.055.055-.342Zm-.266-.179.188-.034Zm.033,1.558-.076.078-.034-.231.4.021-.021.319-.264-.187m.1.187v.057h-.046V3.706l.046.021m.134-.929-.023.266-.321-.02V2.8h.344m-.179-.186.046.031-.021.047Zm.1.608h0m.265.43.43.076a.881.881,0,0,1-.132.508c-.4.024-.333-.319-.3-.585m-.023.629.189.057-.223.265ZM94.022.567l.264-.421.231.4c.011.222.135.583-.1.719a1.073,1.073,0,0,0-.031.529l-.344-.036c.233-.494-.451-.794-.021-1.191m-.529,2.972c.141,0,.265.045.417.034l-.021.552a.839.839,0,0,0-.508.186,1.56,1.56,0,0,1,.113-.772m.4.74v.432c-.13-.109-.419-.1-.375-.342l.375-.09m-.585.189c.585.627,1.414.694,2.122,1.038a1.785,1.785,0,0,0,.583-.476l-.264.445c-.694.5-1.613.031-2.231-.313a1.379,1.379,0,0,1-.4-1.17l.166-.342a1.574,1.574,0,0,0,.023.818m-1.082-.741c.256-.031.054-.4.34-.34l.132-.323c.2-.054.411.143.531-.132H93.3c.034.321-.243.564-.377.852L92.69,4.1c-.121-.233-.561,0-.473-.377m.044.476.056.243-.188-.134.132-.109m-.44-1.085a.549.549,0,0,1,.287.476l-.321.113-.023-.113.188-.186h-.188l.057-.29m-.269.61c.212.036.277.274.4.421.067.208-.109.4-.165.588-.3-.192.034-.476-.267-.688Zm-.528,1.009c-.443-.267-.181-.829-.134-1.2.153-.086.442-.065.5.132a.6.6,0,0,0,.134.608c-.141.285.244.566.111.907l-.078.289c-.021-.367-.606-.333-.528-.74m-.3,1.245h-.023V5.871h.023Zm.7.454c-.187-.046-.529,0-.642-.3.147.1.388.3.608.246l.059-.113c-.1-.086-.289-.153-.212-.306l-.077-.09-.132.222c-.168-.078-.134-.321-.323-.355.178-.143.386.055.588.088a.693.693,0,0,1,.13.61m-.4,1.294c-.078-.2-.344-.365-.057-.554l.287.021c-.021-.218.277-.132.376-.076l.266.34.187.533a1.666,1.666,0,0,1-1.059-.264m.528-1.162A.563.563,0,0,0,91.581,6c-.269-.2.031-.319.132-.5-.112.31.174.642.341.929.08.2-.031.442,0,.685.063.155.265.2.311.342L92.3,7.385c-.09.2.036.44.1.64.188-.067.054-.241.054-.376.254-.031.166.243.186.4v.075L92.3,8.2c-.021-.642-.572-1.085-.74-1.638m.6,1.938c.132-.141.71-.443.663.055l-.134.023.1-.111-.1-.1-.132.055-.076-.109-.111.109.054.044-.264.033m.4.156-.187.055-.054-.055h.241m.421.055c.122.176.078.476.243.662a1.4,1.4,0,0,1-.72.189A2.694,2.694,0,0,1,92.3,9.03a1.942,1.942,0,0,1,.686-.319M91.524,9.3a.805.805,0,0,1,.61-.243l.132.4.134.262c-.166.235-.573-.008-.764.214a.892.892,0,0,1-.111-.631M89.139,7.815l.43.024a2.381,2.381,0,0,1,.132.627l-.263.088c-.091-.254-.013-.675-.378-.715l-.055.052c.156.331.3.663.433,1.005-.047.191-.254.3-.378.456-.529-.189-.2-.8-.288-1.2l-.241-.318-.057.052c.034.3.3.72-.021.952l-.264.019-.078-.894-.432-.153a1.468,1.468,0,0,1,1.46,0M88.8,12.444c0-.187-.045-.3-.265-.287a1.327,1.327,0,0,1-.554-.076.736.736,0,0,1,.421-.665l-.209-.054c-.024-.642.838-.209,1.25-.377l.041-.134c-.176-.042-.365-.1-.551-.155a2.231,2.231,0,0,1-1.333-1,2.547,2.547,0,0,1-.111-1.4c.045-.153.213-.452.43-.3a2.758,2.758,0,0,1,.057.96c.123.135.367.069.531.046l.043-.046c.09.432.552.667.907.9.243,0,.566.264.74-.02-.1-.3-.43-.533-.266-.911l.166-.207c.288.023.067.574.4.394a.525.525,0,0,1,.134-.583l.23.189a.581.581,0,0,1-.132.606l.111.111c.208-.132.2-.365.454-.451.386.518-.93.728.018,1.038l-.283.132c-.145.718-.7-.188-.93.264-.134.2.166.531-.166.608-.065.145-.222.255-.153.453l.054.155c-.187.275-.375.653-.753.72l-.284.1m2.629-2.563-.3-.189.21-.163Zm-2.61,3.253a4.8,4.8,0,0,1,1.116-1.225.939.939,0,0,0,.875-.023c-.1.2-.476.265-.367.552.129.078.22.266.4.266-.023.178.287.365.021.486l-.292-.055c-.215.179,0,.542-.183.743-.409-.08-.718-.564-1.191-.319a.646.646,0,0,0-.212.471l.057.3a1.087,1.087,0,0,1-.225-1.194m1.252,1.38a1.372,1.372,0,0,1-.8-.13c-.144-.144-.109-.4-.075-.587.561-.551,1,.741,1.457,0v-.473a.386.386,0,0,0,.474-.166c.076-.21-.124-.319-.134-.5a2.69,2.69,0,0,0,.932-.456l.163.342c-.332.234-.776.313-.983.72l.055.057.952-.663c.251.3-.287.528-.421.794l-.189-.033c-.43.428-.785,1.07-1.436,1.092m-2.6-.318v-.212h.057l-.057.212m-.74-1.248c.023.265-.318.344-.507.451-.078-.365.342-.274.507-.451m.023.319v.057l-.078.041Zm-.74.233-.112-.078.168-.057.132.222.264-.111-.052.455a.367.367,0,0,0-.511.189c-.021-.233.244-.377.112-.619m-.476-.311.1-.266.319.21v.1l-.419-.044m.321.4v.21c-.145-.08-.451-.01-.531-.188l.021-.21c.311-.108.178.357.51.188m.134-.7.232-.02-.1.232-.13-.212m-3.349.4h.034v.075h-.034Zm.132,1.269.055.109a3.038,3.038,0,0,0,.476-1.248l-.078-.077a5.077,5.077,0,0,0-.419,1.138c.065-.585.461-1.118.4-1.8H83.07c-.076.452-.254.862-.3,1.327l-.266-.132.08-.212.054.052a2.726,2.726,0,0,0,.321-1.17L82.9,12.5l-.187.376.09-.4-.246-.168.267-.232a.351.351,0,0,0-.267-.43c-.109.011-.275-.1-.344.055.013.155.179.143.27.209h.052l-.033.3c-.1-.207-.43-.3-.344-.561a3.165,3.165,0,0,1,.852-.288.97.97,0,0,1-.243-.552l.718.661.055-.055a4.823,4.823,0,0,1-.567-.7c.3.034.355.4.621.564.067-.155-.109-.342-.165-.507l-.057-.4.341.225.013-.034.168.1c.652.187,1.463-.016,1.976.489l-.265-.08a3.015,3.015,0,0,1,.342.474.692.692,0,0,1,.718.134v.189l-.451-.113-.057.156c.122.156.454.132.4.321a.461.461,0,0,1-.235.453c-.218-.011-.705.178-.717-.153-.065-.168.135-.265.023-.378-.166.044-.223.233-.342.344l.243.319a.533.533,0,0,0-.189.419c-.155-.186-.675-.02-.531-.394a4.541,4.541,0,0,1,.266-.533l-.052-.043c-.31.277-.619.618-.455,1.028-.246.13-.033.464-.311.585.091.174-.065.319-.086.473.1.178.365.2.267.376-.135.036-.344-.086-.421.1-.233.044-.187-.264-.4-.287-.289.01-.464.3-.774.264-.109.046.023.213-.132.213a2.271,2.271,0,0,1,.055-.454M85.186,13.5v.086c-.176.112-.377.21-.562.044-.153-.188.166-.266.185-.4.09.178.545-.086.377.267m.023.264v.264L85,13.991l.1-.22Zm-.373.19c-.156-.036-.345.2-.422,0l.155-.212.267.212M83.15,15.627l.1-.21-.1.21m.494.354v-.132l.09.024-.09.108m.244-.034-.052-.231h-.344c-.156-.088.031-.3-.134-.4l-.132-.244-.055-.13L83.1,15l.055.264c-.067.253-.321-.078-.4.188l-.135-.134c.033-.188.319-.156.4-.375.277.057.518-.453.717-.078l.344.158c.109-.29.419.021.552-.269l.108-.1-.163-.111.056-.134-.287-.076c.041-.339.311-.08.477-.191l-.215.212h.21l.134-.153-.189.394.055.059c.2-.1.156-.474.422-.453a.39.39,0,0,0,.168-.4l.319.1v.265l-.265-.08-.054.057.342.155a.426.426,0,0,0,.4-.233c.132.021.365.088.453-.078-.079-.176.132-.267.023-.427.132-.036.228-.146.4-.1.1.142.112.365.321.422.076-.169-.13-.332-.187-.422.134-.13.288.021.451-.033.236.442-.417.309-.339.718l-.212.319.1.1a2.4,2.4,0,0,1-.552.134l.155-.29-.4-.241-.189.319.376.212-.87.241.1-.345-.422-.262-.265.474L85.5,15l-.895.474.132-.321c-.132-.122-.318-.09-.474-.13a1.217,1.217,0,0,0-.22.507l.352.076Zm2.066.743h.21l.034.849a2.49,2.49,0,0,1-1.063,0v-.794l.232-.1V15.8c.179.065.212-.1.3-.188l-.246-.155c.088-.168.132.12.3.023.031.132-.112.308.1.319l.079-.034a3.816,3.816,0,0,0,.055.93m-.874-.631c-.209-.057-.476,0-.686-.057a4.768,4.768,0,0,1,.875-.507l.1.111-.176.055v.9h-.055c-.021-.166.046-.363-.055-.5m-.132.187v1.292a1.547,1.547,0,0,1-.453.054l-.02-1.325.261-.052.059.073Zm.742-.929.057-.054-.023.054Zm-1.747.8a6.13,6.13,0,0,1,3.417-1.361,6.459,6.459,0,0,0-3.417,1.361m.319-.7.046-.21.188.023c0,.166-.067.233-.233.188m1.273-.608-.243-.055.075-.209.189.187-.021.077m1-.319-.13-.023V14.39l.13.045ZM80.4,19.467l.122-.393a1.5,1.5,0,0,1,.319.7l-.422.587L80.39,19.8l.132.266L80.574,20c-.088-.165-.021-.419-.156-.554l-.02.02-.033.116.033-.116m.155-.66c.365-.274.994-.572,1-1.08l.29-.153a.7.7,0,0,1,.474.13,6.272,6.272,0,0,1-1.351,1.933,3.3,3.3,0,0,0-.417-.83m-.43,1.04.076.023c-.023.265.176.5.033.753a.9.9,0,0,0-.321-.753,1.423,1.423,0,0,0,.265.829l-.054.055a1.127,1.127,0,0,1-.364-.885l.364-.023m-.61,1.326-.243.057a.722.722,0,0,1,.4.585,1.231,1.231,0,0,0-.288-.4l-.21.044a.41.41,0,0,1,.292-.4c.274-.065.117-.451.241-.662l.318.507-.086.155a1.139,1.139,0,0,0-.231-.474l-.034.378a.439.439,0,0,1,.091.582.531.531,0,0,0-.246-.375m1.748,5.7c.1-.168-.114-.487.241-.4l.108-.132c.126.264-.083.4-.241.551Zm.639,1.59-.076-.344h.287a.228.228,0,0,1-.21.344m.95-.076.113-.3c.176.01.054.241.132.35l-.244-.052m.794-.267-.362-.165c.054-.1.265-.244.342-.078l.019.243m-.019-.66-.188-.169.188-.043Zm-.077-.344-.135-.091.189-.042-.054.134m5.8-2.521.165-.264-.165.264m.091-.529a.56.56,0,0,0-.269.5h-.129l-.644-.587-.054.054.4.508a5.35,5.35,0,0,1-.587.212l-.627-.608-.057.055a3.63,3.63,0,0,1,.451.661h-.737a2.12,2.12,0,0,0-.619-.585l-.046.055a2.524,2.524,0,0,1,.367.554c-.522.174-.886-.313-1.385-.345a.873.873,0,0,1-.094-.828.959.959,0,0,0,.285-1.026.616.616,0,0,0-.662-.266c-.1-.141-.033-.355-.057-.533l.033.024a1.869,1.869,0,0,0,.363-1.082l-.043-.057a3.858,3.858,0,0,0-.354.908,4.957,4.957,0,0,0,0-.886c-.577.841.233,1.823-.078,2.762a4.8,4.8,0,0,1-1.931,2.2c-.113.223-.344.411-.209.7.184.287.592.067.816.287l-.344.189.02.189-.129-.091.165.4.342.111v.134a.375.375,0,0,0-.474.208l-.187-.453-.134.164.151.323-.3.209-.034.187-.321.023c-.023-.145-.023-.384-.233-.419a.391.391,0,0,0-.452.209c-.166-.1-.089-.287-.08-.43.08-.076.223-.186.212-.344l-.055-.055-.232.223-.036-.489.19-.151c.057.044-.011.3.155.375l.055-.054a7.853,7.853,0,0,1,.209-2.257l-.043-.052c-.531.406-.08,1.256-.751,1.566-.089-.321.241-.464.375-.719l-.109-.164-.266.451c-.234-.306.175-.541.266-.818l.054-.562c.3-.033.618.088.872-.1a.738.738,0,0,0,.3.5l-.06-.285c-.042-.29.08-.543.025-.8l-.478-.929a2.621,2.621,0,0,1-1.823.451,2.1,2.1,0,0,0-.109.552c-.088.474-.64.3-.929.533-.109-.222.235-.257.288-.453.124-.309.08-.687.352-.93.2.046.378.3.573.165-.052-.184-.352-.174-.492-.318a1.362,1.362,0,0,1-.265-1.248c.406-1.5,1.965-2.531,2.653-3.925.085-.207-.158-.319-.27-.4a.8.8,0,0,0-.637.025.565.565,0,0,0-.231.487c-.277.429-.732.528-1.066.836-.339.09-.6-.13-.9-.209A6.7,6.7,0,0,0,81.3,17.344l-.08-.078c-.507.764-1.467.474-1.944,1.271l-.287.033c-.2-.52.463-.631.529-1,.474-.9,1.59-.265,2.278-.643a1.612,1.612,0,0,1,1.189.473c.081.864-.539,1.494-1.026,2.157A6.339,6.339,0,0,0,80.5,21.915a.938.938,0,0,0,.473.906c1.441-.179,1.3-1.789,1.936-2.685L84.1,18.144c-.19-.287.021-.515,0-.836l.111-.453-.3.318a4.161,4.161,0,0,0,.134-.927l.243-.166.023,1.647h2.764v-1.7a2.071,2.071,0,0,0-.82-.023c-.1.147-.043.355-.054.533h-.113v-.874l-.187-.055h-.043l.23-.265-.1-.155a8.4,8.4,0,0,1,1.422-.243c.344.21.763.564,1.138.375a20.957,20.957,0,0,0,2.211-.528c.51-.067.784.44,1.351.264l.109.044a15.015,15.015,0,0,1-2.9.166,1.792,1.792,0,0,0-.818.188l.043.044h.929a2.374,2.374,0,0,0-.5.189c-.055.363.275,1.1-.3,1.137l-.134.134a3.425,3.425,0,0,0-.077-.93L88.4,15.98l-.054.044a2.666,2.666,0,0,0,.109,1.59,9.137,9.137,0,0,1,1.162,2.047,11.489,11.489,0,0,1-.078,2.1l-.34.1-.246-.135c.067-.165.246-.318.13-.528l-.039-.046L88.8,21.7c-.5-.243.275-.421.02-.686l-.285.342L88.4,21.04l.342-.319-.075-.076-.246.209c-.1-.275.113-.75-.34-.983,0-.165.119-.409,0-.5l-.189.342c-.174-.12-.078-.411-.174-.508l-.114.241c-.174-.207.124-.526-.052-.717-.1.178-.1.443-.342.51a2.775,2.775,0,0,1-.587-.907c-.089.222.054.474.077.722a2.345,2.345,0,0,1-.895.639,2.165,2.165,0,0,0,.265-.508l-.076-.076c-.3.319-.477.738-.776,1.082a.343.343,0,0,0,.191.4c.56.254,1.2-.29,1.644.166a2.3,2.3,0,0,0-.508.1c.344.145.422.565.642.8a.858.858,0,0,0-.09-.476V21.04c.153.706.577,1.684-.155,2.255l.155.246c.4.018.743-.391,1.1-.168a.707.707,0,0,0,.685-.367l.376.1.287-.054-.21.186c.055.354.639.155.552.608l-.21.165.132.235c-.186.088-.241-.132-.362-.178M86.4,17.537V16.246l.21-.089.321.089v1.346c-.178-.018-.388.047-.531-.054m2.728.776a2.482,2.482,0,0,1-.606-1.116c.157-.156.3-.354.533-.342Zm-1.9,2.386c-.454-.7-1.237,0-1.821-.3-.1-.554.585-.5.87-.8.233-.12.4-.407.663-.442l.244.285.178-.108c.129.486,1.279.719.663,1.283.086.344-.424.825.086.948l.02.288-.241.3a2.485,2.485,0,0,0,.776-.166c.108.178.3.34.5.269.122-.1.057-.289.269-.289l.176.95c-.233-.021-.365-.376-.631-.231-.419.086-.233.551-.7.528-.4-.308-.728.166-1.139.156.011-.156.178-.319.264-.474.258-.732-.119-1.5-.186-2.2m1.117.9-.056-.024.109-.054-.054.078m.264.109c.01.155-.189.121-.287.186.076-.065.153-.35.287-.186m-.363-.287-.166-.057.111-.165.155.088-.1.134m-.114-.445h.044v.044h-.04Zm.135-.218-.077.021.055-.132.021.111m.795,1.193L89,22.027h-.076l.132-.078m.585,1.347v.021l-.134-.077.134.055m.367.872-.134-.132.134.059ZM90.2,23.9c-.365-.178-.145-.6-.4-.818-.09-.386-.132-.8-.186-1.194.176-.232.108-.564.165-.851.3,0,.541.556.852.156-.08-.2-.267-.4-.191-.631-.044-.253-.044-.52-.264-.7l-.377.09a4.468,4.468,0,0,0-.5-1.384l-.134-2.783a13.15,13.15,0,0,1,3.362-.476c.428-.264.717.288,1.061.476.076.187.033.453.262.552l.223.076a26.875,26.875,0,0,0-3.537.354c-.052,3.04-.243,6.278,2.257,8.3a6.636,6.636,0,0,0,1.281.948c-.189-.088-.288.134-.354.243a1.147,1.147,0,0,0,.034.818c.264.114.464.455.794.323l.134-.112c-.332-.321-.134-.861-.376-1.216,2.928-1.889,3.922-5.081,3.746-8.5-.088-.265.062-.619-.134-.829a21.171,21.171,0,0,0-3.292-.288,1.878,1.878,0,0,1-.243-.741v-.054l.7-.476a16.053,16.053,0,0,1,4.162.574A22.487,22.487,0,0,1,99.193,20a1.654,1.654,0,0,0-.454.906c.044-.373.169-.82-.073-1.115a.357.357,0,0,0-.51.209,1.136,1.136,0,0,0-.187.774c.254.124.285.443.564.508-.31.163-.181.461-.134.706a.871.871,0,0,0,.365.533c-.42,2.253-2.532,4.152-4.53,5.126A8.041,8.041,0,0,1,90.2,23.9m-.233-3.238.288-.076a.827.827,0,0,0,.187.529l-.319-.1.188-.052c-.067-.169-.363-.047-.344-.3m.265-.209h-.3v-.4c.275-.1.209.164.3.3Zm8.4-.1-.287-.059.076-.373c.3-.036.189.23.21.432m-.078.531.078.21-.287-.19.208-.02m-.262-.353.319.031-.057.267c-.12-.036-.3-.122-.262-.3m1.11,2.023c-.069-.272.319-.223.373-.45.046-.278-.13-.642.156-.82a1.742,1.742,0,0,1-.054-.487,6.189,6.189,0,0,1,1.138-1.082l.165-.287c.112.155.3.132.451.209a1.416,1.416,0,0,0,.445.422c.21.33.539.342.8.564.178.23.484.253.619.5-.554.223-1.094-.388-1.68-.02-.222.219-.564.427-.631.738a5.6,5.6,0,0,1,.156,2.311,11.224,11.224,0,0,1-1.615-.21c-.232-.112-.241-.355-.4-.51a3.135,3.135,0,0,0-.644-.02,3.912,3.912,0,0,0,.244-.854c.156,0,.357.233.478,0m-.344-.3.1-.048v.212l-.1-.164m.4-.155.052-.114.023.114Zm4.165.108a4.424,4.424,0,0,0-.189.874c-.064-.155,0-.443-.054-.583a1.41,1.41,0,0,0-.191.715c-.054-.122.011-.441-.155-.43a1.912,1.912,0,0,0-.111.508c-.243.088-.572.209-.629.51l-.109.042c.122.355.057.786.34,1.061l-.078.166-.818.076-.085-.13c-.08.163-.246.13-.4.13-.09-.064.134-.13-.021-.189-.143.267-.421.078-.606.059l-.059-.132-.4.02-.188-.044c-.367.025-.619-.451-.987-.185-.183-.08-.1-.312-.227-.432l-.036-.153.223.021.1-.155H98.73l.078-.135.265-.077-.265-.055c.075-.22.3-.076.451-.076-.218.067.057.275.135.4.4.479,1-.02,1.481.287.209-.043.494.114.618-.132a1.505,1.505,0,0,1,.156-.76,5.039,5.039,0,0,0-.214-1.382.217.217,0,0,1-.052-.342l.289-.266c.551-.033,1.2-.057,1.755-.091l.231-.209c.784.134.21,1.017.269,1.512l-.237.212c-.033-.212.069-.5-.075-.631m-1.194,1.956a.966.966,0,0,1,.137.466,2.507,2.507,0,0,0-.137-.466m-3.823.456.073.075-.1.033Zm-.057-.842H98.6v.044h-.05Zm3.218-2.472.264-.135h.132Zm-3.031.9.114.134-.114-.134m-.188,2.167v.054h-.076l.076-.054m-.153-.156.076-.055v.08Zm-13.16,4.22.088.024a6.512,6.512,0,0,1,.476,1.17,2.05,2.05,0,0,1-.991.258c-.147-.186-.344-.331-.377-.582.3-.178.874-.258.874-.745Zm-.4.533a.94.94,0,0,0-.609.284,1.012,1.012,0,0,0,.321.642c-.321-.075-.74-.021-.909-.375a.709.709,0,0,1,.193-.662,1.734,1.734,0,0,1,1.245-.375.381.381,0,0,1-.24.486m-.477-.619.451-.023a1.349,1.349,0,0,0-1.323.818c.031-.433.518-.676.872-.8m15.117,5.656a9.45,9.45,0,0,1-1.007-.373,11.9,11.9,0,0,0-7.613-.081l-1.558.534c-.631-.631-.619-1.571-1.038-2.311l.243.209a8.411,8.411,0,0,0,1-.474,14.551,14.551,0,0,1,10.554.187c.153.047.253-.088.318-.187.023-.2-.132-.333-.241-.476.088-.021.333.179.342.365a9.574,9.574,0,0,1-1,2.607M88.244,31.7a.774.774,0,0,1,.174-.531,1.054,1.054,0,0,0-.174.531m1.589-.9.235.186v.187A3.73,3.73,0,0,0,89,31.6l-.1-.156a2.53,2.53,0,0,0,1.084-.453Zm8.884-.025a1.48,1.48,0,0,1,1.457.553l.046.166a1.254,1.254,0,0,1-.738-.189l.112-.186a8.343,8.343,0,0,0-.876-.344m-.264-.031a1.735,1.735,0,0,0,.872.428v.057l-.906-.266c-.111-.33.254-.487.507-.374a.514.514,0,0,0-.472.155m-.222.163a14.637,14.637,0,0,0-7.955.189.7.7,0,0,0-.287-.43,15.679,15.679,0,0,1,8.429-.189.634.634,0,0,0-.188.43m-9.513.454.13.31-.4.111c-.1-.21.046-.4.155-.552a1.061,1.061,0,0,1,1.172-.266c-.3.22-.753.155-1.061.4m15.645-.885-.927,1.548a.939.939,0,0,1-.7.021A16.261,16.261,0,0,0,91.5,30.111a23.647,23.647,0,0,0-5.912,2.144,1.031,1.031,0,0,1-.62-.1,26.694,26.694,0,0,0-1.535-2.5c-.067-.153.021-.3.033-.452a.586.586,0,0,0,.132.528A1.937,1.937,0,0,0,85.347,30c.4-.055.665-.408,1.04-.5a19.947,19.947,0,0,1,16.516.23,1.708,1.708,0,0,0,1.691.077,1,1,0,0,0,.4-.44v-.355c.277.632-.486.95-.631,1.458m-1.1-1.766c.135.453,1.2.145.647.8l-.246.307a3.2,3.2,0,0,1-1-.364,3.758,3.758,0,0,1,.566-1.193l.039.453m1.517.207v.533a1.432,1.432,0,0,1-.929.4c-.01-.178.231-.178.241-.34a1.508,1.508,0,0,0,.135-.433c-.244-.355-.973-.143-.849-.74a1.482,1.482,0,0,1,1.4.583m-1.214-.769a1.486,1.486,0,0,1,1.347.606l.054.188a1.487,1.487,0,0,0-1.4-.794m1.512.583a1.533,1.533,0,0,0-1.145-.743,1.242,1.242,0,0,0-.875.191,5.79,5.79,0,0,0-.554,1.159,21.631,21.631,0,0,0-3.29-1.134,22.178,22.178,0,0,0-4.665-.554,9.6,9.6,0,0,0,3.635-3.236c-.122.266.331.142.232.421.21.215.464-.078.718-.057a5.7,5.7,0,0,0,3.337.453c.2-.088.243-.3.3-.474.078-.445-.631-.852-.111-1.2a2.4,2.4,0,0,0,1.274-.738,5.638,5.638,0,0,0-.081,1.858,6.436,6.436,0,0,0,1.915,1.533,1.412,1.412,0,0,1,.4,1.481c-.169.174.02.541-.269.617-.287.109-.652.1-.816.421m.365.342h-.134l.134-.132Zm.132.186v-.108h.023l-.023.108m.287.026h-.1l.1-.1Zm.587-.044H106.4l.033-.114.021.114m.34-.168-.1-.076.1.057Zm1.515-6.969c.132.275-.134.461-.078.738-.264.287-.3.74-.772.74-.336.235-.971-.411-1.009.106v.159h.034v.09h-.034v-.249l-.05-.072a5.2,5.2,0,0,0-.179,1.346c.033.166.057.367.233.455l.034-.025c.166.222.342.578.631.686.165.455-.189.818-.156,1.271l.186,1.305-.052.1-.266-.044-.111.075-.1-.165-.054.321c-.179-.085-.28.115-.336.228l-.01.031.08.137-.164-.052.085-.085v-.016l.008-.015-.008-.3-.086-.057-.078.383L105.922,29l-.233.076.287-.5-.054-.052a.561.561,0,0,0-.321.394l-.31-.132h-.057c.168-.243.542-.23.8-.375l.209-.263c.086-.541.333-1.318-.109-1.777a6.481,6.481,0,0,0-1.051-.742c-.388-.487-1.326-.787-1.115-1.559a8.529,8.529,0,0,1,.207-1.46l-.054-.055c-.109-.517.531-1.388-.344-1.535-.243-.046-.421-.274-.639-.375-.069-.1.054-.3-.1-.345l-.078.214c-.186-.144-.318-.222-.3-.476l-.076-.076-.078.264c-.253-.01-.067-.3-.21-.4l-.088.153-.231-.186-.078-.265-.088.055v.054c-.09-.176-.31-.176-.344-.4l-.052.155c-.288-.189.01-.588-.155-.852a.562.562,0,0,0-.113.566l.033.021c-.132.663-.939.808-1.227,1.382a.575.575,0,0,0-.231.606c.067.209-.263.344-.111.587v.111l-.187.021-.1.153c-.01-.244.135-.518-.033-.738-.174.186-.111.585-.045.828h.045l-.264-.031c-.137.241-.246-.134-.421.031-.033-.189-.155-.375-.113-.562.6-.409.345-1.173.929-1.592.376-.3.432-.728.7-1.082a2.417,2.417,0,0,1,.318-.854,3.242,3.242,0,0,1-.187.587l.057.055c.419-.508.4-1.248.685-1.833l-.109-.054-.363.87a3.65,3.65,0,0,1,.74-1.686l-.113-.036a1.627,1.627,0,0,0-.5.642c0-.168.109-.355,0-.51l.665-.419,1.028.287.243.353c-.443,0-.155.631-.243.952h-.1c-.025-.178.042-.389-.057-.531-.288.065-.61-.146-.8.078V18.39a1.148,1.148,0,0,0,.716,0c.29-.057.554.109.876.054H104.1l.055-.054V16.82c.125.075.334.109.345.3-.178.285.12.587-.057.872l-.055-.073-.075.055a1.943,1.943,0,0,0,.608,1.4,10.382,10.382,0,0,1,.906,2.255c.2.461.474,1.18,1.1,1.193.21-.045.482-.034.561-.3a3.732,3.732,0,0,0-.8-2.224,2.912,2.912,0,0,1,.984-3.08c.43.849-.442,1.424-.484,2.21l.055.045a5.509,5.509,0,0,0,.529-1.217c.232.709-.265,1.26-.4,1.879l.077.088a2.489,2.489,0,0,0,.321-.776c.274.414-.146.776-.187,1.175l.052.042a1.85,1.85,0,0,0,.345-.762c.13.43-.185.741-.29,1.116l.055.044c.179-.132.234-.386.344-.573.168.277-.057.684-.209.973l.055.055a1.278,1.278,0,0,0,.308-.531c.09.34-.145.539-.264.8l.052.054.3-.4c.043.308-.265.486-.354.74l.052.057.344-.4-.077.267m-1.856,2.063h-.021v-.186h.021ZM102.07,16.93l-.023,1.305a2.93,2.93,0,0,1-.531.044l.025-1.372.187.023.054-.109.288.109" transform="translate(-50.657)" fill="#fff"/>
      <path id="Path_15" data-name="Path 15" d="M117.664,8.793a1.1,1.1,0,0,0-.533.7c.212-.189.389-.432.588-.642Z" transform="translate(-75.282 -5.651)" fill="#fff"/>
      <path id="Path_16" data-name="Path 16" d="M125.985,9.973a2.045,2.045,0,0,1-.529-.5V9.66a.613.613,0,0,0,.529.308" transform="translate(-80.633 -6.092)" fill="#fff"/>
      <path id="Path_17" data-name="Path 17" d="M113.106,10.125a.986.986,0,0,0,.1.883l.166.474.021-.034c-.132-.417-.109-.9-.264-1.323Z" transform="translate(-72.658 -6.508)" fill="#fff"/>
      <path id="Path_18" data-name="Path 18" d="M130.265,11.028v-.166a2.464,2.464,0,0,0-.663,1.3c.264-.342.419-.772.663-1.139" transform="translate(-83.298 -6.981)" fill="#fff"/>
      <path id="Path_19" data-name="Path 19" d="M134.112,12.218c-.031-.088-.031-.264-.186-.243a.279.279,0,0,0-.134.375Zm-.186-.109.057.088-.081.021Z" transform="translate(-85.975 -7.695)" fill="#fff"/>
      <path id="Path_20" data-name="Path 20" d="M115.942,13.091a2.916,2.916,0,0,0-.076,1.3,2.082,2.082,0,0,0,.134-1.3Z" transform="translate(-74.434 -8.414)" fill="#fff"/>
      <path id="Path_21" data-name="Path 21" d="M127.873,16.107h.034a3.323,3.323,0,0,0-.134-1.383,3.687,3.687,0,0,0,.1,1.383" transform="translate(-82.101 -9.463)" fill="#fff"/>
      <path id="Path_22" data-name="Path 22" d="M130.549,17.124v-.1l-.168-.132-.1.057Z" transform="translate(-83.736 -10.857)" fill="#fff"/>
      <path id="Path_23" data-name="Path 23" d="M115.14,17.585l-.287-.319.209.718c.146-.089.055-.265.078-.4" transform="translate(-73.818 -11.097)" fill="#fff"/>
      <path id="Path_24" data-name="Path 24" d="M118.7,20.065l-.054-.042c-.054.34-.242.86.054,1.137.057-.277-.021-.753,0-1.1" transform="translate(-76.184 -12.869)" fill="#fff"/>
      <path id="Path_25" data-name="Path 25" d="M127.406,20.98c.388-.275.875-.4,1.274-.632l-.056-.055a2.258,2.258,0,0,0-1.248.665Z" transform="translate(-81.868 -13.042)" fill="#fff"/>
      <path id="Path_26" data-name="Path 26" d="M114.126,20.926a2.723,2.723,0,0,0-.851-.477,1.259,1.259,0,0,0,.851.477" transform="translate(-72.804 -13.143)" fill="#fff"/>
      <path id="Path_27" data-name="Path 27" d="M124.068,21.54a2.323,2.323,0,0,0,.108-.872l-.13.3c.033.2-.21.466.023.575" transform="translate(-79.675 -13.284)" fill="#fff"/>
      <path id="Path_28" data-name="Path 28" d="M111.675,24.07a.545.545,0,0,0-.06.587c.137-.124.083-.4.06-.587" transform="translate(-71.701 -15.47)" fill="#fff"/>
      <path id="Path_29" data-name="Path 29" d="M132.176,24.73l-.134-.129c.067.163,0,.43.055.528Z" transform="translate(-84.866 -15.812)" fill="#fff"/>
      <path id="Path_30" data-name="Path 30" d="M104.19,25.7a8.041,8.041,0,0,1-.4-.794l-.025.209c-.029.477.421.821.8.984.021-.184-.264-.21-.376-.4" transform="translate(-66.694 -16.006)" fill="#fff"/>
      <path id="Path_31" data-name="Path 31" d="M132.929,26.575l.1-.34-.363.454.021.021Z" transform="translate(-85.267 -16.861)" fill="#fff"/>
      <path id="Path_32" data-name="Path 32" d="M107.527,27.582v-.057a3.019,3.019,0,0,1-1.273-.6l-.033.02a1.441,1.441,0,0,0,1.3.64" transform="translate(-68.271 -17.303)" fill="#fff"/>
      <path id="Path_33" data-name="Path 33" d="M134.3,28.469c.165-.076.362-.275.342-.442-.334.4-.831.4-1.242.608a1.21,1.21,0,0,0,.9-.166" transform="translate(-85.738 -18.014)" fill="#fff"/>
      <path id="Path_34" data-name="Path 34" d="M93.454,29.96v-.034a2.289,2.289,0,0,1-.764-.187l-.179-.062-.019.044a1.01,1.01,0,0,0,.963.239" transform="translate(-59.446 -19.073)" fill="#fff"/>
      <path id="Path_35" data-name="Path 35" d="M150.461,31.218l-.155.262a.587.587,0,0,0,.1.4,1.16,1.16,0,0,0,.055-.662" transform="translate(-96.6 -20.064)" fill="#fff"/>
      <path id="Path_36" data-name="Path 36" d="M106.713,31.272a8.706,8.706,0,0,0-1.02.267.876.876,0,0,0,.622-.024Z" transform="translate(-67.931 -20.099)" fill="#fff"/>
      <path id="Path_37" data-name="Path 37" d="M94.593,32.235a.756.756,0,0,0,.72-.323,1.634,1.634,0,0,0-1.538-.552l-.078.046c.376.2.573.551.9.829m.075-.477.033.344c-.2.011-.274-.222-.376-.344Z" transform="translate(-60.221 -20.154)" fill="#fff"/>
      <path id="Path_38" data-name="Path 38" d="M107.6,32.417l-.033-.034a5.25,5.25,0,0,0-.816.512l.373-.078a1.3,1.3,0,0,0,.476-.4" transform="translate(-68.611 -20.813)" fill="#fff"/>
      <path id="Path_39" data-name="Path 39" d="M135.423,33.929c-.155-.034-.355-.153-.477-.041a6.571,6.571,0,0,0,1.251.415,4.542,4.542,0,0,0-.774-.374" transform="translate(-86.732 -21.75)" fill="#fff"/>
      <path id="Path_40" data-name="Path 40" d="M146.482,34.3c.231-.065.528.034.738-.075-.2-.168-.351-.466-.681-.42-.367-.011-.088.287-.166.453l-.288-.134.134.153a.861.861,0,0,0,.816.189c-.122-.132-.386-.067-.552-.166m.155-.285.264.109h-.285Z" transform="translate(-93.891 -21.725)" fill="#fff"/>
      <path id="Path_41" data-name="Path 41" d="M93.476,35.464a7.314,7.314,0,0,1-.169-1.059h-.018c-.056.342-.156.847.187,1.059" transform="translate(-59.921 -22.113)" fill="#fff"/>
      <path id="Path_42" data-name="Path 42" d="M109.261,34.772l-.287.265a3.578,3.578,0,0,1,.641-.187Z" transform="translate(-70.04 -22.349)" fill="#fff"/>
      <path id="Path_43" data-name="Path 43" d="M149.791,34.975a.9.9,0,0,0,.588.187.7.7,0,0,0-.588-.187" transform="translate(-96.274 -22.474)" fill="#fff"/>
      <path id="Path_44" data-name="Path 44" d="M145.7,35.236l-.3-.034c.222.034.331.377.533.352Z" transform="translate(-93.453 -22.625)" fill="#fff"/>
      <path id="Path_45" data-name="Path 45" d="M91.888,36.1l-.188.342a.7.7,0,0,0,.111.642,4.378,4.378,0,0,0,.076-.984" transform="translate(-58.921 -23.202)" fill="#fff"/>
      <path id="Path_46" data-name="Path 46" d="M108.848,36.744l.4.132a.705.705,0,0,0-.772-.34l-.4.233c.243.033.521-.179.774-.024" transform="translate(-69.461 -23.471)" fill="#fff"/>
      <path id="Path_47" data-name="Path 47" d="M149.931,37.549a1.2,1.2,0,0,0-.267-.551l-.033.022a.637.637,0,0,0,.3.529" transform="translate(-96.168 -23.779)" fill="#fff"/>
      <path id="Path_48" data-name="Path 48" d="M133.066,37.2l-.186.13h.818a1.2,1.2,0,0,0-.632-.13" transform="translate(-85.405 -23.907)" fill="#fff"/>
      <path id="Path_49" data-name="Path 49" d="M153.5,38a.509.509,0,0,0-.09-.477c.034.122-.065.388.09.477" transform="translate(-98.599 -24.115)" fill="#fff"/>
      <path id="Path_50" data-name="Path 50" d="M142.005,38.721l.023-.4Z" transform="translate(-91.269 -24.631)" fill="#fff"/>
      <path id="Path_51" data-name="Path 51" d="M101.357,38.761a.831.831,0,0,0-.489-.222.654.654,0,0,0,.489.222" transform="translate(-64.83 -24.77)" fill="#fff"/>
      <path id="Path_52" data-name="Path 52" d="M91.07,39.159a1.168,1.168,0,0,0-.218.663.82.82,0,0,0,.218-.663" transform="translate(-58.39 -25.168)" fill="#fff"/>
      <path id="Path_53" data-name="Path 53" d="M93.267,39.227l-.034.686c.121-.168.067-.444.075-.686Z" transform="translate(-59.923 -25.212)" fill="#fff"/>
      <path id="Path_54" data-name="Path 54" d="M142.9,40.135c.2.033.342-.142.476-.233-.156.011-.409.033-.476.233" transform="translate(-91.845 -25.646)" fill="#fff"/>
      <path id="Path_55" data-name="Path 55" d="M144.334,41.833l-.132-.321-.342.222.153.342Zm-.233-.13.046.05-.1.134.052-.184" transform="translate(-92.462 -26.681)" fill="#fff"/>
      <path id="Path_56" data-name="Path 56" d="M91.836,41.667a1.043,1.043,0,0,0-.243.4l.055.034Z" transform="translate(-58.869 -26.78)" fill="#fff"/>
      <path id="Path_57" data-name="Path 57" d="M146.862,42.65l-.041-.267c-.047-.274-.411-.044-.59-.021l.236.507Zm-.342-.233.191.132-.191.134c-.02-.078-.163-.254,0-.265" transform="translate(-93.986 -27.155)" fill="#fff"/>
      <path id="Path_58" data-name="Path 58" d="M100.323,43l-.43-.5c-.067.277.233.476.43.5" transform="translate(-64.197 -27.314)" fill="#fff"/>
      <path id="Path_59" data-name="Path 59" d="M91.97,43.022a.556.556,0,0,0,.428-.244.475.475,0,0,0-.428.244" transform="translate(-59.111 -27.494)" fill="#fff"/>
      <path id="Path_60" data-name="Path 60" d="M103.832,44.205a4.529,4.529,0,0,0-.8-1.119c0,.257.21.477.321.72a.85.85,0,0,0,.476.4" transform="translate(-66.223 -27.692)" fill="#fff"/>
      <path id="Path_61" data-name="Path 61" d="M149.469,43.961l-.108-.345-.365.176.129.377Zm-.243-.169.08.134-.1.054.024-.188" transform="translate(-95.763 -28.033)" fill="#fff"/>
      <path id="Path_62" data-name="Path 62" d="M102.357,44.108a2.27,2.27,0,0,0,.451.776,1.217,1.217,0,0,0-.451-.776" transform="translate(-65.787 -28.349)" fill="#fff"/>
      <path id="Path_63" data-name="Path 63" d="M108.529,44.262c-.2.114-.153.378-.244.565a.8.8,0,0,0,.565.794.343.343,0,0,0,.419-.108c-.31-.267-.166-.72-.321-1.064-.01-.231-.243-.176-.419-.187m-.057.93v-.023l.057.077Zm.111-.764c.277-.108.2.156.287.287v.112h-.319l.033-.4m.188.95.178-.109c-.1-.1-.332,0-.344-.21l.323-.1a.778.778,0,0,0,.132.528l-.288-.111" transform="translate(-69.594 -28.448)" fill="#fff"/>
      <path id="Path_64" data-name="Path 64" d="M133.739,45.861l.344-.036c-.222-.375.111-.849-.077-1.271-.065-.143-.244-.129-.4-.129a1.169,1.169,0,0,0-.321,1,3.729,3.729,0,0,1,.451.432m-.111-.323.223-.031.075.186-.3-.155m-.044-.375.307.031-.039.235c-.1.021-.319-.068-.267-.265m.025-.321.073-.265c.3-.088.189.257.209.4v.054c-.1-.054-.406.036-.282-.188m-.191.442h.046v.044h-.046Z" transform="translate(-85.657 -28.553)" fill="#fff"/>
      <path id="Path_65" data-name="Path 65" d="M97.778,44.727v.308l.158-.021-.024-.287Z" transform="translate(-62.844 -28.747)" fill="#fff"/>
      <path id="Path_66" data-name="Path 66" d="M137.189,44.785a3.792,3.792,0,0,0-.055.907c.1-.265.279-.663.055-.907" transform="translate(-88.124 -28.784)" fill="#fff"/>
      <path id="Path_67" data-name="Path 67" d="M100.818,46.634l-.033-.3h-.132v.323Z" transform="translate(-64.692 -29.779)" fill="#fff"/>
      <path id="Path_68" data-name="Path 68" d="M95.021,46.491v.265h.08l.075-.155Z" transform="translate(-61.072 -29.881)" fill="#fff"/>
      <path id="Path_69" data-name="Path 69" d="M145.936,46.893l-.031-.311h-.134v.344Z" transform="translate(-93.69 -29.939)" fill="#fff"/>
      <path id="Path_70" data-name="Path 70" d="M96.789,47.079v.264h.088l.1-.1Z" transform="translate(-62.208 -30.258)" fill="#fff"/>
      <path id="Path_71" data-name="Path 71" d="M98.963,47.243l-.166-.166v.3h.113Z" transform="translate(-63.498 -30.257)" fill="#fff"/>
      <path id="Path_72" data-name="Path 72" d="M116.076,47.8l-.421-.1v.155l.156.075c.264-.318-.047.166.13.189l-.1.191c.057.174-.23.275-.132.492.1.156.015.324.08.456a.563.563,0,0,0,.209-.551c.275-.156-.069-.476.265-.611l-.081-.088-.13-.021.054-.111.024.034.168.132.307-.21-.044-.056a1.683,1.683,0,0,1-.484.021m-.212,1.038A.526.526,0,0,1,116,48.4c-.069.137-.174.258-.134.432" transform="translate(-74.334 -30.657)" fill="#fff"/>
      <path id="Path_73" data-name="Path 73" d="M100.7,47.943c-.21-.088-.2.189-.155.3l.187-.036Z" transform="translate(-64.607 -30.803)" fill="#fff"/>
      <path id="Path_74" data-name="Path 74" d="M95.12,48.068h-.1v.287l.134-.023Z" transform="translate(-61.07 -30.894)" fill="#fff"/>
      <path id="Path_75" data-name="Path 75" d="M142.811,48.547l.165-.034-.034-.321h-.13Z" transform="translate(-91.788 -30.974)" fill="#fff"/>
      <path id="Path_76" data-name="Path 76" d="M80.928,48.818c.386-.363.958-.318,1.457-.438v-.036a4.315,4.315,0,0,0-1.116.078c-.142.1-.353.2-.34.4" transform="translate(-52.014 -31.072)" fill="#fff"/>
      <path id="Path_77" data-name="Path 77" d="M148.53,48.446v.264h.076l.091-.113Z" transform="translate(-95.463 -31.137)" fill="#fff"/>
      <path id="Path_78" data-name="Path 78" d="M144.8,48.936h-.132v.3h.164Z" transform="translate(-92.979 -31.452)" fill="#fff"/>
      <path id="Path_79" data-name="Path 79" d="M146.862,49.2l-.021-.262h-.166v.3Z" transform="translate(-94.271 -31.453)" fill="#fff"/>
      <path id="Path_80" data-name="Path 80" d="M142.8,49.836l-.054.209.153.109.055-.265Z" transform="translate(-91.749 -32.03)" fill="#fff"/>
      <path id="Path_81" data-name="Path 81" d="M148.53,49.972l.033.239.135-.018-.037-.267Z" transform="translate(-95.463 -32.088)" fill="#fff"/>
      <path id="Path_82" data-name="Path 82" d="M82.563,51.126l.021.024c.267-.213.7-.456.742-.8-.277.223-.509.544-.763.776" transform="translate(-53.065 -32.361)" fill="#fff"/>
      <path id="Path_83" data-name="Path 83" d="M88.631,54.285a2.082,2.082,0,0,0,.4,2.084l.023-.02a2.333,2.333,0,0,1-.342-1.625c.539-1.338,1.2-2.675,1.722-4-.686,1.129-1.084,2.421-1.8,3.56" transform="translate(-56.878 -32.602)" fill="#fff"/>
      <path id="Path_84" data-name="Path 84" d="M83.741,53.906c-.156.169-.067.5.021.665a1.376,1.376,0,0,0-.021-.665" transform="translate(-53.767 -34.646)" fill="#fff"/>
      <path id="Path_85" data-name="Path 85" d="M137.609,55.6c.156-.432.762-.629.828-1.093-.285.342-.794.661-.828,1.093" transform="translate(-88.444 -35.03)" fill="#fff"/>
      <path id="Path_86" data-name="Path 86" d="M117.732,55.336c-.132.055-.34-.013-.373.155.174-.078.142.144.3.134Z" transform="translate(-75.429 -35.566)" fill="#fff"/>
      <path id="Path_87" data-name="Path 87" d="M116.719,56l-.153-.08-.034.212a.691.691,0,0,0-.23.474c-.1.279.218.476,0,.7.583.07.186-.685.34-.96-.024-.145.254-.235.1-.365Zm-.241.908h-.024v-.4h.024Z" transform="translate(-74.737 -35.94)" fill="#fff"/>
      <path id="Path_88" data-name="Path 88" d="M134.886,59.483a.794.794,0,0,0-.1.738c.189-.13.066-.518.1-.738" transform="translate(-86.592 -38.231)" fill="#fff"/>
      <path id="Path_89" data-name="Path 89" d="M148.7,60.947a1.7,1.7,0,0,0-.168-1.162c.01.344.086.728.108,1.118Z" transform="translate(-95.462 -38.425)" fill="#fff"/>
      <path id="Path_90" data-name="Path 90" d="M94.258,60.592a1.443,1.443,0,0,1-.134.432l-.209.042c.118.176.354.168.453.355a2.2,2.2,0,0,0-.034-.588Z" transform="translate(-60.362 -38.944)" fill="#fff"/>
      <path id="Path_91" data-name="Path 91" d="M86.953,62.663c-.155.055-.253.241-.4.321a.519.519,0,0,0,.4-.321" transform="translate(-55.631 -40.275)" fill="#fff"/>
      <path id="Path_92" data-name="Path 92" d="M150.01,65.464h.034c.01-.533.067-1.084.055-1.592a1.992,1.992,0,0,0-.09,1.592" transform="translate(-96.337 -41.052)" fill="#fff"/>
      <path id="Path_93" data-name="Path 93" d="M102.731,65.673l.034.024c.463-.19,1.048-.057,1.479-.321l-.026-.023c-.463.176-1.17-.176-1.488.319" transform="translate(-66.027 -42.004)" fill="#fff"/>
      <path id="Path_94" data-name="Path 94" d="M97.639,65.42a1.215,1.215,0,0,0-.323.718c0,.165.02.34.165.417.034-.184-.09-.417,0-.629.011-.187.179-.339.158-.507" transform="translate(-62.547 -42.047)" fill="#fff"/>
      <path id="Path_95" data-name="Path 95" d="M129.459,66.878l.321-.023c-.188-.442.2-.8.1-1.25l-.363-.186a1.459,1.459,0,0,0-.432.587c-.3.43.308.562.375.872m.1-1.292c.331-.036.088.274.166.442l-.323-.078Zm-.21.575.3.033-.075.318.021.024-.033.023.052.184-.264-.207.212.023.011-.047c-.1-.106-.262-.168-.223-.35" transform="translate(-82.913 -42.047)" fill="#fff"/>
      <path id="Path_96" data-name="Path 96" d="M81.92,65.95l-.1.417.21-.186a.684.684,0,0,0,.13-.608Z" transform="translate(-52.589 -42.145)" fill="#fff"/>
      <path id="Path_97" data-name="Path 97" d="M113.165,67.131a3.328,3.328,0,0,0-.376-.719.4.4,0,0,0-.452.132,1.257,1.257,0,0,0,.088.764c.067.308.388.222.573.354a.357.357,0,0,0,.456-.188c-.091-.145-.29-.166-.29-.344m-.585-.166-.057-.363c.145-.21.3.122.378.267l-.321.1m.378.481.1-.026.055-.057c-.091-.108-.4.023-.421-.207l.288-.135.077.267.207.21-.3-.052" transform="translate(-72.187 -42.666)" fill="#fff"/>
      <path id="Path_98" data-name="Path 98" d="M89.58,71.7c-.078.122-.2.267-.111.421.187-.168.209-.464.451-.606Z" transform="translate(-57.483 -45.963)" fill="#fff"/>
      <path id="Path_99" data-name="Path 99" d="M156.919,75.748a8.307,8.307,0,0,0-.081,1.346,2.637,2.637,0,0,0,.081-1.346" transform="translate(-100.801 -48.685)" fill="#fff"/>
      <path id="Path_100" data-name="Path 100" d="M88.635,77.761l.13-.076a.639.639,0,0,0-.264-.61Z" transform="translate(-56.881 -49.538)" fill="#fff"/>
      <path id="Path_101" data-name="Path 101" d="M121.043,78.587c-.166.111-.363.241-.4.45-.044.347-.078.764.266.965.156.13.365-.057.507.045l.023-.4-.21.355-.264-.057c.023-.394-.2-1.058.186-1.325.21-.013.277.243.323.365l.021-.342c-.153.143-.253-.158-.453-.055" transform="translate(-77.524 -50.495)" fill="#fff"/>
      <path id="Path_102" data-name="Path 102" d="M124.8,78.813h-.4a1.036,1.036,0,0,1-.023.606l-.321-.031c.034-.2-.067-.5.08-.608H123.7l.078.057v1.269l-.113.054h.4a1.31,1.31,0,0,1,.034-.685l.309.023c-.023.23.067.551-.08.686l.432-.024h-.031a12.8,12.8,0,0,1-.021-1.3Z" transform="translate(-79.479 -50.633)" fill="#fff"/>
      <path id="Path_103" data-name="Path 103" d="M116.074,79.842l-.055.3c-.054.176-.264.187-.4.155-.057-.442-.1-.886-.156-1.327l.1-.1-.5.078.1.021.164,1.359-.077.078.893-.111Z" transform="translate(-73.958 -50.691)" fill="#fff"/>
      <path id="Path_104" data-name="Path 104" d="M127.542,78.937l-.033.021.078.054-.135,1.248-.075.078.849.08.056-.426c-.056.124-.09.292-.241.345l-.321-.023a3.857,3.857,0,0,1,.111-.64c.176.011.119.222.21.3a3.636,3.636,0,0,0,.031-.565l-.111.213-.155-.024a2.357,2.357,0,0,0,.044-.474c0-.187.134-.034.246-.08.164.046.143.222.208.344v-.376c-.263-.01-.51-.054-.762-.075" transform="translate(-81.868 -50.734)" fill="#fff"/>
      <path id="Path_105" data-name="Path 105" d="M111.982,80.975l-.1.046.287-.046h-.078v-.428h.323c-.011.141.256.277.043.373a.793.793,0,0,0,.454-.109c-.363-.355-.442-.952-.762-1.346-.135.464-.069,1.024-.166,1.51m.132-.507v-.421l.187.4Z" transform="translate(-71.909 -51.074)" fill="#fff"/>
      <path id="Path_106" data-name="Path 106" d="M131.061,79.517l-.377.057c-.486.474.342.728.266,1.193l-.287.132c-.209-.066-.179-.285-.209-.455l-.112.378c.189-.119.254.2.454.132l.318-.266c.223-.461-.4-.64-.4-1.04l.321-.1a.531.531,0,0,1,.178.4l.055-.353Z" transform="translate(-83.774 -51.107)" fill="#fff"/>
      <path id="Path_107" data-name="Path 107" d="M134.294,80.494l.08-.451a8.165,8.165,0,0,1-.874-.209,1.228,1.228,0,0,0-.132.419c.1-.134.208-.4.419-.287l-.308,1.245-.166.026a1.927,1.927,0,0,0,.538.114l-.108-.059.021-.055a10.306,10.306,0,0,1,.344-1.216c.22.065.121.307.186.473" transform="translate(-85.683 -51.311)" fill="#fff"/>
      <path id="Path_108" data-name="Path 108" d="M108.747,80.025l.076-.044-.233.044.1.034-.1.665-.108-.111c-.057-.168-.345-.311-.244-.477l-.443.113.026.021.018-.021a8.245,8.245,0,0,1,.533.663c.069.209.218.505.086.685a4.192,4.192,0,0,0,.529-.156h-.109a2.12,2.12,0,0,1-.132-1.414" transform="translate(-69.283 -51.405)" fill="#fff"/>
      <path id="Path_109" data-name="Path 109" d="M136.664,80.8c.2.043.223.256.243.421l.1-.321-.794-.267.076.059-.42,1.245h-.108a6.607,6.607,0,0,0,.718.267c.207.073.218-.285.241-.375l-.189.241-.4-.054a2.868,2.868,0,0,1,.264-.609l.109.319a1.6,1.6,0,0,0,.156-.528l-.29.155a3.689,3.689,0,0,1,.179-.552Z" transform="translate(-87.256 -51.821)" fill="#fff"/>
      <path id="Path_110" data-name="Path 110" d="M105.429,81.2a.692.692,0,0,0-.373.355,1.038,1.038,0,0,0,.3,1.026.46.46,0,0,0,.5.132.6.6,0,0,0,.321-.34,1.2,1.2,0,0,0-.075-.741c-.146-.218-.368-.486-.665-.432m.232,1.434a2.976,2.976,0,0,1-.365-1.3c.233-.176.377.089.422.264a3.585,3.585,0,0,1,.207.984l-.264.052" transform="translate(-67.501 -52.187)" fill="#fff"/>
      <path id="Path_111" data-name="Path 111" d="M139.21,81.683l.076.057-.454,1.211-.109.026c.155.042.3.134.455.166l-.077-.078a2.618,2.618,0,0,1,.264-.639c.375.253-.187.551.075.816l.267.086-.077-.055.054-.243a.462.462,0,0,0-.188-.549l.021-.036.43-.02L140,82.08a1.353,1.353,0,0,0-.795-.4m.4.717-.22-.033.186-.5.192.155-.158.373" transform="translate(-89.16 -52.499)" fill="#fff"/>
      <path id="Path_112" data-name="Path 112" d="M102.249,83.168l-.428-.134c.155-.088.352-.241.321-.451-.246-.5-.795-.09-1.118.055h.112l.5,1.294-.045.055a2.832,2.832,0,0,0,.476-.189l-.034-.023-.1.023a2.3,2.3,0,0,1-.246-.685c.409-.065.29.408.564.553l.344-.078c-.241.011-.178-.3-.344-.421m-.529-.134c-.209-.041-.153-.329-.262-.474.161-.241.375.065.4.264l-.134.21" transform="translate(-64.93 -52.924)" fill="#fff"/>
      <path id="Path_113" data-name="Path 113" d="M113.412,89.351l-.006-.036.111-.025-.333-1.576-.112.023-.008-.036.536-.111.01.034-.113.024.334,1.576.119-.026,0,.039Z" transform="translate(-72.668 -56.297)" fill="#fff"/>
      <path id="Path_114" data-name="Path 114" d="M116.789,88.695v-.036l-.148-.132-.141-1.356h.013l.393,1.512.129-.015.071-1.559h.013l.158,1.5-.1.011v.038l.5-.056v-.036l-.1.013-.166-1.605.1-.01v-.036l-.432.044-.05.979H117L116.757,87l-.427.046v.036l.1-.01.155,1.448-.108.165v.039Z" transform="translate(-74.768 -55.87)" fill="#fff"/>
      <path id="Path_115" data-name="Path 115" d="M121.206,88.17l.161-.839h0l.124.839Zm.073.381v-.038l-.114-.073.031-.235h.3l.034.308h-.1v.038h.508v-.038h-.091l-.26-1.647H121.4l-.3,1.542-.115.106v.038Z" transform="translate(-77.763 -55.83)" fill="#fff"/>
      <path id="Path_116" data-name="Path 116" d="M125.5,88.474c-.015.144.055.223.223.241.134.015.254-.01.277-.265h-.042c-.033.158-.055.207-.118.2l-.038-.139.026-.227a.371.371,0,0,0-.274-.459v0a.393.393,0,0,0,.372-.387c.025-.21-.1-.417-.432-.45l-.437-.047v.039l.1.007-.168,1.6-.1-.011v.038l.515.054v-.039l-.1-.009.083-.8.165.183Zm-.033-1.457.158.13-.057.549-.178.093Z" transform="translate(-80.267 -55.875)" fill="#fff"/>
      <path id="Path_117" data-name="Path 117" d="M129.675,89.312l.008-.038-.117-.024.324-1.577.11.027.006-.038-.533-.111-.008.038.112.024-.324,1.577-.113-.023-.006.034Z" transform="translate(-82.997 -56.268)" fill="#fff"/>
      <path id="Path_118" data-name="Path 118" d="M80.678,146.3c0-.373-.085-.469-.388-.529-.445-.086-.554-.047-.554-.209l.218-.13c.277,0,.529.046,1.414.046.411,0,.94-.046,1.209-.046l.192.108c0,.184-.1.145-.631.232-.155.021-.275.179-.275.459v5.993c0,.386.047.4.566.531.277.074.373.048.373.193,0,.071-.033.146-.225.146s-.522-.049-1.248-.049c-1,0-1.207.049-1.426.049l-.168-.158c0-.108.12-.155.326-.181.518-.06.616-.169.616-.678Z" transform="translate(-51.248 -93.471)" fill="#fff"/>
      <path id="Path_119" data-name="Path 119" d="M95.986,145.731c.085-.241.1-.3.3-.3.12,0,.335.047.891.047.244,0,.52-.047.738-.047l.182.132c.011.135-.086.181-.292.207-.484.062-.494.109-.494.373,0,2.648.121,4,.121,5.995,0,.433.047.508.384.618.253.085.4.024.4.192l-.241.146c-.278,0-.471-.05-1.137-.05-.916,0-1.219.05-1.426.05l-.143-.146c0-.134.1-.145.411-.192.421-.062.518-.121.518-.652,0-.8-.048-4.232-.109-5.248h-.023c-1.945,5.667-1.884,6.189-2.127,6.189s-.108-.215-2.128-6.189h-.024c-.083,1.452-.108,4.618-.108,5.128,0,.627.132.7.593.782.3.049.36.1.36.183l-.153.146c-.173,0-.34-.05-.958-.05-.531,0-.785.05-.979.05-.168,0-.194-.024-.194-.109,0-.122.1-.145.508-.23.241-.049.3-.2.328-.761.121-2.72.205-5.353.205-5.825,0-.29-.051-.363-.676-.4l-.158-.182.2-.156c.253,0,.375.047.823.047a7.579,7.579,0,0,0,.762-.047c.254,0,.3.085.447.52l1.548,4.58h.024Z" transform="translate(-58.072 -93.469)" fill="#fff"/>
      <path id="Path_120" data-name="Path 120" d="M115.122,149.756l-.134-.034c0-.039.051-.137.3-1.079.4-1.427.4-1.5.456-1.5s.049.05.232.675c.458,1.6.533,1.815.533,1.9l-.109.034Zm1.379.339c.158,0,.158.1.4.979a8.622,8.622,0,0,1,.3,1.134.276.276,0,0,1-.205.279c-.411.1-.529.086-.529.192l.156.147c.134,0,.569-.049,1.219-.049.45,0,.836.049,1.028.049.217,0,.256-.049.256-.134,0-.147-.145-.109-.424-.205-.243-.086-.316-.531-.919-2.49-1.49-4.833-1.39-4.981-1.646-4.981-.213,0-.132.049-1.194,3.556-.981,3.228-1.1,3.8-1.378,3.915-.251.108-.412.036-.412.218l.124.121c.12,0,.327-.049.9-.049.293,0,.762.049.87.049.183,0,.218-.085.218-.158,0-.157-.337-.108-.567-.181-.265-.086-.363-.205-.363-.363,0-.085.06-.241.3-1.256.169-.7.169-.772.35-.772Z" transform="translate(-72.724 -93.205)" fill="#fff"/>
      <path id="Path_121" data-name="Path 121" d="M133.14,146.407c-.01-.481.146-.639.751-.639a1.5,1.5,0,0,1,1.307,1.617c0,1.2-.582,1.647-1.669,1.647-.354,0-.389-.048-.389-.292Zm0,3.251c0-.228.111-.287.375-.287a.374.374,0,0,1,.391.253l1.484,3.238c.072.169.134.23.217.23.243,0,.34-.049.64-.049.277,0,.557.049.835.049l.146-.108c0-.183-.2-.075-.437-.232-.352-.232-.473-.93-1.462-2.925-.183-.358-.324-.531-.689-.59v-.023a1.9,1.9,0,0,0,1.862-1.8,1.942,1.942,0,0,0-2.115-1.983c-.7,0-1.137.047-1.777.047-.522,0-.869-.047-1.208-.047l-.22.183c0,.083.062.13.341.156.349.023.433.158.433.556v5.923c0,.241-.13.469-.518.505-.207.026-.256.1-.256.183l.183.156c.3,0,.629-.049,1.307-.049.578,0,1.026.049,1.292.049l.156-.134c0-.085-.049-.145-.507-.227-.376-.075-.474-.318-.474-.665Z" transform="translate(-84.314 -93.47)" fill="#fff"/>
      <path id="Path_122" data-name="Path 122" d="M149.992,146.3c0-.373-.085-.469-.384-.529-.45-.086-.556-.047-.556-.209l.215-.13c.28,0,.533.046,1.416.046.411,0,.942-.046,1.209-.046l.19.108c0,.184-.093.145-.627.232-.156.021-.279.179-.279.459v5.993c0,.386.049.4.568.531.279.074.375.048.375.193,0,.071-.037.146-.228.146s-.52-.049-1.25-.049c-1,0-1.206.049-1.424.049l-.166-.158c0-.108.118-.155.324-.181.52-.06.616-.169.616-.678Z" transform="translate(-95.799 -93.471)" fill="#fff"/>
    </g>
  </g>
</svg>
