<svg xmlns="http://www.w3.org/2000/svg" xmlns:xlink="http://www.w3.org/1999/xlink" width="84.305" height="58.607" viewBox="0 0 84.305 58.607">
  <defs>
    <clipPath id="clip-path">
      <rect id="Rectangle_2" data-name="Rectangle 2" width="84.305" height="58.607" fill="#fff"/>
    </clipPath>
  </defs>
  <g id="logo_01_2" transform="translate(-15.5)">
    <path id="Path_123" data-name="Path 123" d="M42.152,145.11H0v.724H84.3v-.724Z" transform="translate(15.5 -95.856)" fill="#fff"/>
    <g id="Group_5" data-name="Group 5" transform="translate(15.5)">
      <g id="Group_4" data-name="Group 4" clip-path="url(#clip-path)">
        <path id="Path_124" data-name="Path 124" d="M1.452,123.174v-.3h.7v-8.847h-.7v-.3H4.827c1.95,0,2.637,1.094,2.637,2.279,0,1.325-.885,2.237-2.556,2.364l2.76,4.5h.569v.3H6.394l-2.948-4.8H3.4v4.5h.883v.3ZM3.4,118.15h.684a1.881,1.881,0,0,0,2.053-2.143c0-.953-.405-1.98-1.68-1.98H3.4Z" transform="translate(-0.969 -75.89)" fill="#fff"/>
        <path id="Path_125" data-name="Path 125" d="M25.128,113.075c1.751,0,3.341,1.938,3.341,4.941s-1.59,4.939-3.341,4.939-3.34-1.936-3.34-4.939,1.589-4.941,3.34-4.941m0,9.581c1.29,0,1.9-1.065,1.9-4.64s-.612-4.642-1.9-4.642-1.9,1.067-1.9,4.642.615,4.64,1.9,4.64" transform="translate(-14.539 -75.454)" fill="#fff"/>
        <path id="Path_126" data-name="Path 126" d="M41.353,113.728H44.37v.3h-.95L45.1,118.2l1.878-4.178H46.11v-.3h1.924v.3h-.728l-2.03,4.534v4.313H46.2v.3H43.094v-.3h.93V118.86l-2-4.833h-.675Z" transform="translate(-27.595 -75.889)" fill="#fff"/>
        <path id="Path_127" data-name="Path 127" d="M58.447,122.952v-.3h.674l2.692-9.256h.742l2.552,9.256h.461v.3H62.995v-.3h.857l-.952-3.5H60.453l-1.007,3.5h1.115v.3Zm2.091-4.094H62.82l-1.1-4H61.7Z" transform="translate(-39.001 -75.669)" fill="#fff"/>
        <path id="Path_128" data-name="Path 128" d="M84.427,122.876h1.718c.766,0,.983-.164,1.678-3.5h.258v3.795h-5.6v-.3h.7v-8.846h-.7v-.3H85.59v.3H84.427Z" transform="translate(-55.036 -75.891)" fill="#fff"/>
        <path id="Path_129" data-name="Path 129" d="M113.254,116.319H113c-.721-2.621-.941-2.947-1.844-2.947-1.208,0-1.983,1.093-1.983,4.642s.672,4.64,2.087,4.64c.973-.014,1.288-.819,1.812-3.356h.254v3.082a3.935,3.935,0,0,1-2.065.574c-1.97,0-3.527-1.912-3.527-4.939s1.557-4.942,3.527-4.942a4.053,4.053,0,0,1,2,.517Z" transform="translate(-71.888 -75.452)" fill="#fff"/>
        <path id="Path_130" data-name="Path 130" d="M129.877,118.422v4.452h.766v.3h-2.715v-.3h.7v-8.846h-.7v-.3h2.715v.3h-.766v4.1h3.073v-4.1h-.765v-.3H134.9v.3h-.7v8.846h.7v.3h-2.715v-.3h.765v-4.452Z" transform="translate(-85.365 -75.889)" fill="#fff"/>
        <path id="Path_131" data-name="Path 131" d="M151.823,123.172v-.3h.7v-8.847h-.7v-.3h5.892v3.029h-.255c-.626-2.551-.812-2.728-1.393-2.728h-2.3v4.1h.906c.581,0,.856-.421,1.09-1.882h.253v4.065h-.253c-.234-1.46-.508-1.885-1.09-1.885h-.906v4.452h2.041c.825,0,1.067-.372,1.753-3.2h.255v3.5Z" transform="translate(-101.31 -75.888)" fill="#fff"/>
        <path id="Path_132" data-name="Path 132" d="M173.229,119.191c.485,2.539.927,3.464,2.053,3.464a1.891,1.891,0,0,0,1.889-1.992c0-2.7-4.313-1.651-4.313-4.888a2.534,2.534,0,0,1,2.642-2.7,4.6,4.6,0,0,1,2.184.545v2.73h-.255l-.419-1.581c-.291-1.077-.86-1.394-1.614-1.394a1.745,1.745,0,0,0-1.753,1.8c0,1.023.618,1.294,2.181,1.994,1.719.765,2.322,1.281,2.322,2.783a2.9,2.9,0,0,1-3.015,3,4.064,4.064,0,0,1-2.158-.762v-3Z" transform="translate(-115.347 -75.453)" fill="#fff"/>
        <path id="Path_133" data-name="Path 133" d="M191.67,122.876h.869V114.03h-.754c-.521,0-.651.139-1.125,2.707h-.254V113.73h5.519v3.006h-.254c-.478-2.568-.607-2.707-1.126-2.707h-.756v8.846h.871v.3h-2.99Z" transform="translate(-127.057 -75.891)" fill="#fff"/>
        <path id="Path_134" data-name="Path 134" d="M209.938,123.172v-.3h.693v-8.847h-.693v-.3h5.891v3.029h-.255c-.627-2.551-.812-2.728-1.393-2.728h-2.3v4.1h.907c.58,0,.857-.421,1.088-1.882h.258v4.065h-.258c-.231-1.46-.508-1.885-1.088-1.885h-.907v4.452h2.043c.825,0,1.065-.372,1.751-3.2h.257v3.5Z" transform="translate(-140.089 -75.888)" fill="#fff"/>
        <path id="Path_135" data-name="Path 135" d="M231.241,123.174v-.3h.7v-8.847h-.7v-.3h3.376c1.95,0,2.634,1.094,2.634,2.279,0,1.325-.882,2.237-2.552,2.364l2.76,4.5h.568v.3h-1.844l-2.945-4.8h-.046v4.5h.88v.3Zm1.951-5.024h.683a1.88,1.88,0,0,0,2.051-2.143c0-.953-.4-1.98-1.681-1.98h-1.053Z" transform="translate(-154.305 -75.89)" fill="#fff"/>
        <path id="Path_136" data-name="Path 136" d="M110.734,20.583a6.131,6.131,0,0,0-.237-.779c.13-.3-.2-.482-.2-.774-.281-.238.065-.528.023-.831-.228-.516.17-1.217-.335-1.607a4.229,4.229,0,0,0-1.164,1.919c-.38,1.217.743,1.877.851,2.92.021.2.085.466-.041.627-.323.076-.584-.171-.81-.42a10.893,10.893,0,0,0-1.682-3.308c-.344-.452.009-1.036-.1-1.552.021-.206-.215-.44.055-.595.367.076.128-.442.484-.442.172.272.237-.25.44-.053a.645.645,0,0,0,.206-.572c-.118-.127-.269-.194-.206-.41a1.512,1.512,0,0,0,.228-1.141,1.966,1.966,0,0,0-.173-1.112c0-.138-.225-.118-.162-.277.282-.217-.021-.669.26-.885.2-.387-.182-.745-.41-1.035l-.408.7a1.264,1.264,0,0,0-.442-.646c-.1.43-.454.742-.443,1.219a2.972,2.972,0,0,0-.83.074c-.311.376-.872.043-1.314.184-.26.129-.056.43-.076.646.067.185.475.325.278.516l-.073-.031-.334.053c.044.29.387.3.613.387l-.055.055a.469.469,0,0,1-.514-.152.507.507,0,0,0-.593,0c.02.463.484.907.127,1.37.207.182-.172.313.032.484-.915,1.114-1.788-.388-2.748-.41-.561.335-1.24.012-1.886.078l-.055-.056a7.266,7.266,0,0,0,.5-.645,2.505,2.505,0,0,0,1.131.419,1.367,1.367,0,0,0,1.07-.387,1.436,1.436,0,0,0,.127-1.347h.411V12.69l.753-.182.1-.152c-.194-.2-.109-.517-.334-.7l.161-.335c.118-.185-.152-.238-.237-.312a.857.857,0,0,0-.627.1c-.182.044-.431.074-.538-.15a2.843,2.843,0,0,0,1.79-1.144,2.687,2.687,0,0,0,.387-1.886,1.087,1.087,0,0,0-1.219-.514c-.472-.024-.7.548-1.164.548-.235.032-.258.29-.311.463.15.171.27.355.516.355-.065.258.022.581-.109.81.058.182.315.066.422.1l-.2.182a1.052,1.052,0,0,1-1.014.055l.186-.073a.892.892,0,0,0,.515-.886.574.574,0,0,0-.463-.15V8.572c-.1-.281-.42-.2-.6-.258-.431.108-.064.841-.613.681-.206.352.279.581.075.869l-.26-.018c.078-.25.194-.605,0-.831-.14-.1-.273-.238-.464-.2-.118-.088-.214-.15-.253-.29.126-.185.094-.68.482-.487.162-.378.484-.012.7-.29.012-.281.377-.065.494-.281-.064-.25.226-.453.078-.649-.27.153-.507-.071-.777.078l-.107-.171c.01-.207.238-.207.366-.258a.871.871,0,0,0,.311-.733c-.115-.206-.331-.033-.493-.044l-.076-.258.2-.26c.249-.056.238-.3.26-.5l.2-.278.29.02c.131.422-.073.991.184,1.368.184.1.368-.041.463-.2A1.93,1.93,0,0,0,101.476,4a1.043,1.043,0,0,0-.812-.363l-.149-.207-.238-.053c-.344.355-1.024.012-1.24.572l-.13-.369.315-.258c-.217-.152-.086-.516-.39-.57a.941.941,0,0,0-.259.549l-.149-.26c-.237.042-.39-.335-.6-.108.15.216-.033.408-.1.593-.171-.12-.561.064-.548-.282V1.286c.267-.17.147-.57.108-.809-.166-.127-.3-.754-.521-.334-.118.185-.2.378-.311.572-.087.191.052.367.161.517V3.246c-.182.194-.452.044-.646.132.084-.207.26-.4.15-.648-.184-.064-.3.044-.408.152l-.033-.021c-.13-.032-.325-.076-.41.075.085.281-.237.225-.311.42a1.074,1.074,0,0,0-.41-.473.564.564,0,0,0-.263.572,1.148,1.148,0,0,0-.493-.208c-.334.144-.733.12-1.015.411a1.635,1.635,0,0,0-.481,1.51c.17.268.158.744.59.777.44-.367.182-.971.258-1.512.065-.085.077-.268.238-.258a.537.537,0,0,0,.226.443c-.129.493.689.4.517.9-.259.041-.419-.184-.7-.1-.161.106-.1.353-.077.517a.85.85,0,0,0,.725.463c.141.055.149.216.212.335-.266-.13-.341.278-.623.13l-.26.386c.111.139.162.237.282.387a1.856,1.856,0,0,0,1.194.314l-.128.258c-.117.2.207.238.258.411l-.075.073a.922.922,0,0,0-.7.206l-.162-.335-.281.129a.726.726,0,0,0-.367-.571c-.161.053-.215.226-.334.343l-.226-.159a.9.9,0,0,0-.312.853c.021.161.312.249.225.42-.29-.1-.646-.1-.85-.369a2.8,2.8,0,0,0,.388-.408V8.474h.075c.4-.106.129-.537.129-.774-.14-.4-.668-.085-.9-.364-.507-.058-1.1-.077-1.39.408a2.06,2.06,0,0,0-.058,1.789,2.1,2.1,0,0,0,1.448,1.056c-.24.076-.561-.044-.722.217v.385c-.228.155-.2.411-.228.648.162.355.939-.1.8.487.141-.024.281-.111.411-.078l-.2.238a1.24,1.24,0,0,0-.153,1.314,1.449,1.449,0,0,0,1.391.646c-.571.215-1.25.194-1.809.443l-.692-.312a.428.428,0,0,1-.032-.41c-.194-.185.15-.271.129-.444-.085-.193.17-.452.074-.7-.258-.14-.539-.011-.818-.053l-.033-.41c-.118-.228-.355.076-.514.056,0-.174.212-.215.288-.347-.064-.334.26-.505.175-.85-.078-.24-.335-.284-.542-.337-.463-.766-1.335-.666-2.091-.774a2.876,2.876,0,0,0-.9-.334,2.205,2.205,0,0,1,.043.442l-.593-.162a2.45,2.45,0,0,0,.111.777c-.27.064-.563.094-.722.334-.034.42.443.583.612.883-.206.389-.009.927-.258,1.293a.731.731,0,0,0,.337.282c-.079.41-.153.818-.229,1.217.106.332.323.032.519.108l-.055.184c.182.182.42-.173.516.171-.131.323.2.141.314.26.021.161.161.3.077.472.018.217-.271.414-.056.616.215.012.021.194.074.314-.159.161.076.355.033.571L85.76,19.569c-.6.851-.494,2.34-1.787,2.565a.842.842,0,0,1-.313-.907,16.646,16.646,0,0,1,2.018-2.953,2.1,2.1,0,0,0,.417-1.238,1.514,1.514,0,0,0-1.42-.648c-.52.293-1.3-.041-1.79.282a1.146,1.146,0,0,0-.486.551,1.08,1.08,0,0,0-.517,1.087c.537-.258,1.013.356,1.52.174.084.311-.294.461-.152.753-.2-.007-.486-.108-.624.079.2.386-.152.675-.1,1.065-.129.1-.343.14-.389.334-.076.121-.1.366.046.442l.214-.131c.376.408.184,1.056.56,1.469-.452.332-.129,1.044-.669,1.292l.077.367a1.65,1.65,0,0,1,.753-.257.954.954,0,0,0,.413-.833,3.026,3.026,0,0,0,1.656-.389,1.943,1.943,0,0,1,.36.959c-.164.421-.649.263-.983.263-.279.235-.064.73-.387.979a.507.507,0,0,0-.023.648.467.467,0,0,0,0,.443c-.033.17-.075.331.13.407-.164.41.3.595.1.992.237.162.281.464.422.691l.537-.3c.249-.076.452.126.678.2l.173-.162c.055-.216.323-.108.5-.15a.331.331,0,0,0,.13-.314c-.271-.29-.035-.733-.109-1.086-.056-.443-.574-.335-.874-.464-.108-.217.064-.376.15-.54,1.047-.763,2.285-1.819,1.994-3.234a.488.488,0,0,1,.466.153c.182.433-.185.763-.335,1.109.021.268-.078.581.183.754a1.569,1.569,0,0,0,.387.107,1.6,1.6,0,0,0,.927.335,11.027,11.027,0,0,1,1.218-.077,1.827,1.827,0,0,1,1.574-.162l.129-.386a2.363,2.363,0,0,1,.494-.056,9.041,9.041,0,0,0,3.516,3.192,19.182,19.182,0,0,0-7.706,1.853c-.271-.422-.26-1.056-.777-1.293a1.562,1.562,0,0,0-1.445.341,1.225,1.225,0,0,0-.389,1.037c.6.819,1.024,1.714,1.572,2.557a.945.945,0,0,0,.722.129A23.1,23.1,0,0,1,91,30.511c-.121.126-.067.323-.078.5.433.786.451,1.778,1.164,2.4,2.859-1.3,6.921-1.563,9.777-.076.367-.012.422-.428.572-.666a5.362,5.362,0,0,0,.672-2.256c.739.3,1.441.725,2.2,1.038a.862.862,0,0,0,.724-.164l.85-1.466c.2-.428.613-.763.754-1.215.249-.165.387.268.646.257.185-.323.39.032.615-.073l.181-.261.079.021.476-.539c-.024-.517-.184-.97-.165-1.508-.01-.389.367-.754.077-1.132-.808-.464-.669-1.443-.56-2.253l.042-.055a1.42,1.42,0,0,0,.991.032c.454-.042.422-.548.669-.8.193-.313.022-.678.182-1-.14-.228-.053-.451-.129-.7M92.8,5.683c-.05-.211-.308-.251-.328-.5l.26.184.253-.2a1.289,1.289,0,0,0-.185.511m.47-1.6h-.053l.161-.313c.02.076.076.313-.108.313m-.109-.237A2.624,2.624,0,0,0,93.01,4.93c-.149.345-.288-.238-.44.108l-.184-.162a1.5,1.5,0,0,1,.648-1.294c.138-.032.246-.141.421-.1l-.293.357M109.15,22.1l-.334-.281Zm-1.961-6.08h-.055l.055-.1Zm.2-.357v-.035h.086Zm.624-2.921-.073.043v.088c.02-.207-.151-.357-.13-.519.15.065.13.261.2.388m-3.634.364-.094-.085.094.085c.168.046.393-.278.4.1a.988.988,0,0,1-.4-.1m1.673.152c.143-.062.12-.258.043-.343a1.2,1.2,0,0,0-1.056-.152l-.129.334c-.118-.44-.768-.592-.592-1.164l.15.312c.182-.1.41-.121.549-.258l-.252-.076h-.2l-.068.076-.087-.076h.754l-.021.076c.087.184.194-.076.3-.076.27-.378.831-.129,1.2-.313-.144-.411.211-.69.311-1.035l.226.335c-.045.149.2.139.073.288a1.039,1.039,0,0,0-.094.908l.094-.108a3.518,3.518,0,0,1,.517-1.5c.226.193-.2.429-.074.645.117-.1.173-.276.311-.331.035.18-.237.32-.159.463l.237-.2a1.252,1.252,0,0,1-.6.818c.155.14.249-.15.41-.15.1.334-.311.463-.461.7l.206.02a.74.74,0,0,0,.255.519l.035-.023c.02.185.043.41.171.487l.038-.052.015-.079-.015.079a1.029,1.029,0,0,0-.006.493l-.108-.1c-.064.1.021.268.032.41l-.085.311-.129-.184.03.314-.03.26a1.135,1.135,0,0,0-.617-.26c-.086.173-.366.182-.387.41-.032-.228-.314-.085-.463-.13.193-.032.127-.355.39-.314.191-.149.017-.449,0-.613-.014-.225-.185-.334-.241-.548-.212-.259-.451.085-.7-.023-.109.152-.376.1-.389.334l-.226.183.052.2-.052-.021-.076.152c-.12-.118,0-.376-.108-.519-.161.142.024.519-.26.519,0-.164.238-.464-.053-.616l-.076-.085a1.932,1.932,0,0,1,1.4-.3m-.906-.343c.238-.13.529.043.8.053l.021.162c-.2.073-.407-.162-.615,0l-.258.021.053-.237m1.133.624-.15.315c-.173.062-.207-.1-.293-.185.086-.173.379-.087.551-.185l.02.132a.441.441,0,0,1,.185.334l-.313-.023c-.074-.129.163-.258,0-.388m-.1.5-.053.13-.108-.055V14l.161.03m-.346.044-.332.184c-.035-.088-.143-.194-.1-.335.194-.139.3.141.431.152m-.226-.28.053-.129.152.258-.205-.129m-1.919-.389.162-.13c.239-.041.335.282.56.26l.312.335c-.065.161-.055.346-.206.461a.669.669,0,0,0-.5.13c.206.173.431-.086.68-.041l.389-.032c.118.127.335.279.485.1l.237.023.076-.076c-.087-.182-.26.042-.355-.109a2.509,2.509,0,0,0,.409-.1c.021.162-.152.3-.022.445.162-.1.085-.392.3-.369l.164.184.075-.073-.15-.26.354-.087.033.387-.291.087-.073.2-.111.023-.172-.152c-.129.226.182.279.3.442l.344.023.152.311.076-.074.181.258.13-.03c-.1-.143-.443-.293-.237-.519.078.118.055.314.237.332a.464.464,0,0,0-.149-.408c.117-.009.149-.3.332-.152,0,.13-.225.26-.108.433l.053.087c.118-.087.089-.291.109-.442l.2.053c-.009.162-.235.323-.085.463.056-.118.224-.173.161-.334l.335.076c-.088.13-.314.15-.44.314.126.084.278-.056.417-.089.012.367-.376-.052-.388.258l-.332-.147c-.216.062-.065.323-.291.334l-.2.364-1.24-.809-1.713-.516.161-.261-.109-.331c.249-.13.044-.442.313-.571l-.02-.174c-.139.044-.139.185-.217.281-.29.088-.225-.26-.334-.389m1.476,2.351.281-.023-.2.129c.086.087.118.251.293.184a3.245,3.245,0,0,0,.042.929h.182v.809a3.242,3.242,0,0,1-1.056-.032v-.8l.281-.053V16.04l.237-.053-.055-.237m.542,1.036a3.651,3.651,0,0,0-.046-.906h-.159l.106-.076.777.463c-.171.076-.464-.046-.626.106V16.8Zm.235-.3.185.045.021-.077.257.077-.02,1.27-.443-.021Zm-.852-1.09-.625-.2a5.7,5.7,0,0,1,2.36,1.164c-.6-.258-1.077-.828-1.734-.959m-1.217-.753h-.023v-.1h.023Zm-.774,1.012a4.378,4.378,0,0,0-.135.983c-.085-.263.069-.637-.129-.831l-.052.052c.029.4-.087.863.108,1.187-.235-.248-.487-.592-.851-.56a10.084,10.084,0,0,1-.108-1.2,6.7,6.7,0,0,0-1.3-.388c.971-.332,1.512.81,2.463.756m-.208,1.6c-.313.52-.335,1.156-.756,1.63l-.2.334L102,16.659c.454-.109.6.376.885.6M98.89,14.694H98.8c.309-.411.807-.763.689-1.314-.044-.139-.2-.076-.279-.053a22.783,22.783,0,0,1-2.642,2.068,6.229,6.229,0,0,1-1.65-1.5v-.13A9.341,9.341,0,0,0,96.5,15.3a20.225,20.225,0,0,0,2.663-1.994c.164-.033.3-.138.5-.1.106.651-.458,1.027-.757,1.5m-.278-.02c-.219-.032-.433-.055-.646-.089.419-.386.894-.753,1.347-1.129.127.507-.443.819-.7,1.219m1.056,4.6-.26-.075a5.567,5.567,0,0,0,.053.851H99.4c.062-.367-.284-.777.1-1.035h.258l.054.225c-.216.194.074.473.055.733a4.087,4.087,0,0,1-.184-.7m.014.751-.109.012-.049-.719a2.151,2.151,0,0,1,.158.707m-.586-.825c.077-.337-.248-.607-.021-.907.161-.085.2.12.258.2-.042.251.118.648-.237.7m.109.874h-.109l.032-.725a2.423,2.423,0,0,1,.077.725m-.444-.962c-.159-.226-.1.237-.255,0l-.314.519c.021-.2.258-.453.364-.692l.367.023v.13l-.162.149a3.538,3.538,0,0,1-.127.7h-.077Zm-.354.756-.087-.153.26-.5Zm.469-1.122v.106l-.419-.032V18.76Zm-.37-.107V18.6l.229.053Zm-.056-.251c.085-.484-.874-.452-.3-.956.106.118.364.126.3.366.236.127.247.367.44.517,0,.238-.288.064-.44.073m.494.812-.021.818L98.816,20Zm-.774-1.944.052-.214c.13.023.326-.217.284.085.074.173.322.285.255.52l.109.129.053-.055c.021.15.109.27.074.443-.375-.249-.385-.745-.827-.909m.774-.439a4.232,4.232,0,0,1,.021.74v.09l-.076-.314c-.288-.127-.267-.429-.334-.678h.056L98.6,16.7c.1.118.29-.032.364.131m.487,2.048V18.8h.42v.106Zm.4.447.258.493-.083.152Zm.046-.587-.44-.055h.44ZM99.5,18.51c-.128-.173.171-.247.183-.366.172-.12.442-.055.549-.277.194-.2.248.117.15.223-.15-.074-.14.141-.2.216a.629.629,0,0,1-.68.2m.032-.494.1-.355-.1.355m.2-.053c.1-.217,0-.562.185-.722.02-.138.235-.26.332-.1-.2.261.044.885-.517.822m.593-.281c-.055-.3.249-.658-.15-.8-.078-.184-.27-.174-.238-.388l-.055-.053.519.053a10.308,10.308,0,0,1,.03,1.165l-.106.021m-.312-.777c-.227.088-.193.364-.41.442-.03-.257.055-.463.022-.721l.129-.085c.066.118.077.331.26.364m-.463-.41-.182-.131.29.021Zm-.1.173a3.531,3.531,0,0,1-.032.7l.032.312a4.629,4.629,0,0,0-.127.516c-.27-.009-.14-.322-.217-.5.077-.223-.021-.419.053-.61-.021-.218-.193-.422.034-.595l.258.173m-.5-.1c-.193.065-.311-.139-.494-.029.074.386-.421.29-.463.6.184.367-.581.822.127.93a.941.941,0,0,1,.185.625c.235.41-.378.666-.312,1.108a1.993,1.993,0,0,0,2.068.261c.2-.141.109-.355.032-.519a1.1,1.1,0,0,1-.127-.883,2.422,2.422,0,0,0,.461-.41,8.041,8.041,0,0,1-3.416,6.985,4.056,4.056,0,0,1-.053-.906,4.562,4.562,0,0,1,.829-.29c.042-.194.258-.077.334-.259-.011-.182.185-.378,0-.537-.507-.251,0-.777-.226-1.167.325-.2.355-.592.692-.753a.35.35,0,0,0-.26-.431c.011-.237.152-.572-.206-.623-.291-.047-.127-.4-.408-.467-.344.088-.516-.279-.754-.387V16.2a19.468,19.468,0,0,1,2.123.134l-.13.234m-2.307,9.573.314-.076L97,26.35c-.141-.023-.316-.045-.348-.206m.367.26.106.182-.288-.108Zm-.389-.853c.346-.141.207.217.313.357l-.313.033.053-.347ZM95.6,22.187v-.053l.2.053h-.2m.129.778h-.021v-.346h.021Zm-.075.9a.926.926,0,0,1,.2-.387c-.053-.375.12-.742-.053-1.067l.129-.152-.02-.031c.182-.062,0-.194.127-.28-.15-.152-.366.087-.5-.109l-.251.078v.011c.214.059-.014.279.231.332l.02-.031v.345a4.051,4.051,0,0,0,.055.948c-.074-.291-.5-.065-.463-.335-.323-.062-.281-.429-.592-.539l-.033-.29.129.053.032-.152.2-.031c.09.267-.011.549.228.753l.217-.149a2.6,2.6,0,0,1-.026-.906h-.006l.006-.009-.008-.078a4.7,4.7,0,0,1,.627-.2c.094.079.171.238.313.238.03.193-.194.42,0,.616.094.237.29.193.484.159h.076v.539c-.219-.074-.334.251-.431.369.087.171-.2.194-.162.388-.085.129-.108.386-.312.386l-.076-.257-.1.2c-.141-.043-.076-.29-.055-.411M93.45,17.1v0h0v.112l.061.085.279.133c-.014.158.217.181.129.332l.107.127H94.1c-.066.173.13.249-.055.367-.106-.087-.247-.237-.388-.108-.26.184.011.4-.13.624.24.023.141.369.443.261l.055.052c-.183-.02-.183.251-.388.152l-.055.313c.293.108-.149.41.206.464.1.152.1.463.334.443l.237.258.258.021c0,.15-.194.15-.29.106l-.2-.052c-.268.052,0,.378-.229.461l.1.313h.1l.053.261c.268-.14.71.4.671-.185l.05-.182.261-.074v-.1l.206-.035c0-.366.366.109.366-.279l.041.184-.15.2.2.1c-.248.143-.677.143-.721.5.114.182.02.364,0,.543l.053.252-.053-.252a1.326,1.326,0,0,0-.152-.52l-.314.1c-.3.091-.258.4-.258.649.366.084.291.517.613.592l.131.2c.2-.141.323.065.422.184a1.033,1.033,0,0,0-.078.516c-2.027-1.751-2.023-4.411-2-7.017v-.112m2.463,3.82c.171.032.216.311.461.206.5-.14-.2-.4.109-.668l-.258-.055a8.569,8.569,0,0,1-.7.54l-.291.106-.15.053-.129.2c-.367-.173-.175.282-.337.413-.087-.118-.225-.079-.366-.046l-.052-.258h-.1c-.131-.164.226-.2.053-.345v-.077a.69.69,0,0,0,.649-.127c.085-.26-.144-.249-.26-.39-.077.023-.217.131-.24-.02l-.15-.182h-.108c.108-.358-.42-.325-.2-.671l-.108-.184c.108-.043.247-.021.291-.162l.207.108c-.055.249-.055.561.226.669.225-.044.087.422.346.216a2.932,2.932,0,0,1-.217-1.122c.249.012.344.173.442.367.138.032.129-.139.258-.15-.12-.1-.3-.14-.355-.291a.62.62,0,0,1,.818.182h.183c.044.184-.215.3-.053.464-.1.085-.12.29-.172.442-.023.108-.194.2-.055.314A1.843,1.843,0,0,0,96,19.788l.779.078v1.367c-.194.011-.389.173-.56,0l-.293.109-.076-.055.056-.388m.442,0c-.162.107-.217-.066-.293-.182l.184-.15c.067.076-.044.267.109.332m-.863-2.146.108.1c-.152.02-.268-.185-.387-.078-.247.033-.443.26-.7.184l-.1.332h0v.034a5.191,5.191,0,0,1,.092.513c-.282-.052-.092-.326-.092-.513l-.006-.038-.108-.182-.15.055-.053-.055c.141.043.321-.237.41-.356.129.012.293-.008.314-.162l.2.056.129-.152c.162.152.269-.118.442-.109-.108.1.109.313-.108.367m1.122.464h.173v.109h-.3l.129-.109m-.129-.312Zm.065.58-.194-.084.194.084m-.357-.375-.021.313a.332.332,0,0,0,.266.225l.349.012-.349-.012-.4-.018c-.087-.184.225-.4-.033-.563h-.2V19.03c.173,0,.379-.109.571-.055l-.182.15m.182,2.436.206-.106.074.131.131-.155v.392c-.173-.087-.322.17-.431-.023-.171-.056-.217-.2-.369-.29.152.052.326-.216.389.052m.056.9h.032v.033h-.02Zm0-.225c-.056-.217.193-.258.355-.228l-.334.129.106.206.228.021c-.087.032-.345.075-.355-.129m.355,1.9-.152-.053.129-.111.023.164m-.56-7.587a1.926,1.926,0,0,1,.56,0c-.237.063-.594-.045-.669.29.012.15.162.214.281.259h.389v.075c-.249-.075-.636.076-.745-.238-.074-.184.12-.258.185-.386m-.185.645-.127.033-.033-.206Zm.745-.486v.226a.828.828,0,0,1-.466-.076c-.041-.182.272-.075.39-.15Zm0-.364c-.282.085-.657-.09-.819.255-.172-.115-.345-.1-.442-.311.258-.023.84-.046,1.261-.078Zm-.982.332c.053.17-.2.3-.076.5-.184.1-.172.473-.313.7l-.021.05.26-.217.1-.46.055.161a3.941,3.941,0,0,1,.982,0V18.74a3.407,3.407,0,0,0-.949.129l-.109-.1c.12-.106-.035-.311.129-.421.175.109.335.443.627.24.237-.187-.346-.325-.032-.54a.369.369,0,0,0-.466-.162c-.311.023-.311.486-.643.443-.121.106-.357-.1-.37.182-.29-.344-.267.366-.589.056a.678.678,0,0,1-.261.386c-.152-.106-.268-.172-.411-.257.175-.152-.171-.411.131-.424l.28.162c-.032-.225.443-.138.182-.364l-.023-.185.023-.018.055.05c.12-.117,0-.354.077-.516-.032-.261.343-.583.021-.733-.021-.226.29-.078.386-.226.219.1.422-.226.626,0a.331.331,0,0,0,.334.226m.422,1.637.094.152c-.212.065-.2-.323-.463-.26.034-.127.228-.182.389-.15l-.02.258M93.637,17.22v-.129h.021l.023-.291.13-.046.031-.162.28.109c-.268.44.4.592.129,1.035H94.07l.053-.184c-.141-.1-.247-.366-.485-.332m.645-.649c0,.2.249.378.023.542-.011-.194.046-.508-.2-.616-.149.064-.226-.131-.367-.032-.087.156-.252.279-.284.475v-.475c.334-.062.715-.053,1.067-.1l-.24.2m1.78,7.894a.919.919,0,0,0,.313-.571c.183-.086.1-.285.238-.39l.074.335c-.1.055-.223.1-.2.237-.02.193.2.149.3.225v.938a10.251,10.251,0,0,1-1.078-.774h.354M97.285,22.9a10.622,10.622,0,0,0,.1,1.111h-.1c-.067-.291.018-.659-.076-.929l-.132.044a4.632,4.632,0,0,0,.053.939l-.159.074c.1-.42-.229-1.079.314-1.24m.514-2.663.411.258c.085.442-.3.69-.463,1.035l-.229.152c.044.184-.094.282-.084.442-.2.044-.206-.194-.15-.311.159-.13.018-.323.018-.5.132-.161.067-.431.26-.539-.03-.228.293-.3.237-.54m.009,2.191v.112l-.42-.036v-.076Zm-.443-.149v-.056l.226.056Zm.41.407v.056l-.442-.056Zm-.181.268a3.014,3.014,0,0,0,.185.9l-.088.026a6.7,6.7,0,0,1-.15-.929l-.106-.055Zm.153,0,.049.245c.079.165.217.318.188.5l-.032.03A1.141,1.141,0,0,1,97.8,23.2l-.049-.245m-.023-.807h-.108c.044-.2-.022-.507.258-.542l.366-.548.185.03c.117.346-.325.267-.312.572-.129.162-.366.281-.389.487m-.335-1.37a1.42,1.42,0,0,0-.235.643c.023.155.075.294-.055.411l-.129-.02V19.569a1.149,1.149,0,0,0,.809.463c-.088.281-.367.5-.39.756m-.235,1.941-.15.237V22c.194.129.194.475.15.724m-.367-6.859.085-.052-.237-.209.284-.146a.54.54,0,0,0,.158.482l-.29-.076m-.2-.106-.1-.2ZM94.2,14.19l.127.149a2.546,2.546,0,0,0,.548-.279l.54.627c-.2.171-.4-.108-.59-.162a1.6,1.6,0,0,1-1.036-.258c-.152-.065-.313.021-.466.029a2.041,2.041,0,0,0,.959-1.012h.078c-.127.271.046.671-.159.907m-1.448-3.256c.012-.182.216-.03.258-.182l.024-.574a1.446,1.446,0,0,1,.936.648l.076-.13c-.094-.191-.485-.335-.279-.59.126-.152.334-.12.484-.24l-.281.627.261.442-.109.076a3.676,3.676,0,0,0-.981-.2l-.053.1a1.47,1.47,0,0,0,.959.18c-.366.282-.851.669-1.347.367l.108-.129-.055-.388m2.847-3.7c-.173-.182.094-.235.109-.387l.225-.106L96.007,7c.055.248-.127.516.164.645-.01.229.162.722-.258.669-.281.076-.305-.191-.388-.355.065-.26-.141-.528.074-.724m-.235.076h-.13c-.055-.2.15-.291.182-.439A.912.912,0,0,0,95.1,6.2c-.032-.152.064-.238.13-.344a2.057,2.057,0,0,0,1.27-.1c-.039.2.1.4-.052.569-.3.184-.445-.569-.7-.085l.033.367c-.184.173-.452.2-.419.516v.184m-.41-1.067c-.518-.322-.238-.917-.389-1.42l.2-.467.443.293.021.334a1.3,1.3,0,0,1-.3,1.058ZM95,6.483h-.043V6.44H95Zm-.325-2.716.132-.023V3.97l-.132-.2m.486.334c.185.02.12.139.129.291V4.47l-.15-.055c.161-.055.011-.2.021-.311m.108,2.748-.053.1-.206-.1Zm-.182-.161.053-.258.1.235-.15.023m1.033-1.554-.517.034-.279-.343c.237-.282.044-.734.355-.982a1.274,1.274,0,0,0,.442,1.291M98.552,4.8a1.367,1.367,0,0,1-.517.413l-.367-.134a.883.883,0,0,0,.411-.9c.173.088.355-.323.445-.041l.255.073.035.077-.313.053a1.529,1.529,0,0,0,.052.463m.8,1.683-.312.26a3.762,3.762,0,0,1-.313-.854c.088-.237-.053-.472.108-.675l.108-.153.173.237c-.108.472.667.712.237,1.186M99.33,5.5a.421.421,0,0,1,.172.335c-.044-.1-.2-.194-.172-.335m.2.983c.076.15-.087.268-.076.408l-.312-.018a1.167,1.167,0,0,0,.357-.39Zm-.772.366c-.014-.1.115-.206-.037-.258l.131.2v.077l-.094-.024M98.813,7l-.052.182c-.068-.064-.132-.2.052-.182m.043-2.07-.078-.055.184-.076-.074-.055.074-.225-.129.043V4.6l-.071-.164c.146-.041.244.088.311.185.064.159-.111.268-.217.312m-.131,1.443c-.366.184-.323.6-.28.938.325.1-.055.279-.055.433l-.258.216.108-.185c-.021-.138-.2-.279,0-.387a4.573,4.573,0,0,0-.257-.754.328.328,0,0,0-.162-.431l-.281.043-.023.185c-.171,0-.171-.141-.234-.261l.075-.281a1.2,1.2,0,0,0,1.194-.074,2.714,2.714,0,0,0,.173.56m-.442,1.989-.118-.049Zm-.228-.232-.073.216a1.336,1.336,0,0,0-.422-.032c-.3-.248.162-.464,0-.744l.085-.367L97.9,6.8c-.182.311.454.44.046.7.332.216-.2.408.1.636m-1.293-.171.19.035h-.184ZM96.74,7.8V7.722h.177L96.74,7.8m0-.355h.206v.129H96.74Zm-.03-.291h.259v.127c-.065-.075-.3.079-.259-.127m.053,1.012h.281v.1l-.389.032.108-.129m.83.39L97.82,8.5a3.788,3.788,0,0,1,.085.721c-.28.046-.517-.2-.83-.15l-.158-.624a1.385,1.385,0,0,1,.676.108m-.386-1.7a3.587,3.587,0,0,1,.439.043c-.235.2-.106.561-.288.779.148.2-.23.453.053.645-.345.108-.076-.309-.335-.389l.053-.256c.069-.258-.03-.586.079-.821M98.524,5.7a1.3,1.3,0,0,1-1.24.023l-.076-.076a1.247,1.247,0,0,0,1.366-.315l-.05.369m-.833.777V6.355l.164.106-.13.281a1.022,1.022,0,0,0-.68,0L97.022,7c-.312.118-.249-.2-.442-.28-.175-.043-.452.085-.519-.087l-.129-.1v-.26c.175-.043.088.171.184.225.348.206.507-.257.83-.127.27-.018.528.431.744.088m-1.519.95c-.021-.2.055-.347-.033-.52.164.032.26-.055.42-.018-.009.449.162,1.106-.161,1.387H96.32c.035-.281.1-.645-.149-.848m.484-1.188.185-.153a.249.249,0,0,1,.312.175c-.118.032-.325-.109-.5-.021m0-.26c.032-.106-.064-.3.085-.332a.8.8,0,0,1,.413.149l.023.184a1.059,1.059,0,0,0-.521,0m-1.291-.235c.1-.174.03-.312.052-.516.451.255,1.015-.2,1.347.287a2.142,2.142,0,0,1-1.4.229m1.4,2.716.155.645-.877-.021L95.88,8.5c.3,0,.584-.141.883-.053m-.408.774-.162,1.273A2.654,2.654,0,0,1,94.9,9.92l-.182.129c-.065.194.173.311.29.39a1.862,1.862,0,0,0,2.038.257l1.165-.464L98.294,10,98,9.9a4.2,4.2,0,0,1-1.65.56l.15-1.241c.422.1.876-.1,1.22.185.332-.056.615.226.927.237.29.129.2.455.257.689a15.174,15.174,0,0,1-2.715.807,12.077,12.077,0,0,1-2.038-.677c.182-.217.127-.613.433-.722.484.173.625-.41,1.067-.281a2.229,2.229,0,0,1,.7-.238m1.757.809.02.021a6.382,6.382,0,0,1-1.906.7,2.727,2.727,0,0,1-1.35-.594,9.437,9.437,0,0,0,1.165.486,4.176,4.176,0,0,0,2.071-.616M100,12.3l-.539-.421-.052.055c.117.174.322.312.354.516-.246-.02-.554.1-.746-.15a6.294,6.294,0,0,0,.208-1.012,7.291,7.291,0,0,1,1.055.721c-.053.141-.1.3-.28.291m.238.1c-.108.117-.094.226-.258.106l.258-.106m-1.294.03.226.149-.226-.149M99.59,13c-.71.085-1.162.894-1.789,1.238-.44.291-.864.637-1.314.874a11.608,11.608,0,0,1-1.552-1.551c-.118-.238.075-.431.131-.646h.074c.485.421,1.014.754,1.5,1.164l2.128-1.422a1.481,1.481,0,0,1,.825.343m-.825-.516L96.786,13.8c-.228-.777-.27-1.674-.466-2.48a22.474,22.474,0,0,0,2.621-.83l.132.54a3.973,3.973,0,0,1-.311,1.455m-5.027-.992a1.347,1.347,0,0,0,.548-.411,2.833,2.833,0,0,1,.335.7,3.825,3.825,0,0,1-1.089.443l-.184-.238c.132-.12.467-.216.39-.5m.724-.411.03-.127c-.151-.023-.17-.171-.206-.282a16.062,16.062,0,0,0,1.856.616l.475,2.567-1.477-1.112a8.675,8.675,0,0,0-.678-1.662m.29,2.093c-.194.335.314.926-.334.992.087-.463-.044-1.12.54-1.423.052.14-.141.29-.207.431m4.968.777-.03.03.03-.106Zm1.574.312a1.785,1.785,0,0,1-1.4-.13c.011-.528.088-1.229-.539-1.475a.79.79,0,0,1,.777.106.732.732,0,0,0,.311.389c-.03.2-.407.44-.053.592.355.548.692-.56,1.055,0a.6.6,0,0,1-.15.519m.314-4.712.1-.947a7.356,7.356,0,0,1,.6-.733c-.118-.152-.2.085-.311.085-.345.107-.249,1.1-.756.514V8.131a2.026,2.026,0,0,1,.442-.1,1.416,1.416,0,0,1,1.5-.443c.2.055.291.217.42.369a.937.937,0,0,0-.473-.034c-.325.173.009.508-.018.776l-.135.334c-.152-.029-.279-.2-.408-.02a.865.865,0,0,1-.421.332c.207-.364.366-.754.549-1.131l-.106-.055a3.13,3.13,0,0,0-.572,1.264c-.141.052-.249.15-.41.127M99.8,9.14c.27-.065.184.282.358.388.169-.139-.047-.3-.047-.464.047-.2-.011-.454.173-.6a.594.594,0,0,1,.42.079c.1.247-.065.443-.159.646l.087.076c.138-.206.311-.357.558-.279a.612.612,0,0,1-.173.558c-.15.206-.507.162-.495.442.313.348.839.13,1.187,0,.117-.139.334-.226.366-.408a1.7,1.7,0,0,0,.624-.5c.108.034.23.228.357.078a.813.813,0,0,0,.184-.777l-.074-.3c.159-.055.482-.067.44.2a3.19,3.19,0,0,1-.731,1.835,1.3,1.3,0,0,0,.24-.443l-.058-.043a2.78,2.78,0,0,1-1.63,1.055c.162.153.316-.052.5-.021l.514-.182a1.965,1.965,0,0,1-1.033.28l.04.26a.541.541,0,0,0,.628.237.669.669,0,0,1,.722-.053l-.055.257c-.2.173-.562-.052-.8.056a1.256,1.256,0,0,0,.753.2c.194.139.108.4.26.571v.076c-.268.12-.625.074-.863.24l-.431-.088a1.57,1.57,0,0,1-.053,1.529.491.491,0,0,0-.237-.592c-.29-.1-.528.109-.742.279l-.217-.182c-.011-.173.225-.26.217-.431-.175-.15-.457-.334-.317-.6.208-.216.844.282.671-.335l-.1-.1.172-.239c-.108-.183-.323-.247-.389-.463.12-.1.358-.162.314-.366-.118-.12-.353-.314-.1-.464.044-.141-.076-.208-.108-.313-.171-.2-.517.075-.57-.228l-.31-.116c.194-.284-.192-.455-.1-.756m.581,3.182.064-.261c.129.087.381.034.391.261Zm-.689-2.2.366-.056.076.13a7.787,7.787,0,0,0-.85.184l.053.076c.5.085.838-.26,1.334-.1l-.021.284a6.252,6.252,0,0,0-1.237.108,4.708,4.708,0,0,0,1.237.152l.186.2c-.4.323-.885-.064-1.327-.1l-.076.074c.421.263,1.024.207,1.325.648l.13.184c-.668.011-1.121-.486-1.659-.779.041-.431-.217-.741-.208-1.161a.719.719,0,0,0,.671.15m-.311-.206.084.076-.084-.076m-.337-.979a.618.618,0,0,1,.369.182c.15.281-.046.56-.162.8a1,1,0,0,1-.466-.366c.162-.173.153-.423.26-.613m-.2-.109c-.032.237-.009.562-.281.625-.173-.076-.364-.064-.5-.2a4.026,4.026,0,0,0-.052-.7c.161.087.322-.055.463,0l.365.279m1.144-1.854h.461a.576.576,0,0,0-.13.434c-.156.062-.375-.035-.493.126l.032.132c-.173.117-.516-.153-.569.2-.164.1-.346-.1-.464.085l-.052.225c-.155.033-.261-.179-.445-.15a4.693,4.693,0,0,0,.666-.927c.183-.248.411.183.574-.106.15.02.28.072.42-.023m.174-1.2c.052.194-.079.3-.1.464L99.66,6.4,99.6,6.163c.076,0,.2.187.237,0l-.161-.281a.789.789,0,0,1,.466-.108m.807-.1a1.191,1.191,0,0,1-.055-.754c.064.162-.032.463.182.569.281-.1.163-.407.332-.569-.075.282-.115.687-.46.754m-.164-1.918c-.106.138.078.267.184.313l.2-.129V3.915c.334.118.229.539.293.83a.879.879,0,0,0-.367.551c-.15-.163.118-.519-.228-.551a3.962,3.962,0,0,0-.217-.979Zm-.2.234.073.229h-.226L100.591,4m-.26-.492.184.364c-.162.032-.208.207-.26.334.216.4-.4.325-.2.724-.237.129-.484.311-.464.624l-.181-.216c.108-.335-.143-.756.2-.947.279-.258.41-.671.722-.883m-.593.181h.185c-.13.2-.2.453-.422.6a.436.436,0,0,1-.357-.2c.055-.3.334-.346.593-.39m-.765-.419H98.94V3.239h.033Zm-.118-.36.085.208h-.085Zm-.926.467c.182-.067.064-.251.021-.367.149.094.428.094.439.312.055.2.314.032.293.258.2.108.13.323.225.463a.95.95,0,0,0,.423.347,2.722,2.722,0,0,0-.087.821l-.13-.263c.087-.117.184-.258.087-.408-.293-.13-.162-.581-.517-.517l-.215-.182c-.119.03-.2.17-.336.158-.044-.223-.419-.363-.2-.622m-.151.388.127.127c.011.4.15.952-.366,1.109A.792.792,0,0,1,97,4.8l.073-.055.023.032a1.85,1.85,0,0,0,.68-1.011m-1.091.517.023-.517c.118.065.3.118.366-.055l-.032.592-.357-.02m.26.149-.056.055h-.073V4.412l.129.021m.1-2.326v.366l-.334-.055.053-.334Zm-.258-.172L96.97,1.9Zm.032,1.519-.077.074L96.71,3.3l.388.021-.023.314-.258-.184m.1.184v.052H96.87V3.613l.047.024m.126-.908-.021.261-.312-.024V2.73h.334m-.173-.185.047.032-.027.047Zm.1.6h0m.259.422.419.076a.9.9,0,0,1-.129.5c-.389.023-.32-.314-.289-.572m-.02.613.18.055-.212.258ZM96.687.554a.747.747,0,0,1,.26-.411l.229.389c.007.215.126.57-.1.7a1.063,1.063,0,0,0-.032.519l-.334-.035c.224-.484-.445-.779-.023-1.162m-.516,2.9c.141,0,.26.042.41.032l-.023.539a.8.8,0,0,0-.5.182,1.532,1.532,0,0,1,.109-.753m.387.721V4.6c-.127-.109-.408-.1-.366-.334a.588.588,0,0,1,.366-.088m-.572.182c.572.616,1.382.681,2.07,1.014a1.746,1.746,0,0,0,.574-.461c.03.138-.14.323-.26.43-.68.484-1.573.032-2.178-.3A1.36,1.36,0,0,1,95.8,3.894l.162-.332a1.528,1.528,0,0,0,.02.8m-1.055-.719c.248-.034.055-.392.334-.335l.129-.311c.2-.056.4.136.519-.131h.073c.035.311-.237.548-.364.829L95.394,4c-.117-.223-.551,0-.463-.363m.041.463.056.237-.185-.13.129-.106m-.428-1.058a.523.523,0,0,1,.281.466l-.314.1-.023-.1c.056-.068.27-.046.184-.185h-.184l.056-.28m-.263.6c.206.03.272.267.39.407.064.206-.106.388-.161.574-.293-.185.033-.461-.26-.668Zm-.514.98c-.431-.261-.173-.809-.13-1.164.152-.088.433-.064.485.127a.588.588,0,0,0,.129.593c-.14.279.237.549.108.885l-.078.279c-.017-.355-.592-.322-.514-.721m-.291,1.217h-.021V5.729h.021Zm.678.442c-.184-.043-.517,0-.626-.29.141.1.379.29.6.237l.055-.106c-.1-.087-.284-.153-.207-.3l-.077-.085-.126.216c-.162-.078-.13-.313-.312-.346.171-.141.376.053.57.087a.655.655,0,0,1,.129.592m-.387,1.261c-.077-.193-.334-.355-.056-.537l.282.02c-.023-.216.271-.129.366-.076l.258.334L94.8,7.8a1.625,1.625,0,0,1-1.036-.26m.514-1.131A.547.547,0,0,0,94.3,5.86c-.258-.2.032-.314.132-.487-.109.3.17.627.332.906.075.2-.033.431,0,.668.062.15.26.2.3.335L95.006,7.2c-.085.194.033.433.1.624.183-.062.055-.237.055-.364.247-.032.162.237.185.387v.076L95.006,8c-.02-.628-.56-1.061-.724-1.6m.594,1.884c.13-.139.692-.431.649.055l-.131.021.1-.108-.1-.1-.129.055L95.189,8.1l-.106.106.053.043-.261.032m.39.153-.182.053-.055-.053h.237m.41.053c.12.171.075.463.238.646a1.355,1.355,0,0,1-.7.184,2.355,2.355,0,0,1-.206-.518,1.875,1.875,0,0,1,.669-.312m-1.423.571a.784.784,0,0,1,.592-.237l.129.387.131.26c-.159.226-.559-.011-.744.2a.853.853,0,0,1-.108-.615M91.924,7.625l.42.02a2.324,2.324,0,0,1,.129.615l-.26.087c-.087-.248-.011-.657-.366-.7l-.055.055c.152.322.291.646.42.98-.04.185-.246.291-.366.443-.517-.182-.194-.777-.281-1.164-.087-.109-.1-.281-.237-.314l-.053.055c.03.291.29.7-.024.929L91,8.648l-.078-.874a.432.432,0,0,0-.42-.149,1.424,1.424,0,0,1,1.423,0m-.334,4.516c0-.184-.044-.29-.26-.281a1.246,1.246,0,0,1-.539-.074.716.716,0,0,1,.41-.649l-.2-.053c-.023-.623.818-.2,1.215-.366l.044-.129c-.173-.044-.355-.1-.537-.15a2.185,2.185,0,0,1-1.3-.982,2.458,2.458,0,0,1-.108-1.369c.043-.152.2-.443.42-.291a2.764,2.764,0,0,1,.055.936c.12.132.356.067.516.044l.046-.044c.084.422.537.648.883.875.237,0,.548.257.721-.021-.1-.29-.419-.519-.258-.886l.162-.2c.279.023.064.56.389.385a.511.511,0,0,1,.129-.569L93.6,8.5a.567.567,0,0,1-.129.592l.106.109c.206-.13.193-.357.443-.442.38.507-.906.71.021,1.012l-.279.13c-.141.7-.68-.184-.906.258-.129.193.159.516-.162.594-.065.141-.215.247-.15.44l.055.155c-.185.267-.367.633-.733.7l-.28.1m2.564-2.5-.291-.184L94.07,9.3ZM91.611,12.82a4.655,4.655,0,0,1,1.088-1.2.9.9,0,0,0,.851-.02c-.1.194-.463.258-.355.539.127.075.214.261.387.261-.021.168.281.355.023.473l-.282-.056c-.214.173-.009.53-.182.722-.4-.075-.7-.549-1.162-.311a.646.646,0,0,0-.2.464l.053.288a1.061,1.061,0,0,1-.216-1.164m1.217,1.349a1.349,1.349,0,0,1-.774-.13.653.653,0,0,1-.076-.571c.548-.537.979.722,1.42,0V13a.373.373,0,0,0,.464-.161c.077-.2-.118-.312-.129-.485a2.6,2.6,0,0,0,.906-.442l.164.334c-.325.225-.757.3-.962.7L93.9,13l.932-.646c.246.291-.281.519-.411.777l-.182-.033c-.421.42-.766,1.047-1.4,1.068M90.3,13.856V13.65h.056l-.056.208m-.719-1.22c.02.258-.314.334-.5.44-.076-.353.332-.266.5-.44m.02.311V13l-.076.046Zm-.722.228-.108-.076.164-.052.127.212.261-.106-.056.44a.36.36,0,0,0-.5.185c-.021-.226.238-.367.108-.6m-.464-.3.1-.258a.337.337,0,0,1,.316.2v.1a.5.5,0,0,1-.413-.042m.314.385v.206c-.14-.076-.442-.012-.519-.185l.023-.2c.3-.106.17.348.5.184m.129-.68.228-.02-.1.226-.129-.206m-3.267.39h.033v.078H85.6Zm.13,1.24.053.106a2.916,2.916,0,0,0,.464-1.217l-.076-.076a5.257,5.257,0,0,0-.411,1.111c.069-.571.454-1.086.39-1.757H86c-.074.442-.247.842-.29,1.294l-.258-.13.076-.2.052.053a2.656,2.656,0,0,0,.314-1.143l-.055-.055-.181.367.082-.387-.235-.164.258-.225a.34.34,0,0,0-.258-.42c-.109.009-.271-.1-.337.055.014.149.176.136.261.2h.053l-.03.293c-.1-.207-.422-.293-.337-.549a3.118,3.118,0,0,1,.833-.282.942.942,0,0,1-.238-.539l.7.646.055-.055a4.647,4.647,0,0,1-.551-.677c.293.032.348.388.6.549.065-.149-.107-.335-.161-.5l-.055-.387.331.219.015-.035.161.1c.637.182,1.429-.018,1.93.473l-.26-.074a2.982,2.982,0,0,1,.337.463.662.662,0,0,1,.7.129v.182c-.129-.085-.322-.248-.44-.108l-.055.15c.117.153.443.131.387.314a.455.455,0,0,1-.225.442c-.217-.011-.692.174-.7-.149-.065-.164.131-.258.021-.369-.161.044-.217.228-.332.334a.348.348,0,0,0,.235.314.521.521,0,0,0-.182.41c-.15-.184-.657-.023-.52-.388a4.164,4.164,0,0,1,.261-.519l-.053-.04c-.3.269-.6.6-.442,1-.237.129-.033.454-.3.571.087.174-.064.315-.084.466.1.17.354.193.258.366-.13.03-.334-.087-.41.1-.228.044-.183-.258-.39-.279-.277.011-.45.293-.753.258-.108.042.023.206-.127.206a2.243,2.243,0,0,1,.052-.443m2.361-1.035v.085c-.172.111-.37.206-.551.044-.15-.185.164-.256.181-.387.09.17.531-.087.37.258m.021.259v.26l-.207-.045.1-.214Zm-.369.184c-.149-.033-.334.193-.408,0l.152-.206.257.206M86.08,15.246l.1-.2-.1.2m.486.344v-.127l.087.021-.087.106m.24-.03-.056-.228h-.335c-.149-.087.035-.291-.131-.389l-.127-.238-.053-.127-.076.053.053.26c-.064.249-.312-.077-.385.182l-.13-.129c.032-.184.311-.152.388-.366.269.053.5-.443.7-.078l.335.153c.107-.281.407.021.537-.258l.109-.1-.162-.1.053-.13-.279-.076c.038-.328.3-.074.466-.185l-.208.209h.2l.13-.15-.181.384.05.053c.2-.094.153-.461.413-.437a.377.377,0,0,0,.162-.39l.311.1v.26l-.258-.077-.053.055.334.152A.419.419,0,0,0,89,13.724c.127.023.355.088.442-.074-.076-.173.13-.258.023-.419.127-.032.226-.143.385-.1.1.138.111.354.311.408.078-.161-.127-.322-.182-.408.13-.13.282.021.443-.033.228.431-.41.3-.334.7l-.2.312.094.1a2.061,2.061,0,0,1-.537.127l.15-.279a1.236,1.236,0,0,0-.385-.235l-.185.311.366.2-.85.24.1-.337-.41-.258-.26.464.411.183L87.5,15.1l.13-.312c-.13-.12-.314-.087-.466-.129a1.215,1.215,0,0,0-.214.495l.345.074Zm2.015.721h.2l.032.831a2.43,2.43,0,0,1-1.036,0v-.775l.228-.1v-.828c.171.067.206-.1.293-.184l-.238-.15c.087-.162.13.118.29.023.034.127-.108.3.1.311l.074-.033a3.46,3.46,0,0,0,.056.907m-.854-.615c-.206-.058-.463,0-.667-.058a4.765,4.765,0,0,1,.853-.493l.1.108-.171.056v.871H88.02c-.018-.161.047-.354-.053-.484m-.13.184v1.262a1.5,1.5,0,0,1-.442.053l-.02-1.3.259-.052.055.076Zm.725-.906.053-.053-.023.053Zm-1.7.777A5.939,5.939,0,0,1,90.188,14.4a6.287,6.287,0,0,0-3.331,1.325m.311-.68.044-.2.182.021c0,.164-.062.226-.226.184m1.24-.593-.235-.052.074-.207c.065.065.279.044.185.184l-.024.075m.982-.313-.129-.021v-.076l.129.044ZM83.4,18.992l.118-.385a1.543,1.543,0,0,1,.309.681l-.41.57-.03-.546.13.257.053-.053c-.085-.162-.024-.41-.153-.54l-.018.017-.036.114.036-.114m.147-.643c.358-.268.974-.558.982-1.056l.28-.152a.7.7,0,0,1,.463.129,6.1,6.1,0,0,1-1.314,1.889,3.4,3.4,0,0,0-.411-.81m-.419,1.014.076.021c-.024.261.171.487.032.733a.879.879,0,0,0-.313-.733,1.379,1.379,0,0,0,.257.81l-.052.053a1.092,1.092,0,0,1-.357-.863l.357-.021m-.6,1.3-.235.053a.72.72,0,0,1,.389.572A1.158,1.158,0,0,0,82.4,20.9l-.2.044a.4.4,0,0,1,.282-.392c.268-.065.118-.439.238-.646l.31.5-.085.149a1.2,1.2,0,0,0-.225-.46l-.033.366a.429.429,0,0,1,.085.569.493.493,0,0,0-.238-.364m1.7,5.563c.1-.164-.106-.475.238-.39l.108-.129c.118.261-.088.387-.237.54Zm.625,1.551-.073-.335h.278a.222.222,0,0,1-.2.335m.929-.076.108-.29c.171.011.055.237.129.344l-.24-.058m.776-.26c-.127.141-.323-.02-.355-.159.055-.1.258-.238.332-.078l.023.237m-.023-.645-.182-.162.182-.044Zm-.074-.335-.129-.087.182-.043-.053.129M92.127,24l.165-.261L92.127,24m.087-.519a.548.548,0,0,0-.258.484h-.129l-.625-.571-.053.055.387.5a5.834,5.834,0,0,1-.571.2l-.615-.592-.056.05a3.63,3.63,0,0,1,.443.649h-.722a2.027,2.027,0,0,0-.6-.571l-.043.052a2.483,2.483,0,0,1,.355.54c-.505.174-.86-.3-1.346-.332a.87.87,0,0,1-.1-.81.938.938,0,0,0,.281-1,.606.606,0,0,0-.648-.258c-.1-.14-.032-.343-.055-.518l.032.023a1.845,1.845,0,0,0,.357-1.058l-.044-.052a3.75,3.75,0,0,0-.345.882,4.5,4.5,0,0,0,0-.863c-.56.818.226,1.778-.076,2.695A4.7,4.7,0,0,1,85.9,25.131c-.108.215-.334.4-.2.68.18.279.578.064.8.279l-.335.185.021.182-.127-.087a.467.467,0,0,0,.161.388l.332.108V27a.368.368,0,0,0-.463.2,2.635,2.635,0,0,0-.182-.442l-.13.161.15.314-.3.2-.033.182-.313.024c-.021-.141-.021-.378-.225-.41a.386.386,0,0,0-.443.2c-.161-.1-.084-.279-.076-.419.076-.077.215-.182.2-.338l-.052-.05-.228.217a.662.662,0,0,1-.033-.476l.184-.149c.056.042-.011.29.15.364l.055-.052a7.7,7.7,0,0,1,.2-2.2l-.041-.053c-.519.4-.079,1.231-.736,1.531-.084-.314.238-.455.367-.7l-.109-.162-.258.44c-.225-.3.173-.527.258-.8l.055-.549c.291-.032.6.087.851-.1a.718.718,0,0,0,.294.482c.139-.085-.088-.161-.058-.279-.041-.282.077-.53.026-.775l-.466-.906a2.56,2.56,0,0,1-1.78.442,2.066,2.066,0,0,0-.106.539c-.088.461-.625.29-.908.516-.106-.213.228-.248.282-.44.118-.3.074-.668.343-.9.194.043.369.29.56.161-.053-.182-.343-.173-.484-.312a1.341,1.341,0,0,1-.257-1.22c.4-1.466,1.915-2.467,2.585-3.823.087-.206-.152-.314-.261-.391a.8.8,0,0,0-.624.021.567.567,0,0,0-.225.475c-.27.419-.712.517-1.036.818-.332.087-.59-.127-.885-.2a6.533,6.533,0,0,0,1.867-1.218l-.074-.076c-.5.744-1.436.463-1.9,1.24l-.282.033c-.193-.507.454-.616.517-.983.466-.873,1.555-.257,2.222-.622a1.572,1.572,0,0,1,1.164.463c.076.839-.526,1.454-1,2.1a6.167,6.167,0,0,0-1.422,2.3.916.916,0,0,0,.464.882c1.4-.172,1.261-1.745,1.886-2.618L87.009,17.7c-.185-.275.021-.5,0-.816.062-.141.216-.3.109-.442l-.294.311a4.106,4.106,0,0,0,.13-.9l.237-.162.021,1.605h2.7V15.631a2.151,2.151,0,0,0-.8-.023c-.1.144-.041.347-.053.522h-.108v-.851l-.184-.056h-.042c.01-.139.161-.139.226-.258l-.1-.152a8.4,8.4,0,0,1,1.39-.235c.334.2.745.551,1.112.366a20.209,20.209,0,0,0,2.156-.516c.5-.065.763.43,1.316.258l.106.041a14.6,14.6,0,0,1-2.825.164,1.765,1.765,0,0,0-.8.182l.046.042h.9a2.29,2.29,0,0,0-.484.184c-.053.357.27,1.076-.293,1.111l-.127.132a3.521,3.521,0,0,0-.076-.91L91.2,15.59l-.053.041a2.632,2.632,0,0,0,.1,1.555,8.643,8.643,0,0,1,1.134,1.994,10.887,10.887,0,0,1-.075,2.046l-.334.1L91.74,21.2c.065-.161.238-.312.13-.517l-.044-.042-.237.537c-.486-.234.27-.408.021-.668l-.28.334-.129-.311.334-.311-.076-.078-.237.2c-.1-.27.108-.733-.334-.961,0-.158.117-.4,0-.484l-.182.334c-.173-.118-.078-.4-.173-.493l-.109.235c-.172-.206.12-.517-.053-.7-.1.175-.1.433-.335.5a2.721,2.721,0,0,1-.569-.883c-.087.216.052.463.074.7a2.289,2.289,0,0,1-.874.625,2.121,2.121,0,0,0,.261-.5l-.078-.075c-.29.313-.463.722-.754,1.058a.34.34,0,0,0,.183.39c.551.246,1.176-.284,1.607.159a2.518,2.518,0,0,0-.5.1c.334.138.41.551.625.777a.83.83,0,0,0-.085-.463v-.13c.149.689.56,1.642-.15,2.2l.15.237c.387.02.722-.375,1.068-.161a.7.7,0,0,0,.667-.358l.367.1.279-.053-.206.181c.053.347.627.152.537.595l-.2.161.13.225c-.184.087-.237-.127-.357-.171M89.235,17.12V15.85l.207-.087.312.087v1.316c-.173-.024-.376.043-.519-.053m2.665.756a2.4,2.4,0,0,1-.6-1.091c.152-.15.293-.346.519-.334Zm-1.84,2.325c-.445-.678-1.209,0-1.78-.293-.1-.539.571-.484.85-.776.228-.117.389-.4.649-.429l.235.279.173-.106c.129.473,1.249.7.645,1.247.088.337-.408.809.088.929l.021.281-.235.29a2.313,2.313,0,0,0,.753-.161c.108.172.291.334.5.261.118-.1.055-.285.258-.285l.173.93c-.228-.021-.354-.369-.613-.228-.411.085-.228.539-.678.517-.389-.3-.715.161-1.114.153.011-.153.175-.313.26-.464.249-.713-.118-1.466-.181-2.146m1.088.874-.053-.023.106-.055-.053.077m.26.1c.011.153-.185.121-.282.185.076-.064.152-.344.282-.185M91.05,20.9l-.161-.056L91,20.678l.15.087-.1.13m-.108-.432h.044v.043h-.044Zm.13-.216L91,20.272l.052-.132.023.108m.776,1.165-.055.074h-.073l.127-.074m.571,1.316v.018l-.126-.074.126.056m.355.85-.13-.129.13.055Zm.184-.258c-.354-.173-.138-.581-.387-.8-.087-.375-.13-.777-.184-1.162.174-.228.108-.551.162-.83.29,0,.525.54.83.15-.076-.2-.26-.388-.184-.613-.043-.249-.043-.508-.257-.681-.132.021-.3-.052-.369.088a4.3,4.3,0,0,0-.486-1.347l-.129-2.718a12.918,12.918,0,0,1,3.278-.463c.42-.258.7.279,1.032.463.079.184.037.443.261.539l.214.078a26.337,26.337,0,0,0-3.448.343c-.055,2.967-.237,6.126,2.2,8.1a6.658,6.658,0,0,0,1.249.924c-.182-.085-.276.132-.343.238a1.132,1.132,0,0,0,.033.8c.257.111.451.443.777.313l.127-.106c-.323-.314-.127-.841-.366-1.187,2.857-1.842,3.826-4.96,3.656-8.3-.087-.257.064-.6-.132-.8a20.861,20.861,0,0,0-3.209-.284,1.844,1.844,0,0,1-.24-.721v-.053l.68-.466a15.692,15.692,0,0,1,4.064.56,22.1,22.1,0,0,1-.053,4.143,1.608,1.608,0,0,0-.445.883c.046-.367.162-.8-.071-1.087a.344.344,0,0,0-.5.2,1.086,1.086,0,0,0-.184.756c.246.117.281.428.548.493-.3.161-.173.452-.127.69a.86.86,0,0,0,.352.519c-.407,2.2-2.465,4.051-4.42,5a7.852,7.852,0,0,1-3.933-3.655m-.225-3.157.277-.075a.818.818,0,0,0,.185.516l-.313-.1.182-.052c-.064-.164-.355-.044-.332-.291m.258-.207H92.7v-.387c.269-.1.2.159.291.29Zm8.193-.1L100.9,19.8c-.012-.139.129-.235.074-.366.291-.033.187.226.2.42m-.075.519.075.2L100.9,20.4l.2-.021m-.26-.346.316.034-.056.258c-.118-.033-.289-.118-.26-.291m1.1,1.966c-.067-.268.311-.215.364-.443.046-.267-.129-.622.153-.8a1.65,1.65,0,0,1-.055-.475,6.1,6.1,0,0,1,1.108-1.056l.167-.28c.105.153.288.129.44.206a1.353,1.353,0,0,0,.431.41c.2.323.53.332.777.548.171.228.472.249.6.487-.539.217-1.067-.38-1.639-.021-.214.212-.549.419-.612.721a5.526,5.526,0,0,1,.147,2.255,11.086,11.086,0,0,1-1.573-.2c-.226-.108-.237-.348-.389-.5a2.868,2.868,0,0,0-.625-.021,4.7,4.7,0,0,0,.24-.832c.149,0,.343.228.463,0m-.335-.288.1-.046v.2l-.1-.159m.389-.155.054-.106.021.106Zm4.063.109a4.409,4.409,0,0,0-.182.85c-.066-.149,0-.43-.055-.569a1.349,1.349,0,0,0-.184.7c-.053-.117.011-.433-.152-.419a2.015,2.015,0,0,0-.108.5c-.236.084-.56.2-.613.5l-.109.044c.118.341.055.765.335,1.033l-.076.164-.8.076-.088-.13c-.076.162-.238.13-.388.13-.085-.065.13-.13-.021-.185-.138.258-.408.074-.593.055l-.055-.13c-.1.13-.246.033-.385.021l-.184-.043c-.355.021-.6-.442-.962-.182-.181-.076-.1-.3-.222-.424l-.035-.149.217.021.1-.15h-.208l.078-.129.258-.078-.258-.053c.073-.216.29-.078.44-.078-.212.068.055.272.132.39.387.466.982-.023,1.442.281.207-.044.488.108.605-.13a1.525,1.525,0,0,1,.152-.742,5.187,5.187,0,0,0-.2-1.349.21.21,0,0,1-.053-.334l.281-.258c.539-.032,1.173-.056,1.713-.088l.224-.2c.765.129.206.994.26,1.475l-.224.208c-.035-.208.065-.487-.078-.616m-1.164,1.907a.926.926,0,0,1,.135.455,2.618,2.618,0,0,0-.135-.455m-3.727.443.071.074-.1.033Zm-.056-.821h.041v.044h-.041Zm3.136-2.413.258-.129h.129Zm-2.956.883.111.129-.111-.129m-.181,2.112v.056h-.076l.076-.056m-.15-.152.074-.053v.074Zm-12.841,4.12.085.021a6.294,6.294,0,0,1,.464,1.141,2,2,0,0,1-.979.259c-.141-.182-.335-.323-.369-.569.29-.174.853-.25.853-.727Zm-.39.516a.943.943,0,0,0-.593.28,1.006,1.006,0,0,0,.316.625c-.316-.073-.722-.02-.885-.367a.679.679,0,0,1,.184-.643,1.694,1.694,0,0,1,1.217-.369.37.37,0,0,1-.238.473m-.461-.6.439-.021a1.318,1.318,0,0,0-1.291.8c.035-.419.508-.655.853-.774m14.746,5.517a9.038,9.038,0,0,1-.98-.366,11.642,11.642,0,0,0-7.428-.078l-1.52.521c-.615-.615-.6-1.533-1.012-2.253l.235.2a8.7,8.7,0,0,0,.985-.464,14.2,14.2,0,0,1,10.293.185c.15.043.247-.087.313-.185.023-.194-.129-.322-.235-.463.083-.02.323.173.332.354a9.226,9.226,0,0,1-.982,2.545M91.05,30.931a.74.74,0,0,1,.173-.52,1.022,1.022,0,0,0-.173.52m1.554-.883.225.182v.181a3.649,3.649,0,0,0-1.035.413l-.1-.153a2.456,2.456,0,0,0,1.055-.44Zm8.666-.023a1.431,1.431,0,0,1,1.422.54l.044.159c-.258.065-.5-.1-.723-.182l.106-.184a7.772,7.772,0,0,0-.85-.334m-.26-.034a1.708,1.708,0,0,0,.851.419v.055l-.883-.258c-.106-.323.249-.475.5-.366a.511.511,0,0,0-.466.15m-.216.161a14.274,14.274,0,0,0-7.76.184.714.714,0,0,0-.282-.422,15.368,15.368,0,0,1,8.226-.182.625.625,0,0,0-.184.421m-9.282.444.129.3L91.253,31c-.1-.2.047-.387.155-.54a1.041,1.041,0,0,1,1.141-.258c-.291.217-.733.152-1.036.39m15.268-.865-.907,1.512a.94.94,0,0,1-.68.021,15.886,15.886,0,0,0-10.962-1.889,23.009,23.009,0,0,0-5.769,2.094,1.037,1.037,0,0,1-.6-.1,25.752,25.752,0,0,0-1.5-2.437c-.065-.149.023-.29.03-.44-.008.158-.03.386.13.514a1.884,1.884,0,0,0,1.7.26c.389-.053.646-.4,1.012-.482a19.472,19.472,0,0,1,16.116.223,1.679,1.679,0,0,0,1.65.079.973.973,0,0,0,.388-.436v-.343c.272.618-.476.927-.612,1.422M105.709,28c.127.442,1.162.14.625.779l-.24.3a3.309,3.309,0,0,1-.98-.357,3.776,3.776,0,0,1,.549-1.165c-.127.141-.011.3.046.442m1.476.2a.643.643,0,0,1,0,.519,1.417,1.417,0,0,1-.906.387c-.01-.175.225-.175.235-.332a1.55,1.55,0,0,0,.134-.42c-.241-.348-.952-.143-.833-.724a1.455,1.455,0,0,1,1.37.571M106,27.46a1.452,1.452,0,0,1,1.314.594l.053.182A1.456,1.456,0,0,0,106,27.46m1.476.569a1.491,1.491,0,0,0-1.121-.722,1.212,1.212,0,0,0-.85.185,5.591,5.591,0,0,0-.54,1.134,20.773,20.773,0,0,0-3.212-1.111,21.536,21.536,0,0,0-4.547-.539,9.352,9.352,0,0,0,3.543-3.159c-.118.26.326.138.228.408.2.217.452-.075.7-.053a5.545,5.545,0,0,0,3.256.442c.194-.087.237-.29.291-.463.076-.433-.615-.83-.108-1.165a2.317,2.317,0,0,0,1.24-.722,5.6,5.6,0,0,0-.075,1.813,6.286,6.286,0,0,0,1.864,1.5,1.36,1.36,0,0,1,.387,1.445c-.161.17.026.528-.258.6-.281.109-.636.1-.8.41m.357.338h-.13l.13-.132Zm.128.18v-.109h.023l-.023.109m.28.021h-.1l.1-.1Zm.572-.042h-.055l.034-.109.021.109m.334-.159-.1-.078.1.055Zm1.478-6.806c.129.271-.13.453-.077.725-.258.279-.29.719-.754.719-.326.229-.949-.4-.983.106v.155h.032v.087h-.032v-.242l-.052-.075a5.279,5.279,0,0,0-.173,1.317c.034.161.056.357.228.44l.032-.021c.161.217.337.563.613.669.165.442-.184.8-.15,1.237l.185,1.276-.053.1-.258-.044-.114.075-.093-.159-.056.311c-.173-.084-.272.112-.328.223v.018l.075.149-.164-.056.084-.082v-.014l.006-.015-.006-.3-.087-.056a.747.747,0,0,0-.074.375l-.127-.191-.23.078.282-.49-.053-.05a.532.532,0,0,0-.314.387l-.3-.13h-.053c.163-.237.53-.225.777-.366l.2-.258c.085-.528.323-1.284-.109-1.736A6.628,6.628,0,0,0,107.479,25c-.376-.476-1.293-.766-1.088-1.522a8.346,8.346,0,0,1,.2-1.423L106.54,22c-.108-.5.519-1.355-.331-1.5-.24-.042-.413-.268-.627-.366-.065-.1.053-.293-.1-.335l-.075.206c-.183-.139-.312-.214-.291-.464l-.076-.075-.075.257c-.247-.009-.067-.29-.2-.385l-.088.15-.225-.181-.077-.261-.085.055v.053c-.086-.171-.3-.171-.335-.39l-.051.152c-.282-.181.01-.572-.152-.83a.553.553,0,0,0-.109.549l.036.023c-.13.649-.92.786-1.2,1.347a.561.561,0,0,0-.228.594c.064.2-.258.335-.108.569v.111l-.184.02-.1.152c-.009-.238.131-.508-.032-.722-.173.182-.108.571-.043.807h.043l-.258-.03c-.132.234-.237-.129-.407.03-.035-.182-.155-.367-.112-.549.584-.4.334-1.144.906-1.552.367-.291.421-.712.68-1.055a2.289,2.289,0,0,1,.313-.831,3.665,3.665,0,0,1-.182.572l.05.055c.413-.5.392-1.22.669-1.792l-.108-.05-.355.85a3.64,3.64,0,0,1,.724-1.65l-.109-.033a1.571,1.571,0,0,0-.482.627c0-.164.1-.345,0-.5l.646-.408,1,.281.235.346c-.431,0-.15.615-.235.927h-.1c-.02-.173.044-.376-.055-.519-.28.065-.592-.138-.774.079v1.6a1.088,1.088,0,0,0,.7,0c.282-.053.54.109.854.056h1.086l.055-.056V16.41c.118.077.322.109.335.291-.173.281.118.569-.055.851l-.056-.074-.073.053a1.9,1.9,0,0,0,.592,1.369,9.994,9.994,0,0,1,.885,2.2c.192.452.465,1.155,1.076,1.164.206-.044.475-.031.551-.288a3.631,3.631,0,0,0-.776-2.17,2.831,2.831,0,0,1,.959-3c.422.827-.431,1.39-.473,2.153l.053.044a5.239,5.239,0,0,0,.517-1.185c.226.69-.258,1.229-.388,1.833l.076.084a2.43,2.43,0,0,0,.312-.753c.27.4-.139.753-.18,1.141l.052.046a1.849,1.849,0,0,0,.335-.745c.127.422-.184.722-.284,1.088l.056.043c.173-.127.228-.376.334-.56.162.27-.055.671-.2.952l.053.052a1.252,1.252,0,0,0,.3-.518c.082.334-.141.528-.259.776l.052.055.29-.388c.046.3-.258.475-.341.722l.052.055.336-.389-.075.258m-1.812,2.017h-.023V23.4h.023Zm-4.269-7.059-.024,1.272a2.492,2.492,0,0,1-.516.04l.021-1.334.185.023.052-.109.282.109" transform="translate(-54.621)" fill="#fff"/>
        <path id="Path_137" data-name="Path 137" d="M122.516,9.213a1.055,1.055,0,0,0-.517.678c.2-.182.378-.421.571-.625Z" transform="translate(-81.409 -6.148)" fill="#fff"/>
        <path id="Path_138" data-name="Path 138" d="M131.233,10.409a1.95,1.95,0,0,1-.517-.482v.184a.59.59,0,0,0,.517.3" transform="translate(-87.225 -6.624)" fill="#fff"/>
        <path id="Path_139" data-name="Path 139" d="M117.769,10.607a.959.959,0,0,0,.1.862l.162.463.022-.029c-.129-.413-.108-.886-.26-1.3Z" transform="translate(-78.548 -7.078)" fill="#fff"/>
        <path id="Path_140" data-name="Path 140" d="M135.7,11.543v-.164a2.413,2.413,0,0,0-.646,1.273c.258-.335.41-.756.646-1.109" transform="translate(-90.123 -7.593)" fill="#fff"/>
        <path id="Path_141" data-name="Path 141" d="M139.757,12.782c-.032-.087-.032-.257-.179-.237a.271.271,0,0,0-.132.367Zm-.179-.108.053.088-.078.02Z" transform="translate(-93.034 -8.37)" fill="#fff"/>
        <path id="Path_142" data-name="Path 142" d="M120.736,13.716a2.821,2.821,0,0,0-.072,1.272,2.032,2.032,0,0,0,.128-1.272Z" transform="translate(-80.482 -9.153)" fill="#fff"/>
        <path id="Path_143" data-name="Path 143" d="M133.239,16.778h.033a3.272,3.272,0,0,0-.13-1.349,3.6,3.6,0,0,0,.1,1.349" transform="translate(-88.822 -10.296)" fill="#fff"/>
        <path id="Path_144" data-name="Path 144" d="M136.029,17.927v-.1l-.162-.13-.1.056Z" transform="translate(-90.599 -11.811)" fill="#fff"/>
        <path id="Path_145" data-name="Path 145" d="M119.883,18.4c-.064-.117-.141-.281-.281-.311l.2.7c.141-.087.055-.258.078-.39" transform="translate(-79.809 -12.071)" fill="#fff"/>
        <path id="Path_146" data-name="Path 146" d="M123.621,21.015l-.053-.043c-.055.332-.237.841.053,1.111.055-.27-.021-.732,0-1.068" transform="translate(-82.385 -13.994)" fill="#fff"/>
        <path id="Path_147" data-name="Path 147" d="M132.756,21.929c.378-.27.853-.387,1.238-.616l-.055-.055a2.239,2.239,0,0,0-1.217.649Z" transform="translate(-88.565 -14.185)" fill="#fff"/>
        <path id="Path_148" data-name="Path 148" d="M118.778,21.883a2.789,2.789,0,0,0-.831-.464,1.221,1.221,0,0,0,.831.464" transform="translate(-78.705 -14.293)" fill="#fff"/>
        <path id="Path_149" data-name="Path 149" d="M129.254,22.5a2.317,2.317,0,0,0,.106-.851l-.13.291c.035.194-.2.452.024.56" transform="translate(-86.184 -14.447)" fill="#fff"/>
        <path id="Path_150" data-name="Path 150" d="M116.267,25.216a.535.535,0,0,0-.056.571c.133-.117.078-.389.056-.571" transform="translate(-77.509 -16.826)" fill="#fff"/>
        <path id="Path_151" data-name="Path 151" d="M137.75,25.892l-.13-.129c.064.161,0,.424.052.519Z" transform="translate(-91.832 -17.191)" fill="#fff"/>
        <path id="Path_152" data-name="Path 152" d="M108.407,26.864a6.981,6.981,0,0,1-.39-.777l-.021.2c-.032.465.411.8.777.963.023-.184-.258-.206-.366-.39" transform="translate(-72.063 -17.408)" fill="#fff"/>
        <path id="Path_153" data-name="Path 153" d="M138.527,27.816l.1-.335a2.43,2.43,0,0,1-.354.443l.018.023Z" transform="translate(-92.266 -18.338)" fill="#fff"/>
        <path id="Path_154" data-name="Path 154" d="M111.838,28.84v-.052a2.994,2.994,0,0,1-1.241-.595l-.03.023a1.4,1.4,0,0,0,1.272.623" transform="translate(-73.78 -18.814)" fill="#fff"/>
        <path id="Path_155" data-name="Path 155" d="M139.915,29.794c.162-.074.355-.268.332-.431-.323.388-.806.388-1.206.59a1.155,1.155,0,0,0,.874-.159" transform="translate(-92.781 -19.594)" fill="#fff"/>
        <path id="Path_156" data-name="Path 156" d="M97.112,31.368v-.033a2.275,2.275,0,0,1-.744-.184l-.176-.062-.019.041a.987.987,0,0,0,.939.238" transform="translate(-64.175 -20.745)" fill="#fff"/>
        <path id="Path_157" data-name="Path 157" d="M156.9,32.7l-.15.257a.561.561,0,0,0,.1.391,1.151,1.151,0,0,0,.055-.648" transform="translate(-104.594 -21.822)" fill="#fff"/>
        <path id="Path_158" data-name="Path 158" d="M111,32.769a7.971,7.971,0,0,0-.991.258.822.822,0,0,0,.6-.024.708.708,0,0,0,.387-.234" transform="translate(-73.41 -21.866)" fill="#fff"/>
        <path id="Path_159" data-name="Path 159" d="M98.311,33.707a.74.74,0,0,0,.7-.314,1.574,1.574,0,0,0-1.5-.539l-.079.043c.367.2.56.542.874.81m.076-.464.032.335c-.193.011-.27-.219-.366-.335Z" transform="translate(-65.019 -21.921)" fill="#fff"/>
        <path id="Path_160" data-name="Path 160" d="M111.942,33.966l-.032-.032a4.917,4.917,0,0,0-.8.5l.366-.078a1.239,1.239,0,0,0,.463-.387" transform="translate(-74.145 -22.644)" fill="#fff"/>
        <path id="Path_161" data-name="Path 161" d="M141.119,35.537c-.149-.032-.344-.152-.464-.043a6.158,6.158,0,0,0,1.22.408,4.066,4.066,0,0,0-.756-.366" transform="translate(-93.858 -23.655)" fill="#fff"/>
        <path id="Path_162" data-name="Path 162" d="M152.714,35.9c.226-.064.52.03.722-.076-.191-.162-.346-.452-.665-.41-.358-.011-.088.28-.164.443l-.279-.13.129.15a.845.845,0,0,0,.8.184c-.118-.13-.376-.065-.54-.161m.152-.281.26.108h-.281Z" transform="translate(-101.647 -23.629)" fill="#fff"/>
        <path id="Path_163" data-name="Path 163" d="M97.189,37.073a6.813,6.813,0,0,1-.162-1.035H97c-.053.337-.152.83.185,1.035" transform="translate(-64.693 -24.048)" fill="#fff"/>
        <path id="Path_164" data-name="Path 164" d="M113.721,36.416c-.1.053-.247.118-.279.258a3.753,3.753,0,0,1,.626-.184c-.044-.139-.226-.053-.347-.074" transform="translate(-75.699 -24.295)" fill="#fff"/>
        <path id="Path_165" data-name="Path 165" d="M156.215,36.637a.851.851,0,0,0,.572.184.681.681,0,0,0-.572-.184" transform="translate(-104.241 -24.442)" fill="#fff"/>
        <path id="Path_166" data-name="Path 166" d="M151.908,36.91l-.288-.032c.211.032.32.369.515.348Z" transform="translate(-101.174 -24.608)" fill="#fff"/>
        <path id="Path_167" data-name="Path 167" d="M95.532,37.816l-.182.337a.7.7,0,0,0,.108.624,4.006,4.006,0,0,0,.074-.961" transform="translate(-63.611 -25.234)" fill="#fff"/>
        <path id="Path_168" data-name="Path 168" d="M113.262,38.476c.141,0,.268.258.388.129a.689.689,0,0,0-.754-.334.775.775,0,0,0-.387.228c.238.031.507-.173.753-.023" transform="translate(-75.076 -25.527)" fill="#fff"/>
        <path id="Path_169" data-name="Path 169" d="M156.333,39.3a1.129,1.129,0,0,0-.258-.539l-.032.021a.629.629,0,0,0,.29.517" transform="translate(-104.123 -25.865)" fill="#fff"/>
        <path id="Path_170" data-name="Path 170" d="M138.673,38.973l-.184.129h.8a1.178,1.178,0,0,0-.616-.129" transform="translate(-92.412 -26.002)" fill="#fff"/>
        <path id="Path_171" data-name="Path 171" d="M160.088,39.77a.507.507,0,0,0-.088-.464c.032.12-.065.378.088.464" transform="translate(-106.765 -26.228)" fill="#fff"/>
        <path id="Path_172" data-name="Path 172" d="M148.051,40.538l.022-.388Z" transform="translate(-98.793 -26.792)" fill="#fff"/>
        <path id="Path_173" data-name="Path 173" d="M105.43,40.6a.794.794,0,0,0-.473-.216.63.63,0,0,0,.473.216" transform="translate(-70.037 -26.944)" fill="#fff"/>
        <path id="Path_174" data-name="Path 174" d="M94.672,41.027a1.125,1.125,0,0,0-.217.645.808.808,0,0,0,.217-.645" transform="translate(-63.028 -27.377)" fill="#fff"/>
        <path id="Path_175" data-name="Path 175" d="M96.985,41.094l-.032.666c.12-.161.064-.428.076-.666Z" transform="translate(-64.696 -27.422)" fill="#fff"/>
        <path id="Path_176" data-name="Path 176" d="M148.99,42.036c.193.033.332-.138.463-.223-.152.007-.4.03-.463.223" transform="translate(-99.419 -27.901)" fill="#fff"/>
        <path id="Path_177" data-name="Path 177" d="M150.453,43.8l-.129-.314-.335.216.15.335Zm-.226-.13.044.052-.1.13.053-.182" transform="translate(-100.086 -29.02)" fill="#fff"/>
        <path id="Path_178" data-name="Path 178" d="M95.47,43.65a1.108,1.108,0,0,0-.237.389l.055.032Z" transform="translate(-63.548 -29.127)" fill="#fff"/>
        <path id="Path_179" data-name="Path 179" d="M153.1,44.651l-.042-.257c-.046-.27-.4-.046-.572-.023l.228.5Zm-.334-.225.184.13-.184.127c-.021-.076-.161-.246,0-.258" transform="translate(-101.752 -29.536)" fill="#fff"/>
        <path id="Path_180" data-name="Path 180" d="M104.357,45.01l-.419-.485c-.068.268.225.464.419.485" transform="translate(-69.35 -29.711)" fill="#fff"/>
        <path id="Path_181" data-name="Path 181" d="M95.633,45.055a.54.54,0,0,0,.417-.237.469.469,0,0,0-.417.237" transform="translate(-63.815 -29.907)" fill="#fff"/>
        <path id="Path_182" data-name="Path 182" d="M108,46.232a4.373,4.373,0,0,0-.779-1.086c0,.246.207.464.314.7a.8.8,0,0,0,.464.387" transform="translate(-71.547 -30.125)" fill="#fff"/>
        <path id="Path_183" data-name="Path 183" d="M155.839,46.026l-.111-.334-.354.171.13.367Zm-.24-.162.076.13-.1.056.023-.187" transform="translate(-103.68 -30.49)" fill="#fff"/>
        <path id="Path_184" data-name="Path 184" d="M106.518,46.207a2.192,2.192,0,0,0,.44.757,1.191,1.191,0,0,0-.44-.757" transform="translate(-71.078 -30.833)" fill="#fff"/>
        <path id="Path_185" data-name="Path 185" d="M112.961,46.371c-.191.109-.152.369-.237.552a.783.783,0,0,0,.551.774.33.33,0,0,0,.408-.1c-.3-.263-.162-.7-.314-1.041-.009-.225-.235-.169-.408-.181m-.053.909V47.26l.053.074Zm.106-.747c.27-.106.2.15.28.279v.111h-.312l.032-.39m.185.929.17-.109c-.094-.1-.323,0-.332-.207l.311-.1a.805.805,0,0,0,.13.519l-.279-.108" transform="translate(-75.216 -30.943)" fill="#fff"/>
        <path id="Path_186" data-name="Path 186" d="M139.359,47.942l.336-.035c-.213-.364.11-.828-.075-1.241-.065-.137-.24-.124-.385-.124a1.136,1.136,0,0,0-.314.979,3.539,3.539,0,0,1,.438.422m-.106-.314.217-.031.076.181-.293-.15m-.042-.369.3.034-.039.228c-.1.023-.314-.064-.26-.261m.024-.309.073-.263c.291-.084.182.252.2.392v.053c-.1-.053-.4.032-.274-.182m-.185.431h.043v.043h-.043Z" transform="translate(-92.691 -31.056)" fill="#fff"/>
        <path id="Path_187" data-name="Path 187" d="M101.717,46.857v.3l.152-.023-.023-.281Z" transform="translate(-67.875 -31.267)" fill="#fff"/>
        <path id="Path_188" data-name="Path 188" d="M143,46.915a3.5,3.5,0,0,0-.055.888c.1-.261.271-.648.055-.888" transform="translate(-95.37 -31.306)" fill="#fff"/>
        <path id="Path_189" data-name="Path 189" d="M104.894,48.835l-.032-.293h-.129v.314Z" transform="translate(-69.888 -32.392)" fill="#fff"/>
        <path id="Path_190" data-name="Path 190" d="M98.831,48.7v.261h.078l.076-.152Z" transform="translate(-65.949 -32.498)" fill="#fff"/>
        <path id="Path_191" data-name="Path 191" d="M152.164,49.1l-.032-.305H152v.335Z" transform="translate(-101.43 -32.564)" fill="#fff"/>
        <path id="Path_192" data-name="Path 192" d="M100.679,49.317v.26h.087l.1-.1c.052-.138-.065-.17-.184-.161" transform="translate(-67.182 -32.908)" fill="#fff"/>
        <path id="Path_193" data-name="Path 193" d="M102.952,49.483l-.159-.161v.291h.108Z" transform="translate(-68.592 -32.913)" fill="#fff"/>
        <path id="Path_194" data-name="Path 194" d="M120.855,50.072l-.41-.094v.149l.15.074c.26-.309-.041.162.129.184l-.1.185c.056.172-.225.269-.128.483.1.152.011.315.078.445a.557.557,0,0,0,.2-.54c.27-.152-.064-.466.26-.593l-.076-.087-.129-.021.053-.106.021.032.162.127.3-.2-.044-.055a1.679,1.679,0,0,1-.475.021m-.206,1.014c-.053-.152.056-.309.13-.42-.064.132-.171.25-.13.42" transform="translate(-80.372 -33.35)" fill="#fff"/>
        <path id="Path_195" data-name="Path 195" d="M104.763,50.226c-.206-.087-.2.184-.152.291l.184-.032Z" transform="translate(-69.789 -33.504)" fill="#fff"/>
        <path id="Path_196" data-name="Path 196" d="M98.929,50.358h-.1v.281l.129-.021Z" transform="translate(-65.95 -33.603)" fill="#fff"/>
        <path id="Path_197" data-name="Path 197" d="M148.9,50.833l.159-.03-.032-.313H148.9Z" transform="translate(-99.357 -33.691)" fill="#fff"/>
        <path id="Path_198" data-name="Path 198" d="M84.061,51.109c.376-.355.936-.309,1.422-.43v-.035a4.222,4.222,0,0,0-1.088.076c-.139.1-.346.2-.334.389" transform="translate(-56.093 -33.795)" fill="#fff"/>
        <path id="Path_199" data-name="Path 199" d="M154.888,50.75v.257h.074l.086-.106Z" transform="translate(-103.355 -33.865)" fill="#fff"/>
        <path id="Path_200" data-name="Path 200" d="M150.966,51.266h-.127v.29H151Z" transform="translate(-100.653 -34.21)" fill="#fff"/>
        <path id="Path_201" data-name="Path 201" d="M153.126,51.524l-.021-.258h-.159v.29Z" transform="translate(-102.059 -34.21)" fill="#fff"/>
        <path id="Path_202" data-name="Path 202" d="M148.884,52.206l-.053.2.149.109.055-.256Z" transform="translate(-99.313 -34.837)" fill="#fff"/>
        <path id="Path_203" data-name="Path 203" d="M154.888,52.35l.032.235.129-.02-.032-.26Z" transform="translate(-103.355 -34.903)" fill="#fff"/>
        <path id="Path_204" data-name="Path 204" d="M85.772,53.508l.021.024c.263-.206.68-.443.724-.779-.27.217-.494.53-.745.754" transform="translate(-57.235 -35.202)" fill="#fff"/>
        <path id="Path_205" data-name="Path 205" d="M92.122,56.617a2.037,2.037,0,0,0,.386,2.038l.023-.023a2.277,2.277,0,0,1-.334-1.583c.528-1.3,1.175-2.61,1.683-3.9-.667,1.1-1.059,2.363-1.757,3.471" transform="translate(-61.383 -35.464)" fill="#fff"/>
        <path id="Path_206" data-name="Path 206" d="M87,56.482c-.152.161-.064.484.023.646A1.3,1.3,0,0,0,87,56.482" transform="translate(-57.999 -37.69)" fill="#fff"/>
        <path id="Path_207" data-name="Path 207" d="M143.45,58.165c.152-.42.744-.616.809-1.068-.282.335-.777.648-.809,1.068" transform="translate(-95.723 -38.1)" fill="#fff"/>
        <path id="Path_208" data-name="Path 208" d="M122.594,57.974c-.129.055-.334-.012-.366.15.171-.076.139.14.291.131Z" transform="translate(-81.561 -38.685)" fill="#fff"/>
        <path id="Path_209" data-name="Path 209" d="M121.531,58.663l-.153-.076-.032.2c-.172.118-.184.3-.226.466-.1.267.215.461,0,.675.571.067.184-.666.334-.936-.021-.141.249-.228.1-.355Zm-.238.885h-.021v-.389h.021Z" transform="translate(-80.809 -39.094)" fill="#fff"/>
        <path id="Path_210" data-name="Path 210" d="M140.583,62.317a.767.767,0,0,0-.1.722c.181-.129.065-.508.1-.722" transform="translate(-93.706 -41.583)" fill="#fff"/>
        <path id="Path_211" data-name="Path 211" d="M155.051,63.768a1.672,1.672,0,0,0-.161-1.135c.009.335.083.713.106,1.091Z" transform="translate(-103.356 -41.794)" fill="#fff"/>
        <path id="Path_212" data-name="Path 212" d="M98.006,63.483a1.534,1.534,0,0,1-.13.417l-.2.048c.117.171.343.158.44.343a2.072,2.072,0,0,0-.032-.571Z" transform="translate(-65.176 -42.362)" fill="#fff"/>
        <path id="Path_213" data-name="Path 213" d="M90.344,65.648c-.152.055-.249.237-.39.316a.509.509,0,0,0,.39-.316" transform="translate(-60.025 -43.806)" fill="#fff"/>
        <path id="Path_214" data-name="Path 214" d="M156.429,68.467h.033c.009-.519.064-1.055.052-1.552a1.936,1.936,0,0,0-.085,1.552" transform="translate(-104.304 -44.652)" fill="#fff"/>
        <path id="Path_215" data-name="Path 215" d="M106.9,68.783l.032.023c.45-.184,1.024-.055,1.446-.311l-.024-.023c-.452.171-1.141-.173-1.454.311" transform="translate(-71.334 -45.691)" fill="#fff"/>
        <path id="Path_216" data-name="Path 216" d="M101.544,68.539a1.223,1.223,0,0,0-.313.7c0,.161.023.337.161.407.032-.181-.085-.407,0-.613.012-.182.173-.332.152-.493" transform="translate(-67.55 -45.735)" fill="#fff"/>
        <path id="Path_217" data-name="Path 217" d="M134.874,69.959l.311-.02c-.181-.433.2-.786.1-1.22a.447.447,0,0,0-.357-.182,1.51,1.51,0,0,0-.42.571c-.29.423.3.552.367.851m.1-1.259c.325-.035.088.268.162.43l-.312-.075Zm-.2.56.291.032-.076.311.023.026-.018.017.038.185c-.139.023-.184-.12-.258-.2l.208.023.008-.049c-.091-.1-.257-.161-.216-.343" transform="translate(-89.702 -45.734)" fill="#fff"/>
        <path id="Path_218" data-name="Path 218" d="M85.025,69.066c-.032.14-.206.281-.1.408l.2-.182a.66.66,0,0,0,.13-.592Z" transform="translate(-56.648 -45.843)" fill="#fff"/>
        <path id="Path_219" data-name="Path 219" d="M117.776,70.276a3.288,3.288,0,0,0-.366-.7.393.393,0,0,0-.443.129,1.253,1.253,0,0,0,.085.745c.067.3.379.216.563.345a.341.341,0,0,0,.44-.181c-.085-.141-.279-.164-.279-.338m-.571-.159a.986.986,0,0,0-.055-.355c.139-.207.291.117.367.255l-.312.1m.369.466.094-.024.053-.055c-.087-.106-.387.023-.411-.2l.284-.132.075.26.2.2-.3-.05" transform="translate(-78.037 -46.409)" fill="#fff"/>
        <path id="Path_220" data-name="Path 220" d="M93.113,75.1c-.078.115-.2.258-.111.41.184-.165.2-.453.443-.593Z" transform="translate(-62.039 -49.994)" fill="#fff"/>
        <path id="Path_221" data-name="Path 221" d="M163.669,79.357a7.783,7.783,0,0,0-.076,1.314,2.582,2.582,0,0,0,.076-1.314" transform="translate(-109.162 -52.954)" fill="#fff"/>
        <path id="Path_222" data-name="Path 222" d="M92.128,81.421l.127-.076A.614.614,0,0,0,92,80.753Z" transform="translate(-61.389 -53.886)" fill="#fff"/>
        <path id="Path_223" data-name="Path 223" d="M126.06,82.331c-.161.108-.357.237-.389.44-.045.337-.077.745.258.941.152.126.357-.055.5.041l.02-.388-.2.347-.26-.055c.023-.388-.2-1.036.184-1.294.206-.01.27.237.313.355l.024-.333c-.155.141-.249-.152-.443-.054" transform="translate(-83.841 -54.924)" fill="#fff"/>
        <path id="Path_224" data-name="Path 224" d="M129.946,82.567h-.389a1.032,1.032,0,0,1-.023.592l-.314-.032c.033-.194-.065-.484.079-.592h-.434l.076.055v1.24l-.108.05h.387a1.283,1.283,0,0,1,.033-.666l.3.023c-.023.226.062.539-.077.668l.42-.024h-.029a11.7,11.7,0,0,1-.023-1.27Z" transform="translate(-85.97 -55.075)" fill="#fff"/>
        <path id="Path_225" data-name="Path 225" d="M120.809,83.578l-.053.293c-.052.173-.26.181-.388.15-.055-.431-.1-.862-.153-1.295l.1-.1c-.138.053-.356-.023-.484.076l.1.02.161,1.325-.075.078.873-.108Z" transform="translate(-79.961 -55.139)" fill="#fff"/>
        <path id="Path_226" data-name="Path 226" d="M132.884,82.7l-.032.021.075.053-.127,1.217-.076.076.83.079.056-.413c-.056.12-.087.281-.24.334l-.312-.021a4.01,4.01,0,0,1,.111-.625c.17.011.117.216.2.291a3.321,3.321,0,0,0,.034-.549l-.108.2-.152-.02a2.541,2.541,0,0,0,.044-.466c0-.182.13-.032.235-.077.162.045.141.218.206.337V82.77c-.26-.011-.495-.053-.745-.074" transform="translate(-88.565 -55.184)" fill="#fff"/>
        <path id="Path_227" data-name="Path 227" d="M116.589,84.719l-.1.044.279-.044H116.7c-.117-.107,0-.279,0-.417h.311c-.007.138.252.268.047.364a.773.773,0,0,0,.443-.108c-.358-.344-.431-.929-.746-1.316-.127.452-.064,1-.161,1.476m.129-.5v-.41l.184.387Z" transform="translate(-77.734 -55.547)" fill="#fff"/>
        <path id="Path_228" data-name="Path 228" d="M136.534,83.308l-.364.055c-.478.463.332.713.258,1.164l-.282.129c-.2-.064-.171-.278-.2-.44l-.109.366c.182-.118.249.2.442.129a.457.457,0,0,0,.311-.26c.217-.453-.385-.625-.385-1.013.032-.138.2-.15.311-.1a.516.516,0,0,1,.173.387l.056-.344Z" transform="translate(-90.64 -55.591)" fill="#fff"/>
        <path id="Path_229" data-name="Path 229" d="M139.9,84.282l.076-.445a7.335,7.335,0,0,1-.851-.2,1.306,1.306,0,0,0-.129.408c.1-.129.206-.389.408-.279l-.3,1.217-.161.023a1.923,1.923,0,0,0,.52.111l-.1-.056.018-.055a9.725,9.725,0,0,1,.337-1.187c.214.067.118.3.182.464" transform="translate(-92.717 -55.809)" fill="#fff"/>
        <path id="Path_230" data-name="Path 230" d="M113.142,83.836l.076-.046-.226.046.1.032-.1.648-.106-.108c-.055-.161-.334-.3-.238-.467-.141-.041-.292.067-.431.111l.021.023.021-.023a7.359,7.359,0,0,1,.517.648c.065.2.215.5.087.666a4.121,4.121,0,0,0,.515-.15h-.107a2.065,2.065,0,0,1-.129-1.379" transform="translate(-74.881 -55.912)" fill="#fff"/>
        <path id="Path_231" data-name="Path 231" d="M142.391,84.637c.2.044.214.25.234.41l.1-.311-.779-.26.075.056-.41,1.212h-.1a6.26,6.26,0,0,0,.7.262c.2.073.216-.279.237-.367l-.182.238-.388-.056a2.661,2.661,0,0,1,.258-.592l.108.313a1.644,1.644,0,0,0,.152-.519l-.282.15a3.337,3.337,0,0,1,.174-.537Z" transform="translate(-94.427 -56.37)" fill="#fff"/>
        <path id="Path_232" data-name="Path 232" d="M109.7,85.078a.672.672,0,0,0-.367.343,1.024,1.024,0,0,0,.291,1.006.459.459,0,0,0,.484.127.586.586,0,0,0,.313-.335,1.188,1.188,0,0,0-.073-.721c-.141-.214-.358-.475-.648-.42m.226,1.4a2.935,2.935,0,0,1-.357-1.272c.226-.171.367.088.411.261a3.46,3.46,0,0,1,.2.961l-.26.05" transform="translate(-72.937 -56.767)" fill="#fff"/>
        <path id="Path_233" data-name="Path 233" d="M145.088,85.58l.074.053-.443,1.184-.106.023c.15.043.29.132.442.165l-.072-.079a2.582,2.582,0,0,1,.257-.624c.364.248-.185.537.076.8l.255.088-.074-.055.058-.238a.453.453,0,0,0-.188-.537l.021-.034a.486.486,0,0,0,.424-.021l.053-.335a1.351,1.351,0,0,0-.775-.387m.387.7-.217-.032.187-.487.182.152a.651.651,0,0,1-.152.367" transform="translate(-96.499 -57.107)" fill="#fff"/>
        <path id="Path_234" data-name="Path 234" d="M106.317,87.075c-.108-.117-.281-.088-.421-.133.15-.084.345-.234.313-.44-.238-.484-.774-.087-1.088.055h.106l.485,1.262-.042.052a2.734,2.734,0,0,0,.464-.182l-.035-.023-.094.023a2.212,2.212,0,0,1-.238-.669c.4-.061.279.4.549.539l.335-.078c-.238.015-.176-.288-.335-.4m-.516-.133c-.206-.039-.153-.32-.261-.463.164-.237.366.065.389.26l-.127.2" transform="translate(-70.146 -57.566)" fill="#fff"/>
        <path id="Path_235" data-name="Path 235" d="M119.348,91.54a.212.212,0,0,1,.2-.267c.216-.039.341.156.416.325l.053-.009-.078-.423-.05.009-.048.087-.3-.049c-.228.044-.36.223-.3.533.1.537.756.4.825.778a.243.243,0,0,1-.2.3c-.223.039-.384-.194-.436-.38l-.061.014.088.469.039-.008.07-.1.3.061a.456.456,0,0,0,.346-.557c-.108-.6-.8-.458-.857-.783" transform="translate(-79.553 -60.833)" fill="#fff"/>
        <path id="Path_236" data-name="Path 236" d="M124.572,92.3l-.537-1.545-.1.006-.329,1.607-.118.007v.061l.343-.023v-.062l-.152.011.083-.439.328-.02.146.422h-.118v.061l.548-.036v-.059Zm-.794-.444.108-.536h0l.179.516Z" transform="translate(-82.403 -60.561)" fill="#fff"/>
        <path id="Path_237" data-name="Path 237" d="M128.861,91.7l.118.006-.023.313c-.011.209-.056.308-.2.3s-.181-.167-.162-.425l.035-.508c.03-.458.085-.643.314-.626.176.011.268.176.309.45h.07l.031-.461-.069-.006-.065.1a.481.481,0,0,0-.323-.156c-.2-.014-.6.115-.655.871-.012.214.036.789.529.822.434.03.552-.323.568-.572v-.073h.079v-.059l-.554-.035Z" transform="translate(-85.571 -60.51)" fill="#fff"/>
        <path id="Path_238" data-name="Path 238" d="M133.517,91.427l-.1-.023-.733,1.468-.117-.023-.012.059.335.065.012-.058-.147-.029.194-.4.322.065.032.442-.115-.023-.015.061.542.1.011-.058-.089-.021Zm-.534.994.243-.489h0l.038.545Z" transform="translate(-88.453 -60.993)" fill="#fff"/>
        <path id="Path_239" data-name="Path 239" d="M99.119,154.717c0,.164-.059.234-.19.234-.223,0-.2-.3-.531-1.117-.211-.521-.437-.768-.978-.768-.613,0-1.027.482-1.027,1.214,0,.7.261.85,1.438,1.71.908.658,1.676,1.25,1.676,2.335a2.306,2.306,0,0,1-2.524,2.262c-.59,0-1.605-.235-1.605-.671,0-1.769.073-1.853.271-1.853.261,0,.132.261.461,1.109.282.719.684,1.083,1.3,1.083a1.219,1.219,0,0,0,1.228-1.308c0-2.086-3.161-1.829-3.161-4.232a1.961,1.961,0,0,1,2.049-1.888,2.869,2.869,0,0,1,1.535.282.581.581,0,0,1,.059.343Z" transform="translate(-63.645 -101.981)" fill="#fff"/>
        <path id="Path_240" data-name="Path 240" d="M110.773,157.448l-.13-.032c0-.037.05-.13.3-1.052.388-1.391.388-1.461.447-1.461s.046.047.223.66c.449,1.555.519,1.771.519,1.853l-.106.032Zm1.344.334c.155,0,.155.094.39.955a9.623,9.623,0,0,1,.3,1.106.269.269,0,0,1-.2.273c-.4.1-.519.083-.519.19l.152.141c.132,0,.555-.047,1.194-.047.434,0,.812.047,1,.047.213,0,.249-.047.249-.13,0-.141-.141-.1-.413-.2-.235-.084-.3-.521-.9-2.428-1.449-4.717-1.355-4.86-1.6-4.86-.212,0-.129.049-1.167,3.468-.955,3.151-1.074,3.7-1.344,3.821-.247.1-.4.035-.4.212l.117.118c.118,0,.319-.047.885-.047.282,0,.742.047.848.047.176,0,.213-.085.213-.155,0-.152-.329-.106-.552-.176-.263-.084-.358-.2-.358-.354,0-.082.061-.237.3-1.228.167-.681.167-.753.341-.753Z" transform="translate(-72.637 -101.98)" fill="#fff"/>
        <path id="Path_241" data-name="Path 241" d="M131.678,157.546c0-.3-.071-.375-.542-.424l-.2-.153c0-.1.035-.175.191-.175.127,0,.424.047,1.082.047.378,0,.85-.047.955-.047l.19.141-.223.186c-.2.026-.3.072-.3.272v2.086c0,.507-.872,1.109-2.029,1.109-1.968,0-2.923-2.1-2.923-3.856,0-2.4,1.461-3.9,3.147-3.9a2.936,2.936,0,0,1,1.557.328l.071.3V154.7c0,.144,0,.285-.167.285s-.272-.461-.518-.933c-.19-.34-.47-.93-.979-.93-1.51,0-1.841,1.627-1.841,3.575,0,2.534.9,3.571,1.782,3.571.458,0,.742-.211.742-.66Z" transform="translate(-85.335 -101.983)" fill="#fff"/>
        <path id="Path_242" data-name="Path 242" d="M147.062,157.448l-.132-.032c0-.037.049-.13.3-1.052.388-1.391.388-1.461.449-1.461s.046.047.222.66c.447,1.555.519,1.771.519,1.853l-.106.032Zm1.343.334c.153,0,.153.094.392.955a9.082,9.082,0,0,1,.293,1.106.268.268,0,0,1-.2.273c-.4.1-.517.083-.517.19l.152.141c.129,0,.552-.047,1.191-.047.437,0,.813.047,1,.047.213,0,.249-.047.249-.13,0-.141-.141-.1-.413-.2-.235-.084-.306-.521-.9-2.428-1.449-4.717-1.355-4.86-1.6-4.86-.213,0-.131.049-1.168,3.468-.956,3.151-1.071,3.7-1.344,3.821-.249.1-.4.035-.4.212l.118.118c.117,0,.319-.047.883-.047.284,0,.744.047.85.047.178,0,.213-.085.213-.155,0-.152-.331-.106-.554-.176-.26-.084-.355-.2-.355-.354,0-.082.061-.237.3-1.228.164-.681.164-.753.34-.753Z" transform="translate(-96.85 -101.98)" fill="#fff"/>
      </g>
    </g>
  </g>
</svg>
