<svg xmlns="http://www.w3.org/2000/svg" xmlns:xlink="http://www.w3.org/1999/xlink" width="103.11" height="61.631" viewBox="0 0 103.11 61.631">
  <defs>
    <clipPath id="clip-path">
      <rect id="Rectangle_5" data-name="Rectangle 5" width="103.11" height="61.631" fill="none"/>
    </clipPath>
  </defs>
  <g id="logo_01_3" clip-path="url(#clip-path)">
    <path id="Path_275" data-name="Path 275" d="M141.9,24.773h3.046L133.723,0l-1.265,2.788L122.5,24.773h3.046c.432-.951,1.052-2.32,1.762-3.889h5.028v8.67h2.843v-8.67h4.955l1.763,3.889m-6.718-6.739V12.462h-2.843v5.571H128.6c1.959-4.326,4.158-9.177,5.125-11.307.963,2.13,3.16,6.981,5.122,11.307Z" transform="translate(-81.424)" fill="#fff"/>
    <path id="Path_276" data-name="Path 276" d="M.437,131.083v-7.056a.633.633,0,0,0-.087-.373.643.643,0,0,0-.35-.165v-.2H1.951v.2a.652.652,0,0,0-.35.17.578.578,0,0,0-.089.369v7.056a.6.6,0,0,0,.086.369.655.655,0,0,0,.353.173v.2H0v-.2a.672.672,0,0,0,.353-.173.6.6,0,0,0,.084-.369" transform="translate(0 -81.947)" fill="#fff"/>
    <path id="Path_277" data-name="Path 277" d="M20.145,123.5l-.976,1.618-.192-.1a1.378,1.378,0,0,0,.118-.347c0-.128-.168-.263-.506-.408a7.241,7.241,0,0,0-2.9-.592,5.182,5.182,0,0,0-2.193.433,1.947,1.947,0,0,0-.711.551,1.133,1.133,0,0,0-.262.708.987.987,0,0,0,.2.592,1.284,1.284,0,0,0,.538.417,3.327,3.327,0,0,0,.866.216c.339.037.879.067,1.635.092,1.043.026,1.789.072,2.239.131a3.41,3.41,0,0,1,1.112.315,1.935,1.935,0,0,1,1.158,1.811,2.229,2.229,0,0,1-1.052,1.9,5.449,5.449,0,0,1-3.21.828,8.45,8.45,0,0,1-2.057-.22,11.026,11.026,0,0,1-2.1-.809,2.2,2.2,0,0,0-.4-.14c-.064,0-.174.073-.318.226l-.183-.109,1.019-1.571.191.1a1.033,1.033,0,0,0-.13.333c0,.136.294.343.873.621a6.652,6.652,0,0,0,3.083.708,4.171,4.171,0,0,0,2.618-.7A1.361,1.361,0,0,0,19.2,129q0-.837-1.014-1.158a3.051,3.051,0,0,0-.676-.134c-.235-.018-.9-.048-2-.087a13.316,13.316,0,0,1-1.834-.159,4,4,0,0,1-1.181-.39,1.945,1.945,0,0,1-.766-.7,1.8,1.8,0,0,1-.281-.982,2.027,2.027,0,0,1,.733-1.563,3.97,3.97,0,0,1,1.509-.751,7.809,7.809,0,0,1,2.1-.269,8.388,8.388,0,0,1,1.739.171,10.557,10.557,0,0,1,1.812.586,1.186,1.186,0,0,0,.278.089c.082,0,.2-.084.335-.254Z" transform="translate(-7.275 -81.638)" fill="#fff"/>
    <path id="Path_278" data-name="Path 278" d="M45.421,131.006h5.947a.723.723,0,0,0,.4-.082.527.527,0,0,0,.18-.315h.219v1.614h-.219a.527.527,0,0,0-.18-.317.712.712,0,0,0-.407-.084H43.907v-.2a.654.654,0,0,0,.352-.171.6.6,0,0,0,.086-.369v-7.056a.617.617,0,0,0-.087-.37.662.662,0,0,0-.35-.168v-.2h1.948v.2a.633.633,0,0,0-.347.168.6.6,0,0,0-.087.37Z" transform="translate(-29.184 -81.948)" fill="#fff"/>
    <path id="Path_279" data-name="Path 279" d="M74.6,128.6l2.09-4.2,2.089,4.2Zm5.34,2.352a1.2,1.2,0,0,1,.151.39c0,.151-.131.24-.394.278v.2H81.91v-.2a1.11,1.11,0,0,1-.506-.213,5.519,5.519,0,0,1-.476-.85l-3.274-6.5a1.047,1.047,0,0,1-.119-.315c0-.107.112-.194.333-.26v-.2H75.605v.2c.225.052.335.133.335.243a.984.984,0,0,1-.125.332L72.4,130.808a2.4,2.4,0,0,1-.386.625.759.759,0,0,1-.427.191v.2h2.081v-.2c-.271-.046-.4-.127-.4-.254a.83.83,0,0,1,.113-.326l.824-1.626h4.97Z" transform="translate(-47.586 -81.947)" fill="#fff"/>
    <path id="Path_280" data-name="Path 280" d="M107.066,124.372v6.712a.584.584,0,0,0,.087.364.659.659,0,0,0,.347.176v.2h-1.855v-.2a.66.66,0,0,0,.355-.171.621.621,0,0,0,.082-.369v-7.058a.442.442,0,0,0-.437-.537v-.2h2.676v.2q-.321.1-.321.28c0,.084.107.242.321.469l5.59,6.013v-6.226a.628.628,0,0,0-.089-.373.617.617,0,0,0-.348-.164v-.2h1.858v.2a.607.607,0,0,0-.35.164.615.615,0,0,0-.089.373v7.058a.583.583,0,0,0,.089.369.653.653,0,0,0,.35.171v.2h-2.155v-.2c.208-.052.315-.139.315-.259,0-.093-.1-.24-.287-.451Z" transform="translate(-70.221 -81.948)" fill="#fff"/>
    <path id="Path_281" data-name="Path 281" d="M142.594,124.1h3.358a5.536,5.536,0,0,1,1.754.228,2.489,2.489,0,0,1,1.112.762,3.672,3.672,0,0,1,.825,2.459,4.23,4.23,0,0,1-.262,1.508,2.878,2.878,0,0,1-1.237,1.529,4.453,4.453,0,0,1-2.191.419H142.6Zm-1.17,7.357a.772.772,0,0,1-.344.165v.2h4.91a6.46,6.46,0,0,0,2.511-.407,3.54,3.54,0,0,0,1.574-1.351,4.482,4.482,0,0,0,.69-2.514,4.644,4.644,0,0,0-.512-2.2,3.635,3.635,0,0,0-1.705-1.635,6.038,6.038,0,0,0-2.557-.43h-4.91v.2a.756.756,0,0,1,.344.161l.1.29v7.232l-.1.286" transform="translate(-93.774 -81.948)" fill="#fff"/>
    <path id="Path_282" data-name="Path 282" d="M183.664,127.834H177.3v3.25a.583.583,0,0,0,.085.369.669.669,0,0,0,.352.173v.2h-1.948v-.2a.657.657,0,0,0,.349-.173.6.6,0,0,0,.087-.369v-7.056a.612.612,0,0,0-.092-.373.6.6,0,0,0-.344-.165v-.2h1.948v.2a.637.637,0,0,0-.349.17.589.589,0,0,0-.089.369v2.993h6.36v-2.993a.62.62,0,0,0-.087-.375.6.6,0,0,0-.35-.164v-.2h1.951v.2a.643.643,0,0,0-.349.17.6.6,0,0,0-.087.369v7.056a.594.594,0,0,0,.087.364.652.652,0,0,0,.349.177v.2h-1.951v-.2a.675.675,0,0,0,.35-.173.6.6,0,0,0,.087-.369Z" transform="translate(-116.847 -81.947)" fill="#fff"/>
    <path id="Path_283" data-name="Path 283" d="M210.749,131.083v-7.056a.588.588,0,0,0-.092-.373.6.6,0,0,0-.344-.165v-.2h1.947v.2a.634.634,0,0,0-.346.17.569.569,0,0,0-.09.369v7.056a.6.6,0,0,0,.086.369.661.661,0,0,0,.35.173v.2h-1.947v-.2a.669.669,0,0,0,.35-.173.6.6,0,0,0,.086-.369" transform="translate(-139.792 -81.947)" fill="#fff"/>
    <path id="Path_284" data-name="Path 284" d="M224.158,131.006h5.947a.716.716,0,0,0,.4-.082.49.49,0,0,0,.18-.315h.22v1.614h-.22a.511.511,0,0,0-.18-.317.7.7,0,0,0-.4-.084h-7.458v-.2a.636.636,0,0,0,.349-.171.6.6,0,0,0,.086-.369v-7.056a.586.586,0,0,0-.089-.37.628.628,0,0,0-.346-.168v-.2H224.6v.2a.622.622,0,0,0-.347.168.574.574,0,0,0-.09.37Z" transform="translate(-147.991 -81.948)" fill="#fff"/>
    <path id="Path_285" data-name="Path 285" d="M252.82,131.006h5.947a.721.721,0,0,0,.407-.082.5.5,0,0,0,.182-.315h.219v1.614h-.219a.5.5,0,0,0-.182-.317.708.708,0,0,0-.407-.084h-7.455v-.2a.629.629,0,0,0,.347-.171.577.577,0,0,0,.086-.369v-7.056a.606.606,0,0,0-.086-.37.632.632,0,0,0-.347-.168v-.2h1.948v.2a.621.621,0,0,0-.348.168.581.581,0,0,0-.092.37Z" transform="translate(-167.044 -81.948)" fill="#fff"/>
    <path id="Path_286" data-name="Path 286" d="M288.9,123.5l-.976,1.618-.189-.1a1.452,1.452,0,0,0,.115-.347c0-.128-.17-.263-.5-.408a7.251,7.251,0,0,0-2.908-.592,5.179,5.179,0,0,0-2.191.433,1.924,1.924,0,0,0-.713.551,1.14,1.14,0,0,0-.26.708.988.988,0,0,0,.2.592,1.287,1.287,0,0,0,.54.417,3.268,3.268,0,0,0,.865.216c.333.037.881.067,1.632.092,1.043.026,1.791.072,2.24.131a3.409,3.409,0,0,1,1.11.315,1.934,1.934,0,0,1,1.159,1.811,2.227,2.227,0,0,1-1.054,1.9,5.441,5.441,0,0,1-3.207.828,8.446,8.446,0,0,1-2.059-.22,10.939,10.939,0,0,1-2.1-.809,2.2,2.2,0,0,0-.4-.14c-.066,0-.174.073-.32.226l-.185-.109,1.023-1.571.188.1a.975.975,0,0,0-.128.333c0,.136.294.343.873.621a6.627,6.627,0,0,0,3.083.708,4.164,4.164,0,0,0,2.615-.7,1.363,1.363,0,0,0,.594-1.1q0-.837-1.014-1.158a3.008,3.008,0,0,0-.679-.134c-.234-.018-.9-.048-1.988-.087a13.346,13.346,0,0,1-1.838-.159,3.99,3.99,0,0,1-1.179-.39,1.919,1.919,0,0,1-.768-.7,1.816,1.816,0,0,1-.283-.982,2.021,2.021,0,0,1,.737-1.563,3.936,3.936,0,0,1,1.5-.751,7.822,7.822,0,0,1,2.107-.269,8.4,8.4,0,0,1,1.737.171,10.606,10.606,0,0,1,1.814.586,1.28,1.28,0,0,0,.276.089c.084,0,.2-.084.336-.254Z" transform="translate(-185.909 -81.638)" fill="#fff"/>
    <path id="Path_287" data-name="Path 287" d="M66.278,164.315l-.774,1.138-.133-.084.1-.2c0-.1-.184-.237-.546-.41a4.749,4.749,0,0,0-2.147-.524,3.493,3.493,0,0,0-2.149.658,2.374,2.374,0,0,0-1,2.01,2.337,2.337,0,0,0,.954,1.962,3.594,3.594,0,0,0,2.25.674,4.448,4.448,0,0,0,1.372-.206,3.252,3.252,0,0,0,1.1-.577v-1.173H63.646a.588.588,0,0,0-.306.06l-.133.24h-.158v-1.2h.158l.133.242a.6.6,0,0,0,.306.06h2.741v.144l-.26.127-.067.274v.825l.067.278.26.127v.127a5.88,5.88,0,0,1-1.081.731,5.38,5.38,0,0,1-2.513.57,4.342,4.342,0,0,1-2.809-.862,3.169,3.169,0,0,1-.838-1.019,3.035,3.035,0,0,1-.352-1.424,2.923,2.923,0,0,1,.687-1.913,3.606,3.606,0,0,1,1.7-1.126,5.3,5.3,0,0,1,1.626-.249,5.633,5.633,0,0,1,1.41.173,6.813,6.813,0,0,1,1.4.557.97.97,0,0,0,.272.112l.248-.2Z" transform="translate(-39.079 -108.733)" fill="#fff"/>
    <path id="Path_288" data-name="Path 288" d="M86.774,166.729V169.1h4.447a.558.558,0,0,0,.3-.061l.131-.238h.159V170h-.159l-.136-.238a.573.573,0,0,0-.3-.061H85.654v-.145l.263-.125.064-.275v-5.271l-.067-.274-.26-.13v-.139h5.5a.543.543,0,0,0,.3-.063l.139-.237h.156v1.2H91.6L91.463,164a.549.549,0,0,0-.3-.061H86.774v2.184h2.871a.573.573,0,0,0,.3-.058l.131-.24h.158v1.2H90.08l-.131-.238a.537.537,0,0,0-.3-.064Z" transform="translate(-56.933 -108.374)" fill="#fff"/>
    <path id="Path_289" data-name="Path 289" d="M108.6,169.753v-5.271l-.067-.278-.258-.125v-.139h1.447v.139l-.259.13-.067.274v5.271l.064.275.262.125v.145h-1.447v-.145l.261-.125Z" transform="translate(-71.971 -108.968)" fill="#fff"/>
    <path id="Path_290" data-name="Path 290" d="M123.312,167.323h-4.741v2.43l.062.275.266.125v.145h-1.451v-.145l.263-.125.067-.275v-5.271l-.069-.278-.262-.125v-.139H118.9v.139l-.262.13-.067.275v2.24h4.741v-2.24l-.064-.28-.26-.125v-.139h1.448v.139l-.263.13-.064.274v5.271l.064.274.263.127v.145h-1.448v-.145l.26-.125.064-.275Z" transform="translate(-78.067 -108.968)" fill="#fff"/>
    <path id="Path_291" data-name="Path 291" d="M143.476,169.753v-5.271l-.069-.278-.26-.125v-.139H144.6v.139l-.26.13-.063.274v5.271l.063.275.26.125v.145h-1.448v-.145l.263-.125Z" transform="translate(-95.148 -108.968)" fill="#fff"/>
    <path id="Path_292" data-name="Path 292" d="M153.386,164.742v5.013l.069.274.26.127v.147h-1.39v-.147l.263-.125.066-.275v-5.271l-.066-.278-.263-.125v-.137h2v.137c-.161.054-.24.122-.24.213,0,.064.079.179.24.353l4.16,4.489v-4.651l-.064-.278-.261-.125v-.137h1.389v.137l-.262.125-.067.278v5.271l.067.275.262.125v.147H157.94v-.147c.157-.035.234-.1.234-.188,0-.07-.07-.183-.213-.338Z" transform="translate(-101.248 -108.97)" fill="#fff"/>
    <path id="Path_293" data-name="Path 293" d="M179.828,167.856v1.9l.07.274.258.127v.147H178.71v-.147l.258-.125.066-.275V164.48l-.066-.278-.258-.125v-.139h1.446v.139l-.258.13-.07.275v2.649l3.723-2.692.2-.231-.193-.131v-.139h1.84v.139a1.215,1.215,0,0,0-.6.232l-2.809,2.01,3.091,3.609.21.173.291.052v.147H183.9v-.147c.147-.029.22-.073.22-.135a1.118,1.118,0,0,0-.223-.321l-2.508-2.952Z" transform="translate(-118.786 -108.967)" fill="#fff"/>
    <path id="Path_294" data-name="Path 294" d="M202.171,167.912l1.569-3.163,1.571,3.163Zm4,1.748a.838.838,0,0,1,.112.289c0,.113-.1.183-.294.2v.147h1.642v-.147a.725.725,0,0,1-.375-.155,4.152,4.152,0,0,1-.355-.63l-2.439-4.857-.091-.237c0-.076.084-.144.249-.2v-.139h-1.687v.139q.248.062.248.183l-.093.249-2.54,5.038a2.031,2.031,0,0,1-.284.466l-.318.137v.147h1.537v-.147c-.2-.027-.3-.092-.3-.183l.089-.248.61-1.211H205.6Z" transform="translate(-132.902 -108.969)" fill="#fff"/>
    <path id="Path_295" data-name="Path 295" d="M226.354,164.742v5.013l.066.274.262.127v.147h-1.389v-.147l.263-.125.066-.275v-5.271l-.067-.278-.262-.125v-.137h2v.137c-.162.054-.238.122-.238.213,0,.064.076.179.238.353l4.161,4.489v-4.651l-.067-.278-.262-.125v-.137h1.389v.137l-.26.125-.066.278v5.271l.066.275.26.125v.147h-1.606v-.147c.157-.035.234-.1.234-.188,0-.07-.07-.183-.213-.338Z" transform="translate(-149.749 -108.97)" fill="#fff"/>
    <path id="Path_296" data-name="Path 296" d="M26.951,101.729H26.94l-.422,2.395H26.05l.742-3.78,1.246,2.858,1.245-2.858.742,3.78h-.466l-.424-2.395h-.011L28.038,104.2Z" transform="translate(-17.315 -66.697)" fill="#fff"/>
    <path id="Path_297" data-name="Path 297" d="M44.266,103.927a1.447,1.447,0,1,1,.005,0m0-3.358a1.9,1.9,0,1,0,1.9,1.89,1.906,1.906,0,0,0-1.9-1.89" transform="translate(-28.16 -66.847)" fill="#fff"/>
    <path id="Path_298" data-name="Path 298" d="M59.36,101.215h.159c.924,0,1.72.341,1.72,1.4s-.8,1.4-1.72,1.4H59.36Zm-.453,3.213h.734a1.827,1.827,0,1,0,.015-3.627h-.749Z" transform="translate(-39.155 -67.001)" fill="#fff"/>
    <path id="Path_299" data-name="Path 299" d="M72.58,100.8h1.948v.414h-1.5v1.015h1.451v.413H73.033v1.372h1.5v.413H72.58Z" transform="translate(-48.243 -67.001)" fill="#fff"/>
    <path id="Path_300" data-name="Path 300" d="M84.522,101.206h.121c.446,0,.986.082.986.648s-.5.664-.962.664h-.145Zm.659,1.644a.986.986,0,0,0,.872-1.014,1.01,1.01,0,0,0-.476-.865,1.924,1.924,0,0,0-.957-.17h-.551v3.627h.453v-1.534h.188l1.069,1.534h.548Z" transform="translate(-55.88 -67.001)" fill="#fff"/>
    <path id="Path_301" data-name="Path 301" d="M95.745,100.284l2.725,2.852v-2.679h.453v3.776L96.2,101.381v2.7h-.453Z" transform="translate(-63.641 -66.658)" fill="#fff"/>
    <path id="Path_302" data-name="Path 302" d="M119.775,101.206h.119c.448,0,.988.082.988.648s-.5.664-.963.664h-.144Zm.659,1.644a.986.986,0,0,0,.87-1.014,1,1,0,0,0-.475-.865,1.922,1.922,0,0,0-.957-.17h-.549v3.627h.453v-1.534h.187l1.069,1.534h.547Z" transform="translate(-79.312 -67.001)" fill="#fff"/>
    <path id="Path_303" data-name="Path 303" d="M131.131,100.8h1.948v.414h-1.5v1.015h1.453v.413h-1.453v1.372h1.5v.413h-1.948Z" transform="translate(-87.161 -67.001)" fill="#fff"/>
    <path id="Path_304" data-name="Path 304" d="M143.851,101.335a.622.622,0,0,0-.581-.341.57.57,0,0,0-.606.514c0,.285.277.433.5.518l.26.1c.514.2.9.485.9,1.089a1.118,1.118,0,0,1-1.159,1.132,1.133,1.133,0,0,1-1.123-1.014l.459-.1a.686.686,0,1,0,1.371-.02c0-.389-.313-.557-.625-.687l-.252-.106c-.413-.177-.789-.413-.789-.919a.991.991,0,0,1,1.069-.939,1.032,1.032,0,0,1,.933.549Z" transform="translate(-94.416 -66.847)" fill="#fff"/>
    <path id="Path_305" data-name="Path 305" d="M155.486,103.927a1.455,1.455,0,1,1,1.031-.434,1.458,1.458,0,0,1-1.031.434m0-3.358a1.9,1.9,0,1,0,1.9,1.89,1.907,1.907,0,0,0-1.9-1.89" transform="translate(-102.085 -66.847)" fill="#fff"/>
    <path id="Path_306" data-name="Path 306" d="M170.693,101.206h.119c.45,0,.989.082.989.648s-.5.664-.962.664h-.145Zm.661,1.644a.987.987,0,0,0,.872-1.014,1,1,0,0,0-.477-.865,1.922,1.922,0,0,0-.957-.17h-.548v3.627h.45v-1.534h.189l1.068,1.534h.549Z" transform="translate(-113.158 -67.001)" fill="#fff"/>
    <path id="Path_307" data-name="Path 307" d="M182.075,104.429h-.451v-3.213h-.861V100.8h2.173v.414h-.861Z" transform="translate(-120.151 -67.001)" fill="#fff"/>
    <path id="Path_308" data-name="Path 308" d="M200.791,103.244l1.025-2.675,1.024,2.675,1.014-2.6h.493l-1.507,3.771-1.024-2.659-1.025,2.659-1.5-3.771h.49Z" transform="translate(-132.463 -66.847)" fill="#fff"/>
    <path id="Path_309" data-name="Path 309" d="M219.243,100.8h1.947v.414H219.7v1.015h1.451v.413H219.7v1.372h1.494v.413h-1.947Z" transform="translate(-145.728 -67.001)" fill="#fff"/>
    <path id="Path_310" data-name="Path 310" d="M231.066,101.215h.159c.925,0,1.722.341,1.722,1.4s-.8,1.4-1.722,1.4h-.159Zm-.453,3.213h.737a1.827,1.827,0,1,0,.015-3.627h-.752Z" transform="translate(-153.285 -67.001)" fill="#fff"/>
    <path id="Path_311" data-name="Path 311" d="M244.625,101.215h.158c.924,0,1.724.341,1.724,1.4s-.8,1.4-1.724,1.4h-.158Zm-.454,3.213h.739a1.827,1.827,0,1,0,.012-3.627h-.751Z" transform="translate(-162.297 -67.001)" fill="#fff"/>
    <rect id="Rectangle_4" data-name="Rectangle 4" width="0.453" height="3.627" transform="translate(86.445 33.8)" fill="#fff"/>
    <path id="Path_312" data-name="Path 312" d="M265.064,100.284l2.724,2.852v-2.679h.451v3.776l-2.722-2.852v2.7h-.453Z" transform="translate(-176.185 -66.658)" fill="#fff"/>
    <path id="Path_313" data-name="Path 313" d="M283.294,102.445v.144a1.682,1.682,0,0,1-1.716,1.76,1.891,1.891,0,1,1,1.525-3.082l-.317.306a1.431,1.431,0,0,0-2.591.878,1.482,1.482,0,0,0,1.41,1.482,1.221,1.221,0,0,0,1.19-1.077h-.938v-.414Z" transform="translate(-185.944 -66.846)" fill="#fff"/>
  </g>
</svg>
