<svg xmlns="http://www.w3.org/2000/svg" width="198.199" height="204.143" viewBox="0 0 198.199 204.143">
  <g id="montsuki" transform="translate(2938.538 -10237)">
    <path id="パス_4812" data-name="パス 4812" d="M274.053,373.058V189.329c0-5.639-5.55-10.209-12.392-10.209H88.246c-6.842,0-12.392,4.571-12.392,10.209V373.058c0,5.634,5.55,10.2,12.392,10.2H261.661C268.5,383.262,274.053,378.692,274.053,373.058Z" transform="translate(-3014.392 10057.88)" fill="rgba(255,255,255,0)"/>
    <g id="グループ_1397" data-name="グループ 1397" transform="translate(-2888.487 10264)">
      <g id="グループ_1395" data-name="グループ 1395" transform="translate(0 4.075)">
        <path id="パス_4813" data-name="パス 4813" d="M117.323,184.249c-.393,0-9.676.137-15.344,12.123-5.431,11.493-17.917,45.4-18.048,45.74a.974.974,0,0,0,.262,1.055l22.3,20.208c.537-5.824,1.38-15.707,1.473-21.518.25-16.062-.762-35.252-.768-35.446a.971.971,0,0,1,.918-1.024.96.96,0,0,1,1.024.924c.012.187,1.024,19.446.774,35.571-.112,6.9-1.255,19.4-1.729,24.3-.287,11.449-.518,21.25-.518,21.25a.98.98,0,0,0,.949,1l13.185.331h.025a.972.972,0,0,0,.968-.855c.006-.087.98-8.69,1.292-31.625.325-22.961-5.737-70.7-5.793-71.185A.976.976,0,0,0,117.323,184.249Z" transform="translate(-83.871 -183.816)"/>
        <path id="パス_4814" data-name="パス 4814" d="M133.306,242.476c-.131-.343-12.616-34.247-18.029-45.746-5.656-11.948-14.908-12.529-15.3-12.548a.957.957,0,0,0-1.011.849c-.062.487-6.118,48.656-5.812,71.616.331,22.929,1.286,31.538,1.292,31.619a.973.973,0,0,0,.968.861h.025l13.185-.331a.976.976,0,0,0,.949-1s-.231-10.369-.556-22.236l.013-.012c-.518-5.512-1.511-16.718-1.611-23.11-.256-16.131.755-35.384.768-35.577a.923.923,0,0,1,1.024-.924.971.971,0,0,1,.918,1.024c-.006.2-1.018,19.384-.768,35.452.094,5.8.93,15.657,1.467,21.481l22.218-20.364A.985.985,0,0,0,133.306,242.476Z" transform="translate(-35.268 -184.18)"/>
      </g>
      <path id="パス_4815" data-name="パス 4815" d="M105.482,198.978h-.006a.974.974,0,0,1-.824-.456l-7.8-12.454c-.649.649-1.561,1.542-2.416,2.278a7.98,7.98,0,0,1-4.339,1.629.95.95,0,0,1-1.018-.924A.977.977,0,0,1,90,188.029a6.124,6.124,0,0,0,3.165-1.155c1.442-1.242,3.121-3.022,3.14-3.04a.948.948,0,0,1,.805-.3.98.98,0,0,1,.73.45l7.641,12.2,7.753-12.2a.966.966,0,0,1,.762-.449.979.979,0,0,1,.818.356,10.082,10.082,0,0,0,3.034,2.6,32.218,32.218,0,0,0,3.633,1.136.977.977,0,0,1-.468,1.9,37.2,37.2,0,0,1-3.889-1.223,9.614,9.614,0,0,1-2.94-2.191L106.3,198.529A.964.964,0,0,1,105.482,198.978Z" transform="translate(-56.592 -183.527)"/>
      <path id="パス_4816" data-name="パス 4816" d="M90.623,220.324a.974.974,0,0,1-.73-1.623c.075-.087,8.091-9.189,12.2-14.87,4.083-5.662,10.987-19.184,11.056-19.321a.97.97,0,1,1,1.729.88c-.281.562-7.036,13.8-11.206,19.577-4.164,5.762-12.236,14.932-12.317,15.026A.975.975,0,0,1,90.623,220.324Z" transform="translate(-53.588 -181.2)"/>
      <path id="パス_4817" data-name="パス 4817" d="M101.884,204.8a.971.971,0,0,1-.8-.425c-.187-.269-4.5-6.574-6.155-9.47-1.455-2.566-4.932-9.2-5.082-9.476a.972.972,0,0,1,.412-1.311.983.983,0,0,1,1.317.412c.037.069,3.6,6.88,5.044,9.414,1.611,2.822,6.024,9.27,6.068,9.333a.974.974,0,0,1-.805,1.523Z" transform="translate(-53.119 -180.989)"/>
      <path id="パス_4818" data-name="パス 4818" d="M101.251,194.734a56.965,56.965,0,0,1-10.688-1.267.975.975,0,1,1,.418-1.9,55.247,55.247,0,0,0,10.269,1.224c4.794,0,11.243-.793,11.312-.8a1.032,1.032,0,0,1,1.086.849.974.974,0,0,1-.849,1.08A111.342,111.342,0,0,1,101.251,194.734Z" transform="translate(-52.798 -141.502)"/>
      <path id="パス_4819" data-name="パス 4819" d="M113.243,243.36a141.229,141.229,0,0,1-24.715-2.347.979.979,0,0,1-.78-.98l1.13-39.229,1.941.056-1.1,38.4a140.82,140.82,0,0,0,23.522,2.154,136.349,136.349,0,0,0,24.3-2.466l-2.2-37.98,1.941-.106,2.254,38.823a.971.971,0,0,1-.768,1.005A138.848,138.848,0,0,1,113.243,243.36Z" transform="translate(-63.548 -92.948)"/>
      <circle id="楕円形_169" data-name="楕円形 169" cx="2.813" cy="2.813" r="2.813" transform="translate(28.39 32.966)" fill="#fff"/>
      <circle id="楕円形_170" data-name="楕円形 170" cx="2.813" cy="2.813" r="2.813" transform="translate(63.518 32.966)" fill="#fff"/>
      <path id="パス_4820" data-name="パス 4820" d="M89.734,241.308h0a.966.966,0,0,1-.968-.974l.156-38.58a.912.912,0,0,1,.98-.974.971.971,0,0,1,.968.98l-.162,38.58A.97.97,0,0,1,89.734,241.308Z" transform="translate(-58.211 -93.069)"/>
      <path id="パス_4821" data-name="パス 4821" d="M97.319,241.7a.979.979,0,0,1-.974-.93l-1.6-39.073a.98.98,0,0,1,.936-1.011.96.96,0,0,1,1.011.93l1.6,39.067a.976.976,0,0,1-.93,1.018Z" transform="translate(-26.892 -93.615)"/>
      <path id="パス_4822" data-name="パス 4822" d="M95.775,242.2a.979.979,0,0,1-.974-.955L93.839,201.7a.975.975,0,0,1,.949-1,1.033,1.033,0,0,1,1,.949l.961,39.547a.975.975,0,0,1-.949,1Z" transform="translate(-31.615 -93.473)"/>
      <path id="パス_4823" data-name="パス 4823" d="M95.172,290.581a.967.967,0,0,1-.974-.955l-1.286-96.943a.966.966,0,0,1,.955-.986.886.886,0,0,1,.986.955L96.146,289.6a.975.975,0,0,1-.961.986Z" transform="translate(-36.475 -140.731)"/>
      <path id="パス_4824" data-name="パス 4824" d="M94.116,290.04a.971.971,0,0,1-.974-.955l-1.286-96.3a.979.979,0,0,1,.955-.993,1.091,1.091,0,0,1,.993.961l1.286,96.3a.975.975,0,0,1-.961.986Z" transform="translate(-42.011 -140.19)"/>
      <path id="パス_4825" data-name="パス 4825" d="M93.034,290.581a.971.971,0,0,1-.974-.955l-1.286-96.943a.975.975,0,0,1,.961-.986.928.928,0,0,1,.986.955L94.008,289.6a.975.975,0,0,1-.961.986Z" transform="translate(-47.684 -140.731)"/>
      <path id="パス_4826" data-name="パス 4826" d="M91.088,242.823a.974.974,0,0,1-.974-.968l-.318-40.19a.971.971,0,0,1,1.941-.019l.325,40.2a.975.975,0,0,1-.968.98Z" transform="translate(-52.811 -93.616)"/>
      <g id="グループ_1396" data-name="グループ 1396" transform="translate(41.405 41.234)">
        <circle id="楕円形_171" data-name="楕円形 171" cx="6.433" cy="6.433" r="6.433" transform="translate(0.97 0.974)" fill="#fff"/>
        <path id="パス_4827" data-name="パス 4827" d="M97.908,204.946a7.407,7.407,0,1,1,7.4-7.41A7.413,7.413,0,0,1,97.908,204.946Zm0-12.866a5.459,5.459,0,1,0,5.456,5.456A5.467,5.467,0,0,0,97.908,192.08Z" transform="translate(-90.504 -190.132)"/>
      </g>
    </g>
  </g>
</svg>
