<svg xmlns="http://www.w3.org/2000/svg" width="198.193" height="204.143" viewBox="0 0 198.193 204.143">
  <g id="photo" transform="translate(1427.316 -10237)">
    <path id="パス_4831" data-name="パス 4831" d="M516.126,373.058V189.329c0-5.639-5.544-10.209-12.386-10.209H330.318c-6.836,0-12.385,4.571-12.385,10.209V373.058c0,5.634,5.55,10.2,12.385,10.2H503.74C510.582,383.262,516.126,378.692,516.126,373.058Z" transform="translate(-1745.249 10057.88)" fill="rgba(255,255,255,0)"/>
    <g id="グループ_1401" data-name="グループ 1401" transform="translate(-1388.868 10295)">
      <circle id="楕円形_172" data-name="楕円形 172" cx="21.811" cy="21.811" r="21.811" transform="translate(52.911 72.133) rotate(-86.336)"/>
      <path id="パス_4832" data-name="パス 4832" d="M436.248,208.635l-4.72-1.555a10.7,10.7,0,0,1-7.054-7.629l-1.2-4.963a8.335,8.335,0,0,0-7.7-6.049H384.078a8.219,8.219,0,0,0-7.635,6.068l-.974,4.208a10.694,10.694,0,0,1-9.071,8.19,78.791,78.791,0,0,1-9.351.687h-2.079a4.3,4.3,0,0,0-4.283-4.27H337.333a4.292,4.292,0,0,0-4.283,4.276v.025a9.63,9.63,0,0,0-8.958,9.6v49.529a9.628,9.628,0,0,0,9.62,9.62H435.767a9.629,9.629,0,0,0,9.62-9.62v-45.49A14.167,14.167,0,0,0,436.248,208.635Zm-76.591,56.271a3.92,3.92,0,1,1-7.841,0V221.551a3.92,3.92,0,0,1,7.841,0Zm40.509,6.511a31.22,31.22,0,1,1,31.22-31.22A31.219,31.219,0,0,1,400.165,271.418Z" transform="translate(-324.092 -188.44)"/>
    </g>
  </g>
</svg>
