<svg xmlns="http://www.w3.org/2000/svg" width="198.193" height="204.143" viewBox="0 0 198.193 204.143">
  <g id="tuxedo" transform="translate(3157 -10237)">
    <path id="パス_4810" data-name="パス 4810" d="M239.052,373.058V189.329c0-5.639-5.543-10.209-12.385-10.209H53.251c-6.842,0-12.392,4.571-12.392,10.209V373.058c0,5.634,5.55,10.2,12.392,10.2H226.666C233.508,383.262,239.052,378.692,239.052,373.058Z" transform="translate(-3197.859 10057.88)" fill="rgba(255,255,255,0)"/>
    <g id="グループ_1393" data-name="グループ 1393" transform="translate(-3112.613 10263)">
      <path id="パス_4811" data-name="パス 4811" d="M157.158,237.912l-26.5-48.793a5.1,5.1,0,0,0-2.728-2.166l-13.06-3.614,5.818,8.222a1.519,1.519,0,0,1-.006,1.76l-5.032,6.961,4.045,4.52a1.516,1.516,0,0,1,.212,1.717l-12.055,22.848a1.507,1.507,0,0,1-2.041.637,1.519,1.519,0,0,1-.637-2.048l11.561-21.918-4.158-4.638a1.514,1.514,0,0,1-.1-1.9l5.113-7.073-5.575-7.878-9.308,39.3-9.364-39.3-5.575,7.878,5.107,7.073a1.514,1.514,0,0,1-.094,1.9l-4.17,4.651,11.268,21.918a1.519,1.519,0,0,1-.655,2.041,1.553,1.553,0,0,1-.693.169,1.513,1.513,0,0,1-1.348-.824L85.442,206.506a1.519,1.519,0,0,1,.225-1.7l4.045-4.52-5.032-6.961a1.509,1.509,0,0,1-.006-1.76l5.818-8.222-13.06,3.614A5.142,5.142,0,0,0,74.7,189.12L48.2,237.912a2.021,2.021,0,0,0,.712,2.653l8.883,5.412a2.018,2.018,0,0,0,2.684-.58l17.274-25.277c.593-.861,1.018-.712.949.325l-3.078,48.487a1.761,1.761,0,0,0,1.773,1.885H97.284a4.231,4.231,0,0,0,3.015-1.523l2.378-3.24,2.385,3.24a4.231,4.231,0,0,0,3.015,1.523h19.877a1.754,1.754,0,0,0,1.773-1.885l-3.078-48.487c-.062-1.036.362-1.186.949-.325L144.872,245.4a2.028,2.028,0,0,0,2.691.58l8.883-5.412A2.021,2.021,0,0,0,157.158,237.912Zm-62.945,12.91a2.086,2.086,0,0,1-2.079,2.079H83.463a2.086,2.086,0,0,1-2.079-2.079v-2.478H94.213Zm8.465,4.726a2.463,2.463,0,1,1,2.466-2.466A2.466,2.466,0,0,1,102.678,255.548Zm0-13.447a2.46,2.46,0,1,1,2.466-2.46A2.46,2.46,0,0,1,102.678,242.1Zm21.3,8.721A2.086,2.086,0,0,1,121.9,252.9h-8.671a2.086,2.086,0,0,1-2.079-2.079v-2.478h12.829Z" transform="translate(-47.969 -183.339)"/>
      <g id="グループ_1392" data-name="グループ 1392" transform="translate(34.928 80.625)">
        <rect id="長方形_575" data-name="長方形 575" width="18.298" height="70.994" rx="0.283"/>
        <rect id="長方形_576" data-name="長方形 576" width="18.298" height="70.994" rx="0.283" transform="translate(21.266)"/>
      </g>
    </g>
  </g>
</svg>
