<svg xmlns="http://www.w3.org/2000/svg" width="198.193" height="204.143" viewBox="0 0 198.193 204.143">
  <g id="wasou" transform="translate(2506.757 -10237)">
    <path id="パス_4828" data-name="パス 4828" d="M343.213,373.058V189.329c0-5.639-5.55-10.209-12.386-10.209H157.405c-6.842,0-12.385,4.571-12.385,10.209V373.058c0,5.634,5.543,10.2,12.385,10.2H330.827C337.663,383.262,343.213,378.692,343.213,373.058Z" transform="translate(-2651.777 10057.88)" fill="rgba(255,255,255,0)"/>
    <g id="グループ_1399" data-name="グループ 1399" transform="translate(-2484.832 10281)">
      <path id="パス_4829" data-name="パス 4829" d="M302.876,195.619v-7.56H148.532v7.56h8.7v99.44h-8.7v7.566h32.375a21.682,21.682,0,0,1-5.331-4.1l-3-3.471H164.8v-8.883h13.709c1.23-1.817,2.853-4.289,4.894-7.56H164.8V222.6h7.423v-7.566H164.8V195.619H286.608v19.415h-7.46V222.6h7.46v56.016H267.973c2.035,3.271,3.658,5.743,4.894,7.56h13.74v8.883H278.86l-3.065,3.471a21.728,21.728,0,0,1-5.325,4.1h32.406v-7.566h-8.709v-99.44Z" transform="translate(-148.532 -188.059)"/>
      <path id="パス_4830" data-name="パス 4830" d="M246.655,190.748h-92.3a1.015,1.015,0,0,0-1.011,1.011v48.568a1.512,1.512,0,0,0,1.511,1.511H173.1l7.835-22.692s-2.878,24.184-10.75,37.7c-10.513,18.035-15.026,23.466-15.026,23.466S164.52,291.13,200.5,291.13s45.347-10.819,45.347-10.819-4.513-5.431-15.026-23.466c-7.872-13.515-10.75-37.7-10.75-37.7l7.835,22.692h18.241a1.508,1.508,0,0,0,1.511-1.511V191.759A1.01,1.01,0,0,0,246.655,190.748Zm-72.322,17.873h-4.251l3.009,3.009a1.134,1.134,0,0,1,0,1.6,1.15,1.15,0,0,1-.805.331,1.135,1.135,0,0,1-.8-.331l-3.009-3.009v4.251a1.133,1.133,0,1,1-2.266,0v-4.251l-3,3.009a1.15,1.15,0,0,1-.805.331,1.133,1.133,0,0,1-.8-1.935l3-3.009h-4.251a1.133,1.133,0,0,1,0-2.266h4.251l-3-3a1.135,1.135,0,0,1,1.6-1.6l3,3V200.5a1.133,1.133,0,0,1,2.266,0v4.251l3.009-3a1.134,1.134,0,0,1,1.6,1.6l-3.009,3h4.251a1.133,1.133,0,1,1,0,2.266Zm14.92,63.526h-4.245l3,3.009a1.133,1.133,0,0,1-.8,1.935,1.15,1.15,0,0,1-.805-.331l-3-3.009V278a1.136,1.136,0,1,1-2.272,0v-4.251l-3,3.009a1.15,1.15,0,0,1-.805.331,1.133,1.133,0,0,1-.8-1.935l3-3.009h-4.251a1.133,1.133,0,0,1,0-2.266h4.251l-3-3a1.134,1.134,0,0,1,1.6-1.6l3,3v-4.251a1.136,1.136,0,0,1,2.272,0v4.251l3-3a1.134,1.134,0,0,1,1.6,1.6l-3,3h4.245a1.133,1.133,0,1,1,0,2.266ZM207.519,249.7h-1.9l1.348,1.348a1.134,1.134,0,0,1,0,1.6,1.15,1.15,0,0,1-.805.331,1.136,1.136,0,0,1-.8-.331l-1.348-1.348v1.9a1.133,1.133,0,1,1-2.266,0v-1.9l-1.348,1.348a1.15,1.15,0,0,1-.805.331,1.133,1.133,0,0,1-.8-1.935l1.348-1.348h-1.91a1.136,1.136,0,0,1,0-2.272h1.91l-1.348-1.349a1.134,1.134,0,0,1,1.6-1.6l1.348,1.348v-1.9a1.133,1.133,0,1,1,2.266,0v1.9l1.348-1.348a1.134,1.134,0,0,1,1.6,1.6l-1.348,1.349h1.9a1.136,1.136,0,0,1,0,2.272Zm14.577,19.54a1.134,1.134,0,0,1,1.6,1.6l-2.285,2.279h3.227a1.136,1.136,0,1,1,0,2.272h-3.227l2.285,2.279a1.133,1.133,0,0,1-.805,1.935,1.109,1.109,0,0,1-.8-.331L219.811,277v3.227a1.133,1.133,0,0,1-2.266,0V277l-2.285,2.278a1.13,1.13,0,0,1-1.6,0,1.134,1.134,0,0,1,0-1.6l2.279-2.279h-3.227a1.136,1.136,0,1,1,0-2.272h3.227l-2.279-2.279a1.132,1.132,0,0,1,1.6-1.6l2.285,2.285V268.3a1.133,1.133,0,1,1,2.266,0v3.221ZM238.477,210.5h-3.227l2.279,2.285a1.132,1.132,0,1,1-1.6,1.6l-2.285-2.285v3.227a1.133,1.133,0,1,1-2.266,0V212.1l-2.285,2.285a1.135,1.135,0,0,1-.8.331,1.149,1.149,0,0,1-.805-.331,1.134,1.134,0,0,1,0-1.6l2.285-2.285h-3.228a1.133,1.133,0,1,1,0-2.266h3.228l-2.285-2.285a1.134,1.134,0,0,1,1.6-1.6l2.285,2.285V203.4a1.133,1.133,0,1,1,2.266,0v3.228l2.285-2.285a1.132,1.132,0,1,1,1.6,1.6l-2.279,2.285h3.227a1.133,1.133,0,1,1,0,2.266Z" transform="translate(-123.33 -173.961)"/>
    </g>
  </g>
</svg>
